SplineFontDB: 1.0
FontName: ArundinaSans-Oblique
FullName: Arundina Sans Oblique
FamilyName: Arundina Sans
Weight: Book
Copyright: Copyright (c) 2003 by Bitstream, Inc. All Rights Reserved.\nCopyright (c) 2007 by Software Industry Promotion Agency (Public Organization). All Rights Reserved.
Version: 1.20
ItalicAngle: -10.9
UnderlinePosition: -75
UnderlineWidth: 50
Ascent: 800
Descent: 200
Order2: 1
XUID: [1021 375 425136265 13002690]
FSType: 4
OS2Version: 2
OS2_WeightWidthSlopeOnly: 0
OS2_UseTypoMetrics: 1
CreationTime: 1130778780
ModificationTime: 1171885044
PfmFamily: 33
TTFWeight: 400
TTFWidth: 5
LineGap: 35
VLineGap: 0
Panose: 2 11 3 0 2 2 2 2 2 4
OS2TypoAscent: 0
OS2TypoAOffset: 1
OS2TypoDescent: -200
OS2TypoDOffset: 1
OS2TypoLinegap: 0
OS2WinAscent: 26
OS2WinAOffset: 1
OS2WinDescent: 61
OS2WinDOffset: 1
HheadAscent: 26
HheadAOffset: 1
HheadDescent: -61
HheadDOffset: 1
OS2SubXSize: 700
OS2SubYSize: 650
OS2SubXOff: 0
OS2SubYOff: 140
OS2SupXSize: 700
OS2SupYSize: 650
OS2SupXOff: 0
OS2SupYOff: 477
OS2StrikeYSize: 50
OS2StrikeYPos: 250
OS2FamilyClass: 2050
OS2Vendor: 'BLWK'
ScriptLang: 2
 1 latn 1 dflt 
 0 
ChainSub: coverage 0 0 'liga' 0 0 0 1
 1 1 0
  Coverage: 7 uni0E47
  BCoverage: 12 uni0E2C.alt1
 1
  SeqLookup: 0 'L019'
EndFPST
ChainSub: coverage 0 0 'liga' 0 0 0 1
 1 0 1
  Coverage: 7 uni0E2C
  FCoverage: 39 uni0E34 uni0E35 uni0E36 uni0E37 uni0E47
 1
  SeqLookup: 0 'L019'
EndFPST
ChainSub: coverage 0 0 'liga' 0 0 0 1
 1 0 1
  Coverage: 15 uni0E0E uni0E0F
  FCoverage: 38 uni0E38.alt1 uni0E39.alt1 uni0E3A.alt1
 1
  SeqLookup: 0 'L019'
EndFPST
ChainSub: coverage 0 0 'liga' 0 0 0 1
 1 1 0
  Coverage: 5 a b c
  BCoverage: 23 uni0E1B uni0E1D uni0E1F
 1
  SeqLookup: 0 'L019'
EndFPST
ChainSub: coverage 0 0 'liga' 0 0 0 1
 1 0 1
  Coverage: 5 a b c
  FCoverage: 64 uni0E48.alt1 uni0E49.alt1 uni0E4A.alt1 uni0E4B.alt1 uni0E4C.alt1
 1
  SeqLookup: 0 'L019'
EndFPST
ChainSub: coverage 0 0 'liga' 0 0 0 1
 1 1 0

StartChar: .notdef
Encoding: 65536 -1 0
Width: 346
Flags: W
Fore
58 407 m 1,0,-1
 346 407 l 1,1,-1
 247 -102 l 1,2,-1
 -41 -102 l 1,3,-1
 58 407 l 1,0,-1
221 -70 m 1,4,-1
 307 374 l 1,5,-1
 84 374 l 1,6,-1
 -2 -70 l 1,7,-1
 221 -70 l 1,4,-1
EndSplineSet
EndChar
StartChar: exclam
Encoding: 33 33 4
Width: 232
Flags: W
Fore
107 71 m 1,0,-1
 94 0 l 1,1,-1
 37 0 l 1,2,-1
 50 71 l 1,3,-1
 107 71 l 1,0,-1
175 420 m 1,4,-1
 139 236 l 1,5,-1
 115 135 l 1,6,-1
 69 135 l 1,7,-1
 82 236 l 1,8,-1
 118 420 l 1,9,-1
 175 420 l 1,4,-1
EndSplineSet
EndChar
StartChar: quotedbl
Encoding: 34 34 5
Width: 266
Flags: W
Fore
105 264 m 1,0,-1
 57 264 l 1,1,-1
 87 420 l 1,2,-1
 135 420 l 1,3,-1
 105 264 l 1,0,-1
211 264 m 1,4,-1
 163 264 l 1,5,-1
 193 420 l 1,6,-1
 241 420 l 1,7,-1
 211 264 l 1,4,-1
EndSplineSet
EndChar
StartChar: numbersign
Encoding: 35 35 6
Width: 483
Flags: W
Fore
212 254 m 1,0,-1
 171 160 l 1,1,-1
 253 160 l 1,2,-1
 294 254 l 1,3,-1
 212 254 l 1,0,-1
231 298 m 1,4,-1
 313 298 l 1,5,-1
 365 414 l 1,6,-1
 410 414 l 1,7,-1
 358 298 l 1,8,-1
 446 298 l 1,9,-1
 438 254 l 1,10,-1
 339 254 l 1,11,-1
 298 160 l 1,12,-1
 388 160 l 1,13,-1
 379 116 l 1,14,-1
 278 116 l 1,15,-1
 227 0 l 1,16,-1
 182 0 l 1,17,-1
 233 116 l 1,18,-1
 150 116 l 1,19,-1
 99 0 l 1,20,-1
 54 0 l 1,21,-1
 105 116 l 1,22,-1
 16 116 l 1,23,-1
 25 160 l 1,24,-1
 125 160 l 1,25,-1
 167 254 l 1,26,-1
 75 254 l 1,27,-1
 83 298 l 1,28,-1
 185 298 l 1,29,-1
 237 414 l 1,30,-1
 282 414 l 1,31,-1
 231 298 l 1,4,-1
EndSplineSet
EndChar
StartChar: dollar
Encoding: 36 36 7
Width: 367
Flags: W
Fore
100 -85 m 1,0,-1
 117 0 l 1,1,2
 59 0 59 0 2 26 c 1,3,-1
 11 76 l 1,4,5
 37 59 37 59 64.5 49.5 c 128,-1,6
 92 40 92 40 124 40 c 1,7,-1
 149 169 l 1,8,9
 89 178 89 178 65 202.5 c 128,-1,10
 41 227 41 227 49 269 c 0,11,12
 58 315 58 315 94 341.5 c 128,-1,13
 130 368 130 368 189 372 c 1,14,-1
 202 438 l 1,15,-1
 230 438 l 1,16,-1
 217 373 l 1,17,18
 243 372 243 372 266.5 368 c 128,-1,19
 290 364 290 364 313 355 c 1,20,-1
 303 306 l 1,21,22
 259 330 259 330 209 332 c 1,23,-1
 186 212 l 1,24,25
 248 202 248 202 273 177 c 128,-1,26
 298 152 298 152 289 107 c 0,27,28
 280 59 280 59 243 32 c 128,-1,29
 206 5 206 5 145 0 c 1,30,-1
 128 -85 l 1,31,-1
 100 -85 l 1,0,-1
181 333 m 1,32,33
 112 325 112 325 103 274 c 0,34,35
 98 250 98 250 111 236 c 128,-1,36
 124 222 124 222 158 216 c 1,37,-1
 181 333 l 1,32,33
152 41 m 1,38,39
 227 49 227 49 236 102 c 0,40,41
 241 127 241 127 227 141.5 c 128,-1,42
 213 156 213 156 176 163 c 1,43,-1
 152 41 l 1,38,39
EndSplineSet
EndChar
StartChar: percent
Encoding: 37 37 8
Width: 548
Flags: W
Fore
404 185 m 0,0,1
 379 185 379 185 362 164 c 128,-1,2
 345 143 345 143 337 106 c 0,3,4
 330 69 330 69 339.5 48.5 c 128,-1,5
 349 28 349 28 374 28 c 0,6,7
 398 28 398 28 416.5 48.5 c 128,-1,8
 435 69 435 69 442 106 c 0,9,10
 450 143 450 143 439 164 c 128,-1,11
 428 185 428 185 404 185 c 0,0,1
411 220 m 256,12,13
 456 220 456 220 476.5 190 c 128,-1,14
 497 160 497 160 486 106 c 0,15,16
 476 54 476 54 444 23 c 128,-1,17
 412 -8 412 -8 367 -8 c 256,18,19
 322 -8 322 -8 302 23 c 128,-1,20
 282 54 282 54 292 106 c 0,21,22
 303 160 303 160 334.5 190 c 128,-1,23
 366 220 366 220 411 220 c 256,12,13
155 392 m 0,24,25
 131 392 131 392 112.5 371 c 128,-1,26
 94 350 94 350 87 314 c 0,27,28
 79 277 79 277 89 256 c 128,-1,29
 99 235 99 235 124 235 c 0,30,31
 148 235 148 235 166 256 c 128,-1,32
 184 277 184 277 192 314 c 0,33,34
 199 350 199 350 188.5 371 c 128,-1,35
 178 392 178 392 155 392 c 0,24,25
461 428 m 1,36,-1
 113 -8 l 1,37,-1
 69 -8 l 1,38,-1
 416 428 l 1,39,-1
 461 428 l 1,36,-1
162 428 m 256,40,41
 207 428 207 428 227.5 398 c 128,-1,42
 248 368 248 368 238 314 c 0,43,44
 227 260 227 260 194.5 229.5 c 128,-1,45
 162 199 162 199 117 199 c 256,46,47
 72 199 72 199 52 229.5 c 128,-1,48
 32 260 32 260 43 314 c 0,49,50
 53 366 53 366 85 397 c 128,-1,51
 117 428 117 428 162 428 c 256,40,41
EndSplineSet
EndChar
StartChar: ampersand
Encoding: 38 38 9
Width: 450
Flags: W
Fore
134 227 m 1,0,1
 102 203 102 203 86.5 180.5 c 128,-1,2
 71 158 71 158 66 133 c 0,3,4
 58 91 58 91 82.5 64 c 128,-1,5
 107 37 107 37 153 37 c 0,6,7
 203 37 203 37 253 73 c 1,8,-1
 134 227 l 1,9,-1
 134 227 l 1,0,1
293 111 m 1,10,11
 316 136 316 136 330.5 165 c 128,-1,12
 345 194 345 194 354 226 c 1,13,-1
 405 226 l 1,14,15
 386 151 386 151 318 80 c 1,16,-1
 382 0 l 1,17,-1
 312 0 l 1,18,-1
 278 41 l 1,19,20
 210 -8 210 -8 139 -8 c 0,21,22
 70 -8 70 -8 34 30 c 0,23,24
 -1 68 -1 68 11 130 c 0,25,26
 24 202 24 202 111 258 c 1,27,28
 91 293 91 293 97 327 c 0,29,30
 106 373 106 373 143 400.5 c 128,-1,31
 180 428 180 428 232 428 c 0,32,33
 276 428 276 428 322 408 c 1,34,-1
 312 356 l 1,35,36
 268 384 268 384 228 384 c 0,37,38
 198 384 198 384 177 368 c 128,-1,39
 156 352 156 352 151 328 c 0,40,41
 148 313 148 313 154 298.5 c 128,-1,42
 160 284 160 284 180 258 c 2,43,-1
 293 111 l 1,10,11
EndSplineSet
EndChar
StartChar: quotesingle
Encoding: 39 39 10
Width: 159
Flags: W
Fore
105 264 m 1,0,-1
 57 264 l 1,1,-1
 87 420 l 1,2,-1
 135 420 l 1,3,-1
 105 264 l 1,0,-1
EndSplineSet
EndChar
StartChar: parenleft
Encoding: 40 40 11
Width: 225
Flags: W
Fore
214 438 m 1,0,1
 163 372 163 372 133 309.5 c 128,-1,2
 103 247 103 247 90 181 c 256,3,4
 77 115 77 115 82.5 52.5 c 128,-1,5
 88 -10 88 -10 114 -76 c 1,6,-1
 69 -76 l 1,7,8
 40 -10 40 -10 30.5 54 c 128,-1,9
 21 118 21 118 34 181 c 0,10,11
 58 306 58 306 169 438 c 1,12,-1
 214 438 l 1,13,-1
 214 438 l 1,0,1
EndSplineSet
EndChar
StartChar: parenright
Encoding: 41 41 12
Width: 225
Flags: W
Fore
126 438 m 1,0,1
 155 371 155 371 163.5 307.5 c 128,-1,2
 172 244 172 244 160 181 c 0,3,4
 134 55 134 55 26 -76 c 1,5,-1
 -19 -76 l 1,6,7
 31 -10 31 -10 62 52.5 c 128,-1,8
 93 115 93 115 106 181 c 256,9,10
 119 247 119 247 112 309.5 c 128,-1,11
 105 372 105 372 81 438 c 1,12,-1
 126 438 l 1,0,1
EndSplineSet
EndChar
StartChar: asterisk
Encoding: 42 42 13
Width: 288
Flags: W
Fore
177 297 m 1,0,-1
 267 241 l 1,1,-1
 246 214 l 1,2,-1
 163 271 l 1,3,-1
 143 165 l 1,4,-1
 111 165 l 1,5,-1
 131 271 l 1,6,-1
 25 214 l 1,7,-1
 14 241 l 1,8,-1
 125 297 l 1,9,-1
 36 351 l 1,10,-1
 57 379 l 1,11,-1
 141 322 l 1,12,-1
 162 428 l 1,13,-1
 194 428 l 1,14,-1
 173 322 l 1,15,-1
 278 379 l 1,16,-1
 289 351 l 1,17,-1
 177 297 l 1,0,-1
EndSplineSet
EndChar
StartChar: plus
Encoding: 43 43 14
Width: 483
Flags: W
Fore
255 205 m 1,0,-1
 411 205 l 1,1,-1
 402 157 l 1,2,-1
 246 157 l 1,3,-1
 216 0 l 1,4,-1
 167 0 l 1,5,-1
 197 157 l 1,6,-1
 42 157 l 1,7,-1
 51 205 l 1,8,-1
 206 205 l 1,9,-1
 237 362 l 1,10,-1
 286 362 l 1,11,-1
 255 205 l 1,0,-1
EndSplineSet
EndChar
StartChar: comma
Encoding: 44 44 15
Width: 183
Flags: W
Fore
91 71 m 1,0,-1
 82 23 l 1,1,-1
 17 -67 l 1,2,-1
 -20 -67 l 1,3,-1
 21 23 l 1,4,-1
 30 71 l 1,5,-1
 91 71 l 1,0,-1
EndSplineSet
EndChar
StartChar: hyphen
Encoding: 45 45 16
Width: 208
Flags: W
Fore
165 181 m 1,0,-1
 156 135 l 1,1,-1
 4 135 l 1,2,-1
 13 181 l 1,3,-1
 165 181 l 1,0,-1
EndSplineSet
EndChar
StartChar: period
Encoding: 46 46 17
Width: 183
Flags: W
Fore
85 71 m 1,0,-1
 72 0 l 1,1,-1
 12 0 l 1,2,-1
 25 71 l 1,3,-1
 85 71 l 1,0,-1
EndSplineSet
EndChar
StartChar: slash
Encoding: 47 47 18
Width: 194
Flags: W
Fore
225 420 m 1,0,-1
 -14 -54 l 1,1,-1
 -60 -54 l 1,2,-1
 177 420 l 1,3,-1
 225 420 l 1,0,-1
EndSplineSet
EndChar
StartChar: zero
Encoding: 48 48 19
Width: 367
Flags: W
Fore
207 383 m 0,0,1
 119 383 119 383 85 210 c 0,2,3
 52 37 52 37 140 37 c 0,4,5
 229 37 229 37 262 210 c 0,6,7
 296 383 296 383 207 383 c 0,0,1
216 428 m 256,8,9
 288 428 288 428 314 372 c 128,-1,10
 340 316 340 316 319 210 c 0,11,12
 299 104 299 104 251 48 c 128,-1,13
 203 -8 203 -8 131 -8 c 256,14,15
 59 -8 59 -8 33.5 48 c 128,-1,16
 8 104 8 104 28 210 c 0,17,18
 49 316 49 316 96.5 372 c 128,-1,19
 144 428 144 428 216 428 c 256,8,9
EndSplineSet
EndChar
StartChar: one
Encoding: 49 49 20
Width: 367
Flags: W
Fore
124 47 m 1,0,-1
 186 369 l 1,1,-1
 81 348 l 1,2,-1
 91 401 l 1,3,-1
 195 420 l 1,4,-1
 251 420 l 1,5,-1
 179 47 l 1,6,-1
 273 47 l 1,7,-1
 264 0 l 1,8,-1
 21 0 l 1,9,-1
 30 47 l 1,10,-1
 124 47 l 1,0,-1
EndSplineSet
EndChar
StartChar: two
Encoding: 50 50 21
Width: 367
Flags: W
Fore
268 47 m 1,0,-1
 259 0 l 1,1,-1
 -8 0 l 1,2,-1
 1 47 l 1,3,4
 20 64 20 64 46.5 86.5 c 128,-1,5
 73 109 73 109 106 137 c 0,6,7
 140 166 140 166 161 184.5 c 128,-1,8
 182 203 182 203 192 211 c 0,9,10
 225 241 225 241 239.5 262 c 128,-1,11
 254 283 254 283 259 304 c 0,12,13
 265 338 265 338 245.5 359 c 128,-1,14
 226 380 226 380 188 380 c 0,15,16
 135 380 135 380 61 343 c 1,17,-1
 72 401 l 1,18,19
 109 414 109 414 140.5 421 c 128,-1,20
 172 428 172 428 197 428 c 0,21,22
 263 428 263 428 295 395.5 c 128,-1,23
 327 363 327 363 316 308 c 0,24,25
 311 282 311 282 297 259 c 128,-1,26
 283 236 283 236 251 204 c 0,27,28
 243 196 243 196 197.5 157.5 c 128,-1,29
 152 119 152 119 69 47 c 1,30,-1
 268 47 l 1,0,-1
EndSplineSet
EndChar
StartChar: three
Encoding: 51 51 22
Width: 367
Flags: W
Fore
228 227 m 1,0,1
 267 217 267 217 284.5 190 c 128,-1,2
 302 163 302 163 294 123 c 0,3,4
 282 60 282 60 233 26 c 128,-1,5
 184 -8 184 -8 105 -8 c 0,6,7
 53 -8 53 -8 -5 12 c 1,8,-1
 6 67 l 1,9,10
 50 40 50 40 112 40 c 0,11,12
 166 40 166 40 197.5 60.5 c 128,-1,13
 229 81 229 81 237 123 c 0,14,15
 245 160 245 160 223 180.5 c 128,-1,16
 201 201 201 201 155 201 c 2,17,-1
 105 201 l 1,18,-1
 114 248 l 1,19,-1
 166 248 l 2,20,21
 252 248 252 248 264 313 c 0,22,23
 271 345 271 345 251 362.5 c 128,-1,24
 231 380 231 380 189 380 c 0,25,26
 165 380 165 380 138 375 c 128,-1,27
 111 370 111 370 76 359 c 1,28,-1
 86 410 l 1,29,30
 155 428 155 428 204 428 c 0,31,32
 270 428 270 428 301.5 399 c 128,-1,33
 333 370 333 370 323 319 c 0,34,35
 307 246 307 246 228 227 c 1,0,1
EndSplineSet
EndChar
StartChar: four
Encoding: 52 52 23
Width: 367
Flags: W
Fore
52 146 m 1,0,-1
 195 146 l 1,1,-1
 239 371 l 1,2,-1
 52 146 l 1,0,-1
306 420 m 1,3,-1
 253 146 l 1,4,-1
 313 146 l 1,5,-1
 304 99 l 1,6,-1
 244 99 l 1,7,-1
 225 0 l 1,8,-1
 167 0 l 1,9,-1
 186 99 l 1,10,-1
 -3 99 l 1,11,-1
 7 153 l 1,12,-1
 234 420 l 1,13,-1
 306 420 l 1,3,-1
EndSplineSet
EndChar
StartChar: five
Encoding: 53 53 24
Width: 367
Flags: W
Fore
316 420 m 1,0,-1
 307 373 l 1,1,-1
 136 373 l 1,2,-1
 116 270 l 1,3,4
 145 278 145 278 168 278 c 0,5,6
 240 278 240 278 272.5 239.5 c 128,-1,7
 305 201 305 201 292 135 c 0,8,9
 278 66 278 66 229 29 c 128,-1,10
 180 -8 180 -8 104 -8 c 0,11,12
 52 -8 52 -8 -5 10 c 1,13,-1
 7 67 l 1,14,15
 30 54 30 54 55.5 47 c 128,-1,16
 81 40 81 40 110 40 c 0,17,18
 161 40 161 40 194 65 c 128,-1,19
 227 90 227 90 236 135 c 0,20,21
 244 180 244 180 221 205.5 c 128,-1,22
 198 231 198 231 147 231 c 0,23,24
 125 231 125 231 101 225 c 128,-1,25
 77 219 77 219 53 209 c 1,26,-1
 94 420 l 1,27,-1
 316 420 l 1,0,-1
EndSplineSet
EndChar
StartChar: six
Encoding: 54 54 25
Width: 367
Flags: W
Fore
186 233 m 0,0,1
 146 233 146 233 118.5 206.5 c 128,-1,2
 91 180 91 180 83 135 c 0,3,4
 74 90 74 90 91 63.5 c 128,-1,5
 108 37 108 37 148 37 c 0,6,7
 186 37 186 37 213.5 63.5 c 128,-1,8
 241 90 241 90 250 135 c 0,9,10
 258 180 258 180 241 206.5 c 128,-1,11
 224 233 224 233 186 233 c 0,0,1
322 359 m 1,12,13
 303 370 303 370 282 375 c 128,-1,14
 261 380 261 380 239 380 c 0,15,16
 127 380 127 380 91 228 c 1,17,18
 111 252 111 252 139.5 265 c 128,-1,19
 168 278 168 278 198 278 c 0,20,21
 262 278 262 278 291 239.5 c 128,-1,22
 320 201 320 201 307 135 c 0,23,24
 294 70 294 70 248 31 c 128,-1,25
 202 -8 202 -8 139 -8 c 0,26,27
 64 -8 64 -8 37 48 c 128,-1,28
 10 104 10 104 30 210 c 0,29,30
 40 260 40 260 60 300 c 128,-1,31
 80 340 80 340 108.5 368.5 c 128,-1,32
 137 397 137 397 172.5 412.5 c 128,-1,33
 208 428 208 428 247 428 c 0,34,35
 269 428 269 428 289.5 423.5 c 128,-1,36
 310 419 310 419 332 411 c 1,37,-1
 322 359 l 1,12,13
EndSplineSet
EndChar
StartChar: seven
Encoding: 55 55 26
Width: 367
Flags: W
Fore
349 420 m 1,0,-1
 345 397 l 1,1,-1
 115 0 l 1,2,-1
 56 0 l 1,3,-1
 271 373 l 1,4,-1
 69 373 l 1,5,-1
 78 420 l 1,6,-1
 349 420 l 1,0,-1
EndSplineSet
EndChar
StartChar: eight
Encoding: 56 56 27
Width: 367
Flags: W
Fore
171 200 m 0,0,1
 131 200 131 200 104 178.5 c 128,-1,2
 77 157 77 157 69 118 c 0,3,4
 62 80 62 80 81 58.5 c 128,-1,5
 100 37 100 37 140 37 c 0,6,7
 182 37 182 37 209 58.5 c 128,-1,8
 236 80 236 80 243 118 c 0,9,10
 251 157 251 157 232 178.5 c 128,-1,11
 213 200 213 200 171 200 c 0,0,1
120 224 m 1,12,13
 85 233 85 233 68.5 258 c 128,-1,14
 52 283 52 283 60 319 c 0,15,16
 70 370 70 370 111.5 399 c 128,-1,17
 153 428 153 428 216 428 c 256,18,19
 279 428 279 428 309.5 399 c 128,-1,20
 340 370 340 370 330 319 c 0,21,22
 322 283 322 283 296.5 258 c 128,-1,23
 271 233 271 233 233 224 c 1,24,25
 273 214 273 214 290.5 187 c 128,-1,26
 308 160 308 160 300 118 c 0,27,28
 289 58 289 58 245 25 c 128,-1,29
 201 -8 201 -8 131 -8 c 256,30,31
 61 -8 61 -8 30.5 25 c 128,-1,32
 0 58 0 58 11 118 c 0,33,34
 19 160 19 160 47.5 187 c 128,-1,35
 76 214 76 214 120 224 c 1,12,13
117 314 m 0,36,37
 110 281 110 281 126.5 262.5 c 128,-1,38
 143 244 143 244 180 244 c 0,39,40
 216 244 216 244 241 262.5 c 128,-1,41
 266 281 266 281 273 314 c 0,42,43
 279 346 279 346 261 364.5 c 128,-1,44
 243 383 243 383 207 383 c 0,45,46
 170 383 170 383 146.5 364.5 c 128,-1,47
 123 346 123 346 117 314 c 0,36,37
EndSplineSet
EndChar
StartChar: nine
Encoding: 57 57 28
Width: 367
Flags: W
Fore
25 61 m 1,0,1
 44 50 44 50 65 45 c 128,-1,2
 86 40 86 40 107 40 c 0,3,4
 164 40 164 40 201 77.5 c 128,-1,5
 238 115 238 115 257 193 c 1,6,7
 235 169 235 169 207.5 155.5 c 128,-1,8
 180 142 180 142 150 142 c 0,9,10
 86 142 86 142 57 180 c 128,-1,11
 28 218 28 218 41 285 c 0,12,13
 54 350 54 350 100 389 c 128,-1,14
 146 428 146 428 209 428 c 0,15,16
 282 428 282 428 310 372 c 128,-1,17
 338 316 338 316 317 210 c 0,18,19
 297 110 297 110 239 51 c 128,-1,20
 181 -8 181 -8 100 -8 c 0,21,22
 57 -8 57 -8 15 8 c 1,23,-1
 25 61 l 1,0,1
162 187 m 256,24,25
 200 187 200 187 228 213 c 128,-1,26
 256 239 256 239 265 285 c 256,27,28
 274 331 274 331 256 357 c 128,-1,29
 238 383 238 383 200 383 c 256,30,31
 162 383 162 383 135 357 c 128,-1,32
 108 331 108 331 99 285 c 256,33,34
 90 239 90 239 107 213 c 128,-1,35
 124 187 124 187 162 187 c 256,24,25
EndSplineSet
EndChar
StartChar: colon
Encoding: 58 58 29
Width: 194
Flags: W
Fore
91 71 m 1,0,-1
 78 0 l 1,1,-1
 17 0 l 1,2,-1
 30 71 l 1,3,-1
 91 71 l 1,0,-1
136 299 m 1,4,-1
 122 227 l 1,5,-1
 61 227 l 1,6,-1
 75 299 l 1,7,-1
 136 299 l 1,4,-1
EndSplineSet
EndChar
StartChar: semicolon
Encoding: 59 59 30
Width: 194
Flags: W
Fore
136 299 m 1,0,-1
 122 227 l 1,1,-1
 61 227 l 1,2,-1
 75 299 l 1,3,-1
 136 299 l 1,0,-1
91 71 m 1,4,-1
 82 23 l 1,5,-1
 17 -67 l 1,6,-1
 -20 -67 l 1,7,-1
 21 23 l 1,8,-1
 30 71 l 1,9,-1
 91 71 l 1,4,-1
EndSplineSet
EndChar
StartChar: less
Encoding: 60 60 31
Width: 483
Flags: W
Fore
116 180 m 1,0,-1
 387 78 l 1,1,-1
 377 27 l 1,2,-1
 42 158 l 1,3,-1
 51 204 l 1,4,-1
 437 335 l 1,5,-1
 427 283 l 1,6,-1
 116 180 l 1,0,-1
EndSplineSet
EndChar
StartChar: equal
Encoding: 61 61 32
Width: 483
Flags: W
Fore
422 262 m 1,0,-1
 413 214 l 1,1,-1
 53 214 l 1,2,-1
 62 262 l 1,3,-1
 422 262 l 1,0,-1
400 147 m 1,4,-1
 391 99 l 1,5,-1
 31 99 l 1,6,-1
 40 147 l 1,7,-1
 400 147 l 1,4,-1
EndSplineSet
EndChar
StartChar: greater
Encoding: 62 62 33
Width: 483
Flags: W
Fore
77 335 m 1,0,-1
 411 204 l 1,1,-1
 402 158 l 1,2,-1
 17 27 l 1,3,-1
 27 78 l 1,4,-1
 335 180 l 1,5,-1
 67 283 l 1,6,-1
 77 335 l 1,0,-1
EndSplineSet
EndChar
StartChar: question
Encoding: 63 63 34
Width: 306
Flags: W
Fore
131 71 m 1,0,-1
 118 0 l 1,1,-1
 60 0 l 1,2,-1
 73 71 l 1,3,-1
 131 71 l 1,0,-1
82 113 m 1,4,-1
 91 157 l 2,5,6
 96 184 96 184 108 202.5 c 128,-1,7
 120 221 120 221 149 245 c 2,8,-1
 180 271 l 2,9,10
 216 298 216 298 222 325 c 0,11,12
 227 351 227 351 211.5 366.5 c 128,-1,13
 196 382 196 382 165 382 c 0,14,15
 143 382 143 382 116 372.5 c 128,-1,16
 89 363 89 363 57 343 c 1,17,-1
 68 397 l 1,18,19
 130 428 130 428 184 428 c 0,20,21
 236 428 236 428 262 401 c 128,-1,22
 288 374 288 374 279 329 c 0,23,24
 275 307 275 307 260.5 288 c 128,-1,25
 246 269 246 269 217 244 c 2,26,-1
 188 220 l 2,27,28
 171 207 171 207 165 200 c 128,-1,29
 159 193 159 193 154 185 c 1,30,31
 152 179 152 179 149.5 171 c 128,-1,32
 147 163 147 163 144 147 c 2,33,-1
 137 113 l 1,34,-1
 82 113 l 1,4,-1
EndSplineSet
EndChar
StartChar: at
Encoding: 64 64 35
Width: 577
Flags: W
Fore
193 151 m 0,0,1
 185 111 185 111 200.5 88 c 128,-1,2
 216 65 216 65 251 65 c 256,3,4
 286 65 286 65 311 88 c 128,-1,5
 336 111 336 111 344 151 c 256,6,7
 352 191 352 191 335.5 214 c 128,-1,8
 319 237 319 237 285 237 c 256,9,10
 251 237 251 237 226 215 c 128,-1,11
 201 193 201 193 193 151 c 0,0,1
331 67 m 1,12,13
 289 25 289 25 233 25 c 0,14,15
 185 25 185 25 161.5 59.5 c 128,-1,16
 138 94 138 94 149 151 c 256,17,18
 160 208 160 208 197.5 243 c 128,-1,19
 235 278 235 278 283 278 c 0,20,21
 312 278 312 278 331 268 c 128,-1,22
 350 258 350 258 363 236 c 1,23,-1
 371 273 l 1,24,-1
 411 273 l 1,25,-1
 370 65 l 1,26,27
 414 71 414 71 442 102 c 128,-1,28
 470 133 470 133 480 184 c 0,29,30
 492 246 492 246 466 289 c 0,31,32
 444 327 444 327 405.5 346.5 c 128,-1,33
 367 366 367 366 319 366 c 0,34,35
 284 366 284 366 250 356.5 c 128,-1,36
 216 347 216 347 186 330 c 0,37,38
 135 301 135 301 101.5 254 c 128,-1,39
 68 207 68 207 57 152 c 0,40,41
 49 107 49 107 57 68.5 c 128,-1,42
 65 30 65 30 91 0 c 0,43,44
 140 -60 140 -60 231 -60 c 0,45,46
 267 -60 267 -60 304 -48 c 128,-1,47
 341 -36 341 -36 375 -12 c 1,48,-1
 394 -43 l 1,49,50
 353 -71 353 -71 309 -85.5 c 128,-1,51
 265 -100 265 -100 223 -100 c 0,52,53
 115 -100 115 -100 55 -28 c 0,54,55
 26 7 26 7 16.5 53.5 c 128,-1,56
 7 100 7 100 17 152 c 256,57,58
 27 204 27 204 55 251 c 128,-1,59
 83 298 83 298 125 333 c 0,60,61
 169 368 169 368 220.5 387.5 c 128,-1,62
 272 407 272 407 326 407 c 0,63,64
 386 407 386 407 431.5 382 c 128,-1,65
 477 357 477 357 503 312 c 0,66,67
 520 284 520 284 524.5 251.5 c 128,-1,68
 529 219 529 219 522 185 c 0,69,70
 508 110 508 110 454.5 67.5 c 128,-1,71
 401 25 401 25 322 24 c 1,72,-1
 331 67 l 1,73,-1
 331 67 l 1,12,13
EndSplineSet
EndChar
StartChar: A
Encoding: 65 65 36
Width: 394
Flags: W
Fore
101 156 m 1,0,-1
 255 156 l 1,1,-1
 217 365 l 1,2,-1
 101 156 l 1,0,-1
261 420 m 1,3,-1
 339 0 l 1,4,-1
 281 0 l 1,5,-1
 263 107 l 1,6,-1
 73 107 l 1,7,-1
 15 0 l 1,8,-1
 -46 0 l 1,9,-1
 196 420 l 1,10,-1
 261 420 l 1,3,-1
EndSplineSet
KernsSLIFO: 57 -50 0 0
EndChar
StartChar: B
Encoding: 66 66 37
Width: 396
Flags: W
Fore
71 46 m 1,0,-1
 163 46 l 2,1,2
 253 46 253 46 269 124 c 0,3,4
 284 201 284 201 194 201 c 2,5,-1
 102 201 l 1,6,-1
 71 46 l 1,0,-1
111 247 m 1,7,-1
 196 247 l 2,8,9
 277 247 277 247 290 310 c 0,10,11
 302 374 302 374 220 374 c 2,12,-1
 135 374 l 1,13,-1
 111 247 l 1,7,-1
233 420 m 2,14,15
 299 420 299 420 329 393.5 c 128,-1,16
 359 367 359 367 349 316 c 0,17,18
 341 278 341 278 318.5 255.5 c 128,-1,19
 296 233 296 233 261 227 c 1,20,21
 300 217 300 217 318 189.5 c 128,-1,22
 336 162 336 162 327 117 c 0,23,24
 316 62 316 62 272 31 c 128,-1,25
 228 0 228 0 158 0 c 2,26,-1
 7 0 l 1,27,-1
 88 420 l 1,28,-1
 233 420 l 2,14,15
EndSplineSet
EndChar
StartChar: C
Encoding: 67 67 38
Width: 403
Flags: W
Fore
385 328 m 1,0,1
 338 381 338 381 265 381 c 0,2,3
 193 381 193 381 146.5 338 c 128,-1,4
 100 295 100 295 83 210 c 0,5,6
 67 126 67 126 96.5 82.5 c 128,-1,7
 126 39 126 39 198 39 c 0,8,9
 271 39 271 39 339 92 c 1,10,-1
 328 32 l 1,11,12
 260 -8 260 -8 186 -8 c 0,13,14
 89 -8 89 -8 45.5 49.5 c 128,-1,15
 2 107 2 107 22 210 c 0,16,17
 32 261 32 261 54 301 c 128,-1,18
 76 341 76 341 108.5 369.5 c 128,-1,19
 141 398 141 398 182 413 c 128,-1,20
 223 428 223 428 271 428 c 0,21,22
 345 428 345 428 397 388 c 1,23,-1
 385 328 l 1,0,1
EndSplineSet
EndChar
StartChar: D
Encoding: 68 68 39
Width: 444
Flags: W
Fore
71 46 m 1,0,-1
 140 46 l 2,1,2
 228 46 228 46 276 86 c 128,-1,3
 324 126 324 126 341 211 c 0,4,5
 357 296 357 296 324.5 335 c 128,-1,6
 292 374 292 374 204 374 c 2,7,-1
 135 374 l 1,8,-1
 71 46 l 1,0,-1
204 420 m 2,9,10
 328 420 328 420 375 370 c 128,-1,11
 422 320 422 320 401 211 c 0,12,13
 379 102 379 102 312.5 51 c 128,-1,14
 246 0 246 0 123 0 c 2,15,-1
 7 0 l 1,16,-1
 88 420 l 1,17,-1
 204 420 l 2,9,10
EndSplineSet
EndChar
StartChar: E
Encoding: 69 69 40
Width: 365
Flags: W
Fore
353 420 m 1,0,-1
 344 373 l 1,1,-1
 135 373 l 1,2,-1
 111 248 l 1,3,-1
 312 248 l 1,4,-1
 302 200 l 1,5,-1
 101 200 l 1,6,-1
 72 47 l 1,7,-1
 287 47 l 1,8,-1
 278 0 l 1,9,-1
 7 0 l 1,10,-1
 88 420 l 1,11,-1
 353 420 l 1,0,-1
EndSplineSet
EndChar
StartChar: F
Encoding: 70 70 41
Width: 332
Flags: W
Fore
330 420 m 1,0,-1
 321 373 l 1,1,-1
 135 373 l 1,2,-1
 111 248 l 1,3,-1
 278 248 l 1,4,-1
 269 201 l 1,5,-1
 102 201 l 1,6,-1
 63 0 l 1,7,-1
 7 0 l 1,8,-1
 88 420 l 1,9,-1
 330 420 l 1,0,-1
EndSplineSet
EndChar
StartChar: G
Encoding: 71 71 42
Width: 447
Flags: W
Fore
326 173 m 1,0,-1
 233 173 l 1,1,-1
 242 219 l 1,2,-1
 392 219 l 1,3,-1
 357 39 l 1,4,5
 319 15 319 15 277 3.5 c 128,-1,6
 235 -8 235 -8 190 -8 c 0,7,8
 91 -8 91 -8 46.5 49.5 c 128,-1,9
 2 107 2 107 22 210 c 256,10,11
 42 313 42 313 109.5 370.5 c 128,-1,12
 177 428 177 428 275 428 c 0,13,14
 360 428 360 428 413 388 c 1,15,-1
 401 328 l 1,16,17
 350 381 350 381 271 381 c 0,18,19
 117 381 117 381 83 210 c 0,20,21
 50 39 50 39 204 39 c 0,22,23
 234 39 234 39 258.5 43.5 c 128,-1,24
 283 48 283 48 304 60 c 1,25,-1
 326 173 l 1,0,-1
EndSplineSet
EndChar
StartChar: H
Encoding: 72 72 43
Width: 434
Flags: W
Fore
144 420 m 1,0,-1
 111 248 l 1,1,-1
 318 248 l 1,2,-1
 351 420 l 1,3,-1
 408 420 l 1,4,-1
 327 0 l 1,5,-1
 270 0 l 1,6,-1
 308 200 l 1,7,-1
 101 200 l 1,8,-1
 63 0 l 1,9,-1
 7 0 l 1,10,-1
 88 420 l 1,11,-1
 144 420 l 1,0,-1
EndSplineSet
EndChar
StartChar: I
Encoding: 73 73 44
Width: 170
Flags: W
Fore
144 420 m 1,0,-1
 63 0 l 1,1,-1
 7 0 l 1,2,-1
 88 420 l 1,3,-1
 144 420 l 1,0,-1
EndSplineSet
EndChar
StartChar: J
Encoding: 74 74 45
Width: 170
Flags: W
Fore
144 420 m 1,0,-1
 68 29 l 2,1,2
 54 -46 54 -46 18.5 -80.5 c 128,-1,3
 -17 -115 -17 -115 -80 -115 c 2,4,-1
 -102 -115 l 1,5,-1
 -93 -67 l 1,6,-1
 -75 -67 l 2,7,8
 -37 -67 -37 -67 -18 -46 c 128,-1,9
 1 -25 1 -25 12 29 c 2,10,-1
 88 420 l 1,11,-1
 144 420 l 1,0,-1
EndSplineSet
EndChar
StartChar: K
Encoding: 75 75 46
Width: 378
Flags: W
Fore
144 420 m 1,0,-1
 110 243 l 1,1,-1
 333 420 l 1,2,-1
 406 420 l 1,3,-1
 160 225 l 1,4,-1
 340 0 l 1,5,-1
 265 0 l 1,6,-1
 102 203 l 1,7,-1
 63 0 l 1,8,-1
 7 0 l 1,9,-1
 88 420 l 1,10,-1
 144 420 l 1,0,-1
EndSplineSet
EndChar
StartChar: L
Encoding: 76 76 47
Width: 321
Flags: W
Fore
144 420 m 1,0,-1
 72 47 l 1,1,-1
 277 47 l 1,2,-1
 268 0 l 1,3,-1
 7 0 l 1,4,-1
 88 420 l 1,5,-1
 144 420 l 1,0,-1
EndSplineSet
EndChar
StartChar: M
Encoding: 77 77 48
Width: 497
Flags: W
Fore
172 420 m 1,0,-1
 224 134 l 1,1,-1
 387 420 l 1,2,-1
 473 420 l 1,3,-1
 392 0 l 1,4,-1
 336 0 l 1,5,-1
 407 369 l 1,6,-1
 243 81 l 1,7,-1
 185 81 l 1,8,-1
 132 369 l 1,9,-1
 61 0 l 1,10,-1
 7 0 l 1,11,-1
 88 420 l 1,12,-1
 172 420 l 1,0,-1
EndSplineSet
EndChar
StartChar: N
Encoding: 78 78 49
Width: 432
Flags: W
Fore
164 420 m 1,0,-1
 283 69 l 1,1,-1
 351 420 l 1,2,-1
 406 420 l 1,3,-1
 325 0 l 1,4,-1
 249 0 l 1,5,-1
 129 351 l 1,6,-1
 61 0 l 1,7,-1
 7 0 l 1,8,-1
 88 420 l 1,9,-1
 164 420 l 1,0,-1
EndSplineSet
EndChar
StartChar: O
Encoding: 79 79 50
Width: 454
Flags: W
Fore
252 382 m 0,0,1
 189 382 189 382 144 335.5 c 128,-1,2
 99 289 99 289 83 210 c 0,3,4
 68 129 68 129 95 83.5 c 128,-1,5
 122 38 122 38 185 38 c 0,6,7
 246 38 246 38 291.5 83.5 c 128,-1,8
 337 129 337 129 352 210 c 0,9,10
 368 289 368 289 340.5 335.5 c 128,-1,11
 313 382 313 382 252 382 c 0,0,1
261 428 m 0,12,13
 305 428 305 428 337.5 412.5 c 128,-1,14
 370 397 370 397 389.5 368.5 c 128,-1,15
 409 340 409 340 415 300 c 128,-1,16
 421 260 421 260 411 210 c 256,17,18
 401 160 401 160 379.5 120 c 128,-1,19
 358 80 358 80 327.5 51.5 c 128,-1,20
 297 23 297 23 258.5 7.5 c 128,-1,21
 220 -8 220 -8 176 -8 c 0,22,23
 88 -8 88 -8 44 51 c 0,24,25
 3 111 3 111 22 210 c 0,26,27
 42 310 42 310 106 368 c 0,28,29
 172 428 172 428 261 428 c 0,12,13
EndSplineSet
EndChar
StartChar: P
Encoding: 80 80 51
Width: 348
Flags: W
Fore
104 215 m 1,0,-1
 176 215 l 2,1,2
 216 215 216 215 241.5 236.5 c 128,-1,3
 267 258 267 258 275 295 c 0,4,5
 283 333 283 333 265 353.5 c 128,-1,6
 247 374 247 374 207 374 c 2,7,-1
 135 374 l 1,8,-1
 104 215 l 1,0,-1
216 420 m 2,9,10
 286 420 286 420 316.5 388 c 128,-1,11
 347 356 347 356 335 295 c 0,12,13
 323 232 323 232 280 200.5 c 128,-1,14
 237 169 237 169 167 169 c 2,15,-1
 95 169 l 1,16,-1
 63 0 l 1,17,-1
 7 0 l 1,18,-1
 88 420 l 1,19,-1
 216 420 l 2,9,10
EndSplineSet
EndChar
StartChar: Q
Encoding: 81 81 52
Width: 454
Flags: W
Fore
252 382 m 0,0,1
 189 382 189 382 144 335.5 c 128,-1,2
 99 289 99 289 83 210 c 0,3,4
 68 129 68 129 95 83.5 c 128,-1,5
 122 38 122 38 185 38 c 0,6,7
 246 38 246 38 291.5 83.5 c 128,-1,8
 337 129 337 129 352 210 c 0,9,10
 368 289 368 289 340.5 335.5 c 128,-1,11
 313 382 313 382 252 382 c 0,0,1
317 -74 m 1,12,-1
 248 -74 l 1,13,-1
 199 -7 l 1,14,15
 189 -7 189 -7 184.5 -7.5 c 128,-1,16
 180 -8 180 -8 176 -8 c 0,17,18
 88 -8 88 -8 44 51 c 0,19,20
 3 111 3 111 22 210 c 0,21,22
 42 310 42 310 106 368 c 0,23,24
 172 428 172 428 261 428 c 0,25,26
 305 428 305 428 337.5 412.5 c 128,-1,27
 370 397 370 397 389.5 368.5 c 128,-1,28
 409 340 409 340 415 300 c 128,-1,29
 421 260 421 260 411 210 c 0,30,31
 397 137 397 137 358 84.5 c 128,-1,32
 319 32 319 32 258 7 c 1,33,-1
 317 -74 l 1,12,-1
EndSplineSet
EndChar
StartChar: R
Encoding: 82 82 53
Width: 401
Flags: W
Fore
244 197 m 1,0,1
 276 187 276 187 299 114 c 2,2,-1
 334 0 l 1,3,-1
 272 0 l 1,4,-1
 239 107 l 2,5,6
 233 128 233 128 226 142 c 128,-1,7
 219 156 219 156 209.5 163.5 c 128,-1,8
 200 171 200 171 188 174 c 128,-1,9
 176 177 176 177 159 177 c 2,10,-1
 97 177 l 1,11,-1
 63 0 l 1,12,-1
 7 0 l 1,13,-1
 88 420 l 1,14,-1
 216 420 l 2,15,16
 360 420 360 420 336 300 c 0,17,18
 328 260 328 260 304.5 233.5 c 128,-1,19
 281 207 281 207 244 197 c 1,0,1
106 225 m 1,20,-1
 178 225 l 2,21,22
 261 225 261 225 276 300 c 0,23,24
 290 374 290 374 207 374 c 2,25,-1
 135 374 l 1,26,-1
 106 225 l 1,20,-1
EndSplineSet
EndChar
StartChar: S
Encoding: 83 83 54
Width: 366
Flags: W
Fore
327 351 m 1,0,1
 268 382 268 382 217 382 c 0,2,3
 169 382 169 382 140.5 364 c 128,-1,4
 112 346 112 346 105 313 c 0,5,6
 100 284 100 284 114 270 c 128,-1,7
 128 256 128 256 173 247 c 2,8,-1
 206 240 l 2,9,10
 268 229 268 229 292 198.5 c 128,-1,11
 316 168 316 168 306 116 c 0,12,13
 294 55 294 55 247 23.5 c 128,-1,14
 200 -8 200 -8 121 -8 c 0,15,16
 91 -8 91 -8 59 -1.5 c 128,-1,17
 27 5 27 5 -7 19 c 1,18,-1
 4 77 l 1,19,20
 35 58 35 58 66.5 48 c 128,-1,21
 98 38 98 38 130 38 c 0,22,23
 178 38 178 38 208.5 57 c 128,-1,24
 239 76 239 76 246 111 c 0,25,26
 252 143 252 143 236 160 c 128,-1,27
 220 177 220 177 180 186 c 2,28,-1
 146 194 l 2,29,30
 84 206 84 206 61 233 c 128,-1,31
 38 260 38 260 47 308 c 0,32,33
 58 365 58 365 103.5 396.5 c 128,-1,34
 149 428 149 428 218 428 c 0,35,36
 248 428 248 428 277.5 422.5 c 128,-1,37
 307 417 307 417 338 407 c 1,38,-1
 327 351 l 1,0,1
EndSplineSet
EndChar
StartChar: T
Encoding: 84 84 55
Width: 352
Flags: W
Fore
385 420 m 1,0,-1
 376 373 l 1,1,-1
 227 373 l 1,2,-1
 155 0 l 1,3,-1
 97 0 l 1,4,-1
 169 373 l 1,5,-1
 21 373 l 1,6,-1
 30 420 l 1,7,-1
 385 420 l 1,0,-1
EndSplineSet
EndChar
StartChar: U
Encoding: 85 85 56
Width: 422
Flags: W
Fore
138 420 m 1,0,-1
 89 165 l 2,1,2
 75 98 75 98 94.5 68 c 128,-1,3
 114 38 114 38 168 38 c 0,4,5
 223 38 223 38 253 68 c 128,-1,6
 283 98 283 98 297 165 c 2,7,-1
 346 420 l 1,8,-1
 403 420 l 1,9,-1
 352 158 l 2,10,11
 336 76 336 76 287 34 c 128,-1,12
 238 -8 238 -8 159 -8 c 256,13,14
 80 -8 80 -8 47 34 c 128,-1,15
 14 76 14 76 30 158 c 2,16,-1
 81 420 l 1,17,-1
 138 420 l 1,0,-1
EndSplineSet
EndChar
StartChar: V
Encoding: 86 86 57
Width: 394
Flags: W
Fore
35 420 m 1,0,-1
 95 420 l 1,1,-1
 159 66 l 1,2,-1
 362 420 l 1,3,-1
 420 420 l 1,4,-1
 180 0 l 1,5,-1
 115 0 l 1,6,-1
 35 420 l 1,0,-1
EndSplineSet
KernsSLIFO: 36 -50 0 0
EndChar
StartChar: W
Encoding: 87 87 58
Width: 571
Flags: W
Fore
107 420 m 1,0,-1
 127 65 l 1,1,-1
 284 420 l 1,2,-1
 348 420 l 1,3,-1
 368 65 l 1,4,-1
 524 420 l 1,5,-1
 582 420 l 1,6,-1
 396 0 l 1,7,-1
 324 0 l 1,8,-1
 305 365 l 1,9,-1
 146 0 l 1,10,-1
 75 0 l 1,11,-1
 51 420 l 1,12,-1
 107 420 l 1,0,-1
EndSplineSet
EndChar
StartChar: X
Encoding: 88 88 59
Width: 396
Flags: W
Fore
129 420 m 1,0,-1
 203 264 l 1,1,-1
 338 420 l 1,2,-1
 399 420 l 1,3,-1
 225 218 l 1,4,-1
 327 0 l 1,5,-1
 266 0 l 1,6,-1
 182 179 l 1,7,-1
 28 0 l 1,8,-1
 -32 0 l 1,9,-1
 161 225 l 1,10,-1
 67 420 l 1,11,-1
 129 420 l 1,0,-1
EndSplineSet
EndChar
StartChar: Y
Encoding: 89 89 60
Width: 352
Flags: W
Fore
91 420 m 1,0,-1
 174 247 l 1,1,-1
 324 420 l 1,2,-1
 384 420 l 1,3,-1
 193 200 l 1,4,-1
 155 0 l 1,5,-1
 97 0 l 1,6,-1
 135 200 l 1,7,-1
 30 420 l 1,8,-1
 91 420 l 1,0,-1
EndSplineSet
EndChar
StartChar: Z
Encoding: 90 90 61
Width: 396
Flags: W
Fore
394 420 m 1,0,-1
 386 377 l 1,1,-1
 56 47 l 1,2,-1
 328 47 l 1,3,-1
 319 0 l 1,4,-1
 -24 0 l 1,5,-1
 -16 43 l 1,6,-1
 313 373 l 1,7,-1
 54 373 l 1,8,-1
 63 420 l 1,9,-1
 394 420 l 1,0,-1
EndSplineSet
EndChar
StartChar: bracketleft
Encoding: 91 91 62
Width: 225
Flags: W
Fore
204 438 m 1,0,-1
 196 398 l 1,1,-1
 129 398 l 1,2,-1
 45 -36 l 1,3,-1
 112 -36 l 1,4,-1
 104 -76 l 1,5,-1
 -16 -76 l 1,6,-1
 84 438 l 1,7,-1
 204 438 l 1,0,-1
EndSplineSet
EndChar
StartChar: backslash
Encoding: 92 92 63
Width: 194
Flags: W
Fore
133 -54 m 1,0,-1
 85 -54 l 1,1,-1
 31 420 l 1,2,-1
 78 420 l 1,3,-1
 133 -54 l 1,0,-1
EndSplineSet
EndChar
StartChar: bracketright
Encoding: 93 93 64
Width: 225
Flags: W
Fore
110 -76 m 1,0,-1
 -9 -76 l 1,1,-1
 -1 -36 l 1,2,-1
 67 -36 l 1,3,-1
 151 398 l 1,4,-1
 83 398 l 1,5,-1
 91 438 l 1,6,-1
 210 438 l 1,7,-1
 110 -76 l 1,0,-1
EndSplineSet
EndChar
StartChar: asciicircum
Encoding: 94 94 65
Width: 483
Flags: W
Fore
423 264 m 1,0,-1
 367 264 l 1,1,-1
 263 375 l 1,2,-1
 118 264 l 1,3,-1
 63 264 l 1,4,-1
 245 420 l 1,5,-1
 300 420 l 1,6,-1
 423 264 l 1,0,-1
EndSplineSet
EndChar
StartChar: underscore
Encoding: 95 95 66
Width: 288
Flags: W
Fore
218 -136 m 1,0,-1
 -81 -136 l 1,1,-1
 -73 -96 l 1,2,-1
 226 -96 l 1,3,-1
 218 -136 l 1,0,-1
EndSplineSet
EndChar
StartChar: grave
Encoding: 96 96 67
Width: 288
Flags: W
Fore
201 356 m 1,0,-1
 159 356 l 1,1,-1
 86 461 l 1,2,-1
 143 461 l 1,3,-1
 201 356 l 1,0,-1
EndSplineSet
EndChar
StartChar: a
Encoding: 97 97 68
Width: 353
Flags: W
Fore
178 159 m 1,0,1
 115 159 115 159 88.5 144.5 c 128,-1,2
 62 130 62 130 55 95 c 0,3,4
 50 67 50 67 64.5 51 c 128,-1,5
 79 35 79 35 109 35 c 0,6,7
 154 35 154 35 185.5 65.5 c 128,-1,8
 217 96 217 96 227 147 c 2,9,-1
 229 159 l 1,10,-1
 178 159 l 1,11,-1
 178 159 l 1,0,1
251 0 m 1,12,-1
 199 0 l 1,13,-1
 208 47 l 1,14,15
 162 -8 162 -8 88 -8 c 0,16,17
 40 -8 40 -8 17 19 c 128,-1,18
 -6 46 -6 46 2 92 c 0,19,20
 23 199 23 199 164 199 c 2,21,-1
 237 199 l 1,22,-1
 238 204 l 2,23,24
 245 240 245 240 225.5 259.5 c 128,-1,25
 206 279 206 279 164 279 c 0,26,27
 109 279 109 279 57 253 c 1,28,-1
 66 301 l 1,29,30
 95 312 95 312 123.5 317 c 128,-1,31
 152 322 152 322 177 322 c 0,32,33
 313 322 313 322 285 180 c 2,34,-1
 251 0 l 1,12,-1
EndSplineSet
Substitution: 0 65534 'L019' uni0E38
Substitution: 0 65534 'L019' uni0E38
EndChar
StartChar: b
Encoding: 98 98 69
Width: 366
Flags: W
Fore
260 158 m 0,0,1
 271 215 271 215 255 247 c 128,-1,2
 239 279 239 279 197 279 c 256,3,4
 155 279 155 279 125.5 247 c 128,-1,5
 96 215 96 215 85 158 c 0,6,7
 74 100 74 100 90.5 67.5 c 128,-1,8
 107 35 107 35 149 35 c 256,9,10
 191 35 191 35 220 67.5 c 128,-1,11
 249 100 249 100 260 158 c 0,0,1
107 268 m 1,12,13
 148 322 148 322 217 322 c 0,14,15
 275 322 275 322 302 277.5 c 128,-1,16
 329 233 329 233 315 158 c 0,17,18
 308 121 308 121 292.5 90 c 128,-1,19
 277 59 277 59 255.5 37.5 c 128,-1,20
 234 16 234 16 208 4 c 128,-1,21
 182 -8 182 -8 153 -8 c 0,22,23
 85 -8 85 -8 64 47 c 1,24,-1
 55 0 l 1,25,-1
 3 0 l 1,26,-1
 88 438 l 1,27,-1
 140 438 l 1,28,-1
 107 268 l 1,29,-1
 107 268 l 1,12,13
EndSplineSet
Substitution: 0 65534 'L019' uni0E39
Substitution: 0 65534 'L019' uni0E39
EndChar
StartChar: c
Encoding: 99 99 70
Width: 317
Flags: W
Fore
280 255 m 1,0,1
 243 279 243 279 197 279 c 0,2,3
 146 279 146 279 112 247 c 128,-1,4
 78 215 78 215 67 158 c 0,5,6
 56 100 56 100 77 68 c 128,-1,7
 98 36 98 36 149 36 c 0,8,9
 171 36 171 36 195 41.5 c 128,-1,10
 219 47 219 47 242 60 c 1,11,-1
 233 12 l 1,12,13
 185 -8 185 -8 135 -8 c 0,14,15
 63 -8 63 -8 30 36 c 128,-1,16
 -3 80 -3 80 12 158 c 256,17,18
 27 236 27 236 77.5 279 c 128,-1,19
 128 322 128 322 203 322 c 0,20,21
 252 322 252 322 289 303 c 1,22,-1
 280 255 l 1,0,1
EndSplineSet
Substitution: 0 65534 'L019' uni0E3A
Substitution: 0 65534 'L019' uni0E3A
EndChar
StartChar: d
Encoding: 100 100 71
Width: 366
Flags: W
Fore
297 438 m 1,0,-1
 349 438 l 1,1,-1
 264 0 l 1,2,-1
 212 0 l 1,3,-1
 221 47 l 1,4,5
 198 20 198 20 171 6 c 128,-1,6
 144 -8 144 -8 109 -8 c 0,7,8
 52 -8 52 -8 25 37.5 c 128,-1,9
 -2 83 -2 83 12 158 c 0,10,11
 19 195 19 195 34.5 225.5 c 128,-1,12
 50 256 50 256 71 277.5 c 128,-1,13
 92 299 92 299 118.5 310.5 c 128,-1,14
 145 322 145 322 173 322 c 0,15,16
 241 322 241 322 264 268 c 1,17,-1
 297 438 l 1,0,-1
65 158 m 0,18,19
 54 100 54 100 70.5 67.5 c 128,-1,20
 87 35 87 35 129 35 c 256,21,22
 171 35 171 35 201 67.5 c 128,-1,23
 231 100 231 100 242 158 c 0,24,25
 253 215 253 215 236 247 c 128,-1,26
 219 279 219 279 177 279 c 256,27,28
 135 279 135 279 105.5 247 c 128,-1,29
 76 215 76 215 65 158 c 0,18,19
EndSplineSet
EndChar
StartChar: e
Encoding: 101 101 72
Width: 355
Flags: W
Fore
302 145 m 1,0,-1
 63 145 l 1,1,2
 52 36 52 36 155 36 c 0,3,4
 215 36 215 36 274 65 c 1,5,-1
 265 16 l 1,6,7
 205 -8 205 -8 144 -8 c 0,8,9
 69 -8 69 -8 33 35.5 c 128,-1,10
 -3 79 -3 79 12 155 c 0,11,12
 27 233 27 233 76.5 277.5 c 128,-1,13
 126 322 126 322 198 322 c 0,14,15
 262 322 262 322 291.5 281.5 c 128,-1,16
 321 241 321 241 307 171 c 2,17,-1
 302 145 l 1,0,-1
259 186 m 1,18,19
 267 229 267 229 248.5 254 c 128,-1,20
 230 279 230 279 191 279 c 0,21,22
 148 279 148 279 117 255 c 128,-1,23
 86 231 86 231 73 185 c 1,24,-1
 259 186 l 1,25,-1
 259 186 l 1,18,19
EndSplineSet
EndChar
StartChar: f
Encoding: 102 102 73
Width: 203
Flags: W
Fore
240 396 m 1,0,-1
 191 396 l 2,1,2
 163 396 163 396 149.5 384.5 c 128,-1,3
 136 373 136 373 130 343 c 2,4,-1
 125 315 l 1,5,-1
 211 315 l 1,6,-1
 203 275 l 1,7,-1
 117 275 l 1,8,-1
 64 0 l 1,9,-1
 13 0 l 1,10,-1
 66 275 l 1,11,-1
 16 275 l 1,12,-1
 24 315 l 1,13,-1
 74 315 l 1,14,-1
 78 338 l 2,15,16
 89 390 89 390 117.5 414 c 128,-1,17
 146 438 146 438 200 438 c 2,18,-1
 249 438 l 1,19,-1
 240 396 l 1,0,-1
EndSplineSet
EndChar
StartChar: g
Encoding: 103 103 74
Width: 366
Flags: W
Fore
243 162 m 0,0,1
 254 217 254 217 236.5 248 c 128,-1,2
 219 279 219 279 177 279 c 256,3,4
 135 279 135 279 106 248 c 128,-1,5
 77 217 77 217 66 162 c 0,6,7
 55 105 55 105 72 74 c 128,-1,8
 89 43 89 43 131 43 c 256,9,10
 173 43 173 43 202.5 74 c 128,-1,11
 232 105 232 105 243 162 c 0,0,1
271 39 m 1,12,13
 240 -121 240 -121 95 -121 c 0,14,15
 67 -121 67 -121 44.5 -116 c 128,-1,16
 22 -111 22 -111 -1 -104 c 1,17,-1
 9 -53 l 1,18,19
 30 -65 30 -65 51 -71 c 128,-1,20
 72 -77 72 -77 96 -77 c 0,21,22
 196 -77 196 -77 217 30 c 2,23,-1
 222 56 l 1,24,25
 180 0 180 0 111 0 c 0,26,27
 53 0 53 0 26 44.5 c 128,-1,28
 -1 89 -1 89 13 162 c 0,29,30
 20 198 20 198 35 227.5 c 128,-1,31
 50 257 50 257 71 278 c 128,-1,32
 92 299 92 299 118 310.5 c 128,-1,33
 144 322 144 322 173 322 c 0,34,35
 244 322 244 322 264 268 c 1,36,-1
 273 315 l 1,37,-1
 325 315 l 1,38,-1
 271 39 l 1,39,-1
 271 39 l 1,12,13
EndSplineSet
EndChar
StartChar: h
Encoding: 104 104 75
Width: 366
Flags: W
Fore
266 0 m 1,0,-1
 215 0 l 1,1,-1
 251 188 l 2,2,3
 269 278 269 278 199 278 c 0,4,5
 156 278 156 278 127 252 c 128,-1,6
 98 226 98 226 89 178 c 2,7,-1
 55 0 l 1,8,-1
 3 0 l 1,9,-1
 88 438 l 1,10,-1
 140 438 l 1,11,-1
 106 267 l 1,12,13
 131 295 131 295 158 308.5 c 128,-1,14
 185 322 185 322 218 322 c 0,15,16
 273 322 273 322 294 288.5 c 128,-1,17
 315 255 315 255 303 191 c 2,18,-1
 266 0 l 1,0,-1
EndSplineSet
EndChar
StartChar: i
Encoding: 105 105 76
Width: 161
Flags: W
Fore
117 315 m 1,0,-1
 56 0 l 1,1,-1
 5 0 l 1,2,-1
 66 315 l 1,3,-1
 117 315 l 1,0,-1
141 438 m 1,4,-1
 128 373 l 1,5,-1
 77 373 l 1,6,-1
 90 438 l 1,7,-1
 141 438 l 1,4,-1
EndSplineSet
EndChar
StartChar: j
Encoding: 106 106 77
Width: 161
Flags: W
Fore
117 315 m 1,0,-1
 55 -5 l 2,1,2
 43 -66 43 -66 15 -93.5 c 128,-1,3
 -13 -121 -13 -121 -64 -121 c 2,4,-1
 -83 -121 l 1,5,-1
 -74 -76 l 1,6,-1
 -61 -76 l 2,7,8
 -32 -76 -32 -76 -18.5 -62 c 128,-1,9
 -5 -48 -5 -48 4 -5 c 2,10,-1
 66 315 l 1,11,-1
 117 315 l 1,0,-1
141 438 m 1,12,-1
 128 373 l 1,13,-1
 77 373 l 1,14,-1
 90 438 l 1,15,-1
 141 438 l 1,12,-1
EndSplineSet
EndChar
StartChar: k
Encoding: 107 107 78
Width: 334
Flags: W
Fore
140 438 m 1,0,-1
 89 179 l 1,1,-1
 270 315 l 1,2,-1
 336 315 l 1,3,-1
 140 168 l 1,4,-1
 283 0 l 1,5,-1
 215 0 l 1,6,-1
 84 153 l 1,7,-1
 55 0 l 1,8,-1
 3 0 l 1,9,-1
 88 438 l 1,10,-1
 140 438 l 1,0,-1
EndSplineSet
EndChar
StartChar: l
Encoding: 108 108 79
Width: 161
Flags: W
Fore
141 438 m 1,0,-1
 56 0 l 1,1,-1
 5 0 l 1,2,-1
 90 438 l 1,3,-1
 141 438 l 1,0,-1
EndSplineSet
EndChar
StartChar: m
Encoding: 109 109 80
Width: 561
Flags: W
Fore
299 255 m 1,0,1
 350 322 350 322 422 322 c 0,2,3
 471 322 471 322 491.5 288 c 128,-1,4
 512 254 512 254 500 191 c 2,5,-1
 463 0 l 1,6,-1
 410 0 l 1,7,-1
 446 188 l 2,8,9
 464 278 464 278 400 278 c 0,10,11
 358 278 358 278 330 252 c 128,-1,12
 302 226 302 226 293 178 c 2,13,-1
 259 0 l 1,14,-1
 206 0 l 1,15,-1
 242 188 l 2,16,17
 251 236 251 236 240 257 c 128,-1,18
 229 278 229 278 196 278 c 0,19,20
 154 278 154 278 126 252 c 128,-1,21
 98 226 98 226 89 178 c 2,22,-1
 55 0 l 1,23,-1
 3 0 l 1,24,-1
 64 315 l 1,25,-1
 116 315 l 1,26,-1
 106 267 l 1,27,28
 130 296 130 296 157 309 c 128,-1,29
 184 322 184 322 218 322 c 0,30,31
 288 322 288 322 299 255 c 1,0,1
EndSplineSet
EndChar
StartChar: n
Encoding: 110 110 81
Width: 366
Flags: W
Fore
266 0 m 1,0,-1
 215 0 l 1,1,-1
 251 188 l 2,2,3
 269 278 269 278 199 278 c 0,4,5
 156 278 156 278 127 252 c 128,-1,6
 98 226 98 226 89 178 c 2,7,-1
 55 0 l 1,8,-1
 3 0 l 1,9,-1
 64 315 l 1,10,-1
 116 315 l 1,11,-1
 106 267 l 1,12,13
 131 295 131 295 158 308.5 c 128,-1,14
 185 322 185 322 218 322 c 0,15,16
 273 322 273 322 294 288.5 c 128,-1,17
 315 255 315 255 303 191 c 2,18,-1
 266 0 l 1,0,-1
EndSplineSet
EndChar
StartChar: o
Encoding: 111 111 82
Width: 353
Flags: W
Fore
180 279 m 256,0,1
 138 279 138 279 108 247 c 128,-1,2
 78 215 78 215 67 158 c 256,3,4
 56 101 56 101 73 68.5 c 128,-1,5
 90 36 90 36 132 36 c 256,6,7
 174 36 174 36 205 68.5 c 128,-1,8
 236 101 236 101 247 158 c 0,9,10
 258 213 258 213 240 246 c 128,-1,11
 222 279 222 279 180 279 c 256,0,1
188 322 m 256,12,13
 257 322 257 322 286.5 279 c 128,-1,14
 316 236 316 236 301 158 c 256,15,16
 286 80 286 80 239.5 36 c 128,-1,17
 193 -8 193 -8 124 -8 c 256,18,19
 55 -8 55 -8 26 36 c 128,-1,20
 -3 80 -3 80 12 158 c 256,21,22
 27 236 27 236 73 279 c 128,-1,23
 119 322 119 322 188 322 c 256,12,13
EndSplineSet
EndChar
StartChar: p
Encoding: 112 112 83
Width: 366
Flags: W
Fore
31 -121 m 1,0,-1
 -21 -121 l 1,1,-1
 64 315 l 1,2,-1
 116 315 l 1,3,-1
 107 268 l 1,4,5
 148 322 148 322 217 322 c 0,6,7
 275 322 275 322 302 277.5 c 128,-1,8
 329 233 329 233 315 158 c 0,9,10
 308 121 308 121 292.5 90 c 128,-1,11
 277 59 277 59 255.5 37.5 c 128,-1,12
 234 16 234 16 208 4 c 128,-1,13
 182 -8 182 -8 153 -8 c 0,14,15
 85 -8 85 -8 64 47 c 1,16,-1
 31 -121 l 1,0,-1
260 158 m 0,17,18
 271 215 271 215 255 247 c 128,-1,19
 239 279 239 279 197 279 c 256,20,21
 155 279 155 279 125.5 247 c 128,-1,22
 96 215 96 215 85 158 c 0,23,24
 74 100 74 100 90.5 67.5 c 128,-1,25
 107 35 107 35 149 35 c 256,26,27
 191 35 191 35 220 67.5 c 128,-1,28
 249 100 249 100 260 158 c 0,17,18
EndSplineSet
EndChar
StartChar: q
Encoding: 113 113 84
Width: 366
Flags: W
Fore
65 158 m 0,0,1
 54 100 54 100 70.5 67.5 c 128,-1,2
 87 35 87 35 129 35 c 256,3,4
 171 35 171 35 201 67.5 c 128,-1,5
 231 100 231 100 242 158 c 0,6,7
 253 215 253 215 236 247 c 128,-1,8
 219 279 219 279 177 279 c 256,9,10
 135 279 135 279 105.5 247 c 128,-1,11
 76 215 76 215 65 158 c 0,0,1
221 47 m 1,12,13
 198 20 198 20 171 6 c 128,-1,14
 144 -8 144 -8 109 -8 c 0,15,16
 52 -8 52 -8 25 37.5 c 128,-1,17
 -2 83 -2 83 12 158 c 0,18,19
 19 195 19 195 34.5 225.5 c 128,-1,20
 50 256 50 256 71 277.5 c 128,-1,21
 92 299 92 299 118.5 310.5 c 128,-1,22
 145 322 145 322 173 322 c 0,23,24
 241 322 241 322 264 268 c 1,25,-1
 273 315 l 1,26,-1
 325 315 l 1,27,-1
 240 -121 l 1,28,-1
 188 -121 l 1,29,-1
 221 47 l 1,30,-1
 221 47 l 1,12,13
EndSplineSet
EndChar
StartChar: r
Encoding: 114 114 85
Width: 237
Flags: W
Fore
238 267 m 1,0,1
 225 277 225 277 199 277 c 0,2,3
 154 277 154 277 126 248.5 c 128,-1,4
 98 220 98 220 87 166 c 2,5,-1
 55 0 l 1,6,-1
 3 0 l 1,7,-1
 64 315 l 1,8,-1
 116 315 l 1,9,-1
 106 267 l 1,10,11
 128 296 128 296 156.5 309 c 128,-1,12
 185 322 185 322 223 322 c 0,13,14
 228 322 228 322 234.5 322 c 128,-1,15
 241 322 241 322 249 320 c 1,16,-1
 238 267 l 1,17,-1
 238 267 l 1,0,1
EndSplineSet
EndChar
StartChar: s
Encoding: 115 115 86
Width: 301
Flags: W
Fore
255 258 m 1,0,1
 236 269 236 269 213 274 c 128,-1,2
 190 279 190 279 165 279 c 0,3,4
 87 279 87 279 78 233 c 0,5,6
 74 214 74 214 86 204 c 128,-1,7
 98 194 98 194 137 184 c 2,8,-1
 155 180 l 2,9,10
 209 169 209 169 228 147.5 c 128,-1,11
 247 126 247 126 239 87 c 0,12,13
 231 42 231 42 191 17 c 128,-1,14
 151 -8 151 -8 90 -8 c 0,15,16
 39 -8 39 -8 -17 11 c 1,17,-1
 -7 65 l 1,18,19
 46 35 46 35 99 35 c 0,20,21
 135 35 135 35 157.5 48 c 128,-1,22
 180 61 180 61 185 83 c 0,23,24
 189 104 189 104 177 115.5 c 128,-1,25
 165 127 165 127 118 137 c 2,26,-1
 102 141 l 2,27,28
 54 151 54 151 37.5 172.5 c 128,-1,29
 21 194 21 194 28 231 c 0,30,31
 37 276 37 276 73 299 c 128,-1,32
 109 322 109 322 167 322 c 0,33,34
 195 322 195 322 219.5 318.5 c 128,-1,35
 244 315 244 315 264 306 c 1,36,-1
 255 258 l 1,0,1
EndSplineSet
EndChar
StartChar: t
Encoding: 116 116 87
Width: 227
Flags: W
Fore
117 315 m 1,0,-1
 223 315 l 1,1,-1
 215 275 l 1,2,-1
 109 275 l 1,3,-1
 76 104 l 2,4,5
 68 65 68 65 76.5 54 c 128,-1,6
 85 43 85 43 117 43 c 2,7,-1
 170 43 l 1,8,-1
 162 0 l 1,9,-1
 109 0 l 2,10,11
 49 0 49 0 30.5 22 c 128,-1,12
 12 44 12 44 24 104 c 2,13,-1
 57 275 l 1,14,-1
 18 275 l 1,15,-1
 26 315 l 1,16,-1
 65 315 l 1,17,-1
 82 405 l 1,18,-1
 134 405 l 1,19,-1
 117 315 l 1,0,-1
EndSplineSet
EndChar
StartChar: u
Encoding: 117 117 88
Width: 366
Flags: W
Fore
59 315 m 1,0,-1
 112 315 l 1,1,-1
 75 127 l 2,2,3
 57 37 57 37 128 37 c 0,4,5
 170 37 170 37 199.5 64 c 128,-1,6
 229 91 229 91 238 137 c 2,7,-1
 273 315 l 1,8,-1
 324 315 l 1,9,-1
 263 0 l 1,10,-1
 212 0 l 1,11,-1
 221 48 l 1,12,13
 195 20 195 20 168 6 c 128,-1,14
 141 -8 141 -8 108 -8 c 0,15,16
 -4 -8 -4 -8 22 125 c 2,17,-1
 59 315 l 1,0,-1
EndSplineSet
EndChar
StartChar: v
Encoding: 118 118 89
Width: 342
Flags: W
Fore
83 315 m 1,0,-1
 130 50 l 1,1,-1
 280 315 l 1,2,-1
 335 315 l 1,3,-1
 156 0 l 1,4,-1
 85 0 l 1,5,-1
 29 315 l 1,6,-1
 83 315 l 1,0,-1
EndSplineSet
EndChar
StartChar: w
Encoding: 119 119 90
Width: 472
Flags: W
Fore
87 315 m 1,0,-1
 104 69 l 1,1,-1
 216 315 l 1,2,-1
 278 315 l 1,3,-1
 295 69 l 1,4,-1
 407 315 l 1,5,-1
 459 315 l 1,6,-1
 315 0 l 1,7,-1
 254 0 l 1,8,-1
 236 259 l 1,9,-1
 118 0 l 1,10,-1
 57 0 l 1,11,-1
 35 315 l 1,12,-1
 87 315 l 1,0,-1
EndSplineSet
EndChar
StartChar: x
Encoding: 120 120 91
Width: 342
Flags: W
Fore
184 162 m 1,0,-1
 272 0 l 1,1,-1
 212 0 l 1,2,-1
 144 124 l 1,3,-1
 28 0 l 1,4,-1
 -34 0 l 1,5,-1
 121 165 l 1,6,-1
 38 315 l 1,7,-1
 99 315 l 1,8,-1
 161 203 l 1,9,-1
 266 315 l 1,10,-1
 327 315 l 1,11,-1
 184 162 l 1,0,-1
EndSplineSet
EndChar
StartChar: y
Encoding: 121 121 92
Width: 342
Flags: W
Fore
129 -29 m 1,0,1
 113 -57 113 -57 99.5 -75 c 128,-1,2
 86 -93 86 -93 72.5 -103 c 128,-1,3
 59 -113 59 -113 45 -117 c 128,-1,4
 31 -121 31 -121 13 -121 c 2,5,-1
 -29 -121 l 1,6,-1
 -20 -76 l 1,7,-1
 11 -76 l 2,8,9
 22 -76 22 -76 30.5 -74.5 c 128,-1,10
 39 -73 39 -73 47 -67 c 128,-1,11
 55 -61 55 -61 63 -49.5 c 128,-1,12
 71 -38 71 -38 81 -19 c 2,13,-1
 95 5 l 1,14,-1
 29 315 l 1,15,-1
 83 315 l 1,16,-1
 134 69 l 1,17,-1
 280 315 l 1,18,-1
 335 315 l 1,19,-1
 129 -29 l 1,20,-1
 129 -29 l 1,0,1
EndSplineSet
EndChar
StartChar: z
Encoding: 122 122 93
Width: 303
Flags: W
Fore
289 315 m 1,0,-1
 280 268 l 1,1,-1
 40 41 l 1,2,-1
 235 41 l 1,3,-1
 228 0 l 1,4,-1
 -25 0 l 1,5,-1
 -16 47 l 1,6,-1
 222 274 l 1,7,-1
 35 274 l 1,8,-1
 43 315 l 1,9,-1
 289 315 l 1,0,-1
EndSplineSet
EndChar
StartChar: braceleft
Encoding: 123 123 94
Width: 367
Flags: W
Fore
226 -94 m 1,0,-1
 209 -94 l 2,1,2
 139 -94 139 -94 118 -73 c 0,3,4
 99 -53 99 -53 111 10 c 2,5,-1
 124 77 l 2,6,7
 132 119 132 119 120 135.5 c 128,-1,8
 108 152 108 152 69 152 c 2,9,-1
 51 152 l 1,10,-1
 59 193 l 1,11,-1
 77 193 l 2,12,13
 117 193 117 193 135 209 c 128,-1,14
 153 225 153 225 161 267 c 2,15,-1
 175 335 l 2,16,17
 187 398 187 398 214 417 c 0,18,19
 241 438 241 438 313 438 c 2,20,-1
 330 438 l 1,21,-1
 322 398 l 1,22,-1
 303 398 l 2,23,24
 283 398 283 398 270 395.5 c 128,-1,25
 257 393 257 393 248.5 385.5 c 128,-1,26
 240 378 240 378 235 366 c 128,-1,27
 230 354 230 354 226 334 c 2,28,-1
 213 264 l 2,29,30
 204 219 204 219 187.5 199 c 128,-1,31
 171 179 171 179 139 172 c 1,32,33
 168 165 168 165 177 145.5 c 128,-1,34
 186 126 186 126 177 81 c 2,35,-1
 164 11 l 2,36,37
 156 -29 156 -29 165.5 -41.5 c 128,-1,38
 175 -54 175 -54 215 -54 c 2,39,-1
 234 -54 l 1,40,-1
 226 -94 l 1,0,-1
EndSplineSet
EndChar
StartChar: bar
Encoding: 124 124 95
Width: 194
Flags: W
Fore
45 -136 m 1,0,-1
 -4 -136 l 1,1,-1
 108 441 l 1,2,-1
 157 441 l 1,3,-1
 45 -136 l 1,0,-1
EndSplineSet
EndChar
StartChar: braceright
Encoding: 125 125 96
Width: 367
Flags: W
Fore
31 -54 m 2,0,1
 51 -54 51 -54 63.5 -51.5 c 128,-1,2
 76 -49 76 -49 84.5 -41.5 c 128,-1,3
 93 -34 93 -34 98.5 -21.5 c 128,-1,4
 104 -9 104 -9 108 11 c 2,5,-1
 121 81 l 2,6,7
 130 126 130 126 145.5 145.5 c 128,-1,8
 161 165 161 165 195 172 c 1,9,10
 164 179 164 179 156 199 c 128,-1,11
 148 219 148 219 157 264 c 2,12,-1
 170 334 l 2,13,14
 174 354 174 354 174 366.5 c 128,-1,15
 174 379 174 379 168 386 c 128,-1,16
 162 393 162 393 150.5 395.5 c 128,-1,17
 139 398 139 398 119 398 c 2,18,-1
 99 398 l 1,19,-1
 107 438 l 1,20,-1
 125 438 l 2,21,22
 195 438 195 438 214 417 c 0,23,24
 234 397 234 397 222 335 c 2,25,-1
 208 267 l 2,26,27
 201 225 201 225 212.5 209 c 128,-1,28
 224 193 224 193 265 193 c 2,29,-1
 282 193 l 1,30,-1
 274 152 l 1,31,-1
 257 152 l 2,32,33
 216 152 216 152 197.5 135.5 c 128,-1,34
 179 119 179 119 171 77 c 2,35,-1
 158 10 l 2,36,37
 146 -54 146 -54 118 -73 c 0,38,39
 93 -94 93 -94 21 -94 c 2,40,-1
 3 -94 l 1,41,-1
 11 -54 l 1,42,-1
 31 -54 l 2,0,1
EndSplineSet
EndChar
StartChar: asciitilde
Encoding: 126 126 97
Width: 483
Flags: W
Fore
406 180 m 1,0,1
 372 158 372 158 345.5 148.5 c 128,-1,2
 319 139 319 139 292 139 c 0,3,4
 262 139 262 139 223 156 c 0,5,6
 221 157 221 157 218 157 c 1,7,8
 212 159 l 2,9,10
 172 176 172 176 146 176 c 0,11,12
 121 176 121 176 95 165.5 c 128,-1,13
 69 155 69 155 37 132 c 1,14,-1
 47 181 l 1,15,16
 81 204 81 204 107.5 214 c 128,-1,17
 134 224 134 224 162 224 c 0,18,19
 192 224 192 224 231 206 c 1,20,21
 231 205 231 205 234 205 c 1,22,23
 240 203 l 2,24,25
 281 185 281 185 306 185 c 0,26,27
 330 185 330 185 356 195.5 c 128,-1,28
 382 206 382 206 416 231 c 1,29,-1
 406 180 l 1,0,1
EndSplineSet
EndChar
StartChar: Adieresis
Encoding: 196 196 98
Width: 394
Flags: W
Fore
101 156 m 1,0,-1
 255 156 l 1,1,-1
 217 365 l 1,2,-1
 101 156 l 1,0,-1
261 420 m 1,3,-1
 339 0 l 1,4,-1
 281 0 l 1,5,-1
 263 107 l 1,6,-1
 73 107 l 1,7,-1
 15 0 l 1,8,-1
 -46 0 l 1,9,-1
 196 420 l 1,10,-1
 261 420 l 1,3,-1
333 526 m 1,11,-1
 322 470 l 1,12,-1
 265 470 l 1,13,-1
 276 526 l 1,14,-1
 333 526 l 1,11,-1
222 526 m 1,15,-1
 211 470 l 1,16,-1
 155 470 l 1,17,-1
 166 526 l 1,18,-1
 222 526 l 1,15,-1
EndSplineSet
EndChar
StartChar: Aring
Encoding: 197 197 99
Width: 394
Flags: W
Fore
279 458 m 0,0,1
 282 476 282 476 271.5 488.5 c 128,-1,2
 261 501 261 501 244 501 c 0,3,4
 226 501 226 501 211.5 488.5 c 128,-1,5
 197 476 197 476 194 458 c 0,6,7
 190 440 190 440 199.5 427.5 c 128,-1,8
 209 415 209 415 227 415 c 0,9,10
 244 415 244 415 259.5 427.5 c 128,-1,11
 275 440 275 440 279 458 c 0,0,1
101 156 m 1,12,-1
 254 156 l 1,13,-1
 217 365 l 1,14,-1
 101 156 l 1,12,-1
181 393 m 1,15,16
 151 416 151 416 160 458 c 0,17,18
 166 490 166 490 192.5 513 c 128,-1,19
 219 536 219 536 251 536 c 0,20,21
 284 536 284 536 302 513 c 128,-1,22
 320 490 320 490 314 458 c 0,23,24
 305 416 305 416 266 393 c 1,25,-1
 339 0 l 1,26,-1
 281 0 l 1,27,-1
 263 107 l 1,28,-1
 73 107 l 1,29,-1
 15 0 l 1,30,-1
 -46 0 l 1,31,-1
 181 393 l 1,32,-1
 181 393 l 1,15,16
EndSplineSet
EndChar
StartChar: Ccedilla
Encoding: 199 199 100
Width: 403
Flags: W
Fore
385 328 m 1,0,1
 338 381 338 381 265 381 c 0,2,3
 193 381 193 381 146.5 338 c 128,-1,4
 100 295 100 295 83 210 c 0,5,6
 67 126 67 126 96.5 82.5 c 128,-1,7
 126 39 126 39 198 39 c 0,8,9
 271 39 271 39 339 92 c 1,10,-1
 328 32 l 1,11,12
 260 -8 260 -8 186 -8 c 0,13,14
 89 -8 89 -8 45.5 49.5 c 128,-1,15
 2 107 2 107 22 210 c 0,16,17
 32 261 32 261 54 301 c 128,-1,18
 76 341 76 341 108.5 369.5 c 128,-1,19
 141 398 141 398 182 413 c 128,-1,20
 223 428 223 428 271 428 c 0,21,22
 345 428 345 428 397 388 c 1,23,-1
 385 328 l 1,0,1
203 0 m 1,24,25
 214 -18 214 -18 219 -32.5 c 128,-1,26
 224 -47 224 -47 222 -61 c 0,27,28
 211 -111 211 -111 145 -111 c 0,29,30
 131 -111 131 -111 119.5 -109 c 128,-1,31
 108 -107 108 -107 96 -105 c 1,32,-1
 103 -67 l 1,33,34
 112 -72 112 -72 122 -74 c 128,-1,35
 132 -76 132 -76 146 -76 c 0,36,37
 178 -76 178 -76 184 -50 c 0,38,39
 187 -35 187 -35 169 0 c 1,40,-1
 203 0 l 1,41,-1
 203 0 l 1,24,25
EndSplineSet
EndChar
StartChar: Eacute
Encoding: 201 201 101
Width: 365
Flags: W
Fore
353 420 m 1,0,-1
 344 373 l 1,1,-1
 135 373 l 1,2,-1
 111 248 l 1,3,-1
 312 248 l 1,4,-1
 302 200 l 1,5,-1
 101 200 l 1,6,-1
 72 47 l 1,7,-1
 287 47 l 1,8,-1
 278 0 l 1,9,-1
 7 0 l 1,10,-1
 88 420 l 1,11,-1
 353 420 l 1,0,-1
309 535 m 1,12,-1
 230 460 l 1,13,-1
 188 460 l 1,14,-1
 257 535 l 1,15,-1
 309 535 l 1,12,-1
EndSplineSet
EndChar
StartChar: Ntilde
Encoding: 209 209 102
Width: 432
Flags: W
Fore
164 420 m 1,0,-1
 283 69 l 1,1,-1
 351 420 l 1,2,-1
 406 420 l 1,3,-1
 325 0 l 1,4,-1
 249 0 l 1,5,-1
 129 351 l 1,6,-1
 61 0 l 1,7,-1
 7 0 l 1,8,-1
 88 420 l 1,9,-1
 164 420 l 1,0,-1
244 491 m 1,10,11
 232 497 232 497 224 497 c 0,12,13
 204 497 204 497 199 471 c 1,14,-1
 199 470 l 1,15,-1
 164 470 l 1,16,17
 169 497 169 497 186.5 514 c 128,-1,18
 204 531 204 531 229 531 c 0,19,20
 238 531 238 531 246.5 528.5 c 128,-1,21
 255 526 255 526 266 519 c 2,22,-1
 282 511 l 1,23,24
 292 504 292 504 299 504 c 0,25,26
 320 504 320 504 325 529 c 1,27,-1
 326 531 l 1,28,-1
 361 531 l 1,29,30
 355 503 355 503 337.5 486.5 c 128,-1,31
 320 470 320 470 296 470 c 0,32,33
 286 470 286 470 278.5 472 c 128,-1,34
 271 474 271 474 257 482 c 2,35,-1
 244 491 l 1,10,11
EndSplineSet
EndChar
StartChar: Odieresis
Encoding: 214 214 103
Width: 454
Flags: W
Fore
252 382 m 0,0,1
 189 382 189 382 144 335.5 c 128,-1,2
 99 289 99 289 83 210 c 0,3,4
 68 129 68 129 95 83.5 c 128,-1,5
 122 38 122 38 185 38 c 0,6,7
 246 38 246 38 291.5 83.5 c 128,-1,8
 337 129 337 129 352 210 c 0,9,10
 368 289 368 289 340.5 335.5 c 128,-1,11
 313 382 313 382 252 382 c 0,0,1
261 428 m 0,12,13
 305 428 305 428 337.5 412.5 c 128,-1,14
 370 397 370 397 389.5 368.5 c 128,-1,15
 409 340 409 340 415 300 c 128,-1,16
 421 260 421 260 411 210 c 256,17,18
 401 160 401 160 379.5 120 c 128,-1,19
 358 80 358 80 327.5 51.5 c 128,-1,20
 297 23 297 23 258.5 7.5 c 128,-1,21
 220 -8 220 -8 176 -8 c 0,22,23
 88 -8 88 -8 44 51 c 0,24,25
 3 111 3 111 22 210 c 0,26,27
 42 310 42 310 106 368 c 0,28,29
 172 428 172 428 261 428 c 0,12,13
363 526 m 1,30,-1
 352 470 l 1,31,-1
 295 470 l 1,32,-1
 306 526 l 1,33,-1
 363 526 l 1,30,-1
252 526 m 1,34,-1
 241 470 l 1,35,-1
 185 470 l 1,36,-1
 196 526 l 1,37,-1
 252 526 l 1,34,-1
EndSplineSet
EndChar
StartChar: Udieresis
Encoding: 220 220 104
Width: 422
Flags: W
Fore
138 420 m 1,0,-1
 89 165 l 2,1,2
 75 98 75 98 94.5 68 c 128,-1,3
 114 38 114 38 168 38 c 0,4,5
 223 38 223 38 253 68 c 128,-1,6
 283 98 283 98 297 165 c 2,7,-1
 346 420 l 1,8,-1
 403 420 l 1,9,-1
 352 158 l 2,10,11
 336 76 336 76 287 34 c 128,-1,12
 238 -8 238 -8 159 -8 c 256,13,14
 80 -8 80 -8 47 34 c 128,-1,15
 14 76 14 76 30 158 c 2,16,-1
 81 420 l 1,17,-1
 138 420 l 1,0,-1
347 526 m 1,18,-1
 336 470 l 1,19,-1
 279 470 l 1,20,-1
 290 526 l 1,21,-1
 347 526 l 1,18,-1
236 526 m 1,22,-1
 225 470 l 1,23,-1
 169 470 l 1,24,-1
 180 526 l 1,25,-1
 236 526 l 1,22,-1
EndSplineSet
EndChar
StartChar: aacute
Encoding: 225 225 105
Width: 353
Flags: W
Fore
178 159 m 1,0,1
 115 159 115 159 88.5 144.5 c 128,-1,2
 62 130 62 130 55 95 c 0,3,4
 50 67 50 67 64.5 51 c 128,-1,5
 79 35 79 35 109 35 c 0,6,7
 154 35 154 35 185.5 65.5 c 128,-1,8
 217 96 217 96 227 147 c 2,9,-1
 229 159 l 1,10,-1
 178 159 l 1,11,-1
 178 159 l 1,0,1
251 0 m 1,12,-1
 199 0 l 1,13,-1
 208 47 l 1,14,15
 162 -8 162 -8 88 -8 c 0,16,17
 40 -8 40 -8 17 19 c 128,-1,18
 -6 46 -6 46 2 92 c 0,19,20
 23 199 23 199 164 199 c 2,21,-1
 237 199 l 1,22,-1
 238 204 l 2,23,24
 245 240 245 240 225.5 259.5 c 128,-1,25
 206 279 206 279 164 279 c 0,26,27
 109 279 109 279 57 253 c 1,28,-1
 66 301 l 1,29,30
 95 312 95 312 123.5 317 c 128,-1,31
 152 322 152 322 177 322 c 0,32,33
 313 322 313 322 285 180 c 2,34,-1
 251 0 l 1,12,-1
301 461 m 1,35,-1
 189 355 l 1,36,-1
 147 355 l 1,37,-1
 245 461 l 1,38,-1
 301 461 l 1,35,-1
EndSplineSet
EndChar
StartChar: agrave
Encoding: 224 224 106
Width: 353
Flags: W
Fore
178 159 m 1,0,1
 115 159 115 159 88.5 144.5 c 128,-1,2
 62 130 62 130 55 95 c 0,3,4
 50 67 50 67 64.5 51 c 128,-1,5
 79 35 79 35 109 35 c 0,6,7
 154 35 154 35 185.5 65.5 c 128,-1,8
 217 96 217 96 227 147 c 2,9,-1
 229 159 l 1,10,-1
 178 159 l 1,11,-1
 178 159 l 1,0,1
251 0 m 1,12,-1
 199 0 l 1,13,-1
 208 47 l 1,14,15
 162 -8 162 -8 88 -8 c 0,16,17
 40 -8 40 -8 17 19 c 128,-1,18
 -6 46 -6 46 2 92 c 0,19,20
 23 199 23 199 164 199 c 2,21,-1
 237 199 l 1,22,-1
 238 204 l 2,23,24
 245 240 245 240 225.5 259.5 c 128,-1,25
 206 279 206 279 164 279 c 0,26,27
 109 279 109 279 57 253 c 1,28,-1
 66 301 l 1,29,30
 95 312 95 312 123.5 317 c 128,-1,31
 152 322 152 322 177 322 c 0,32,33
 313 322 313 322 285 180 c 2,34,-1
 251 0 l 1,12,-1
224 356 m 1,35,-1
 182 356 l 1,36,-1
 109 461 l 1,37,-1
 166 461 l 1,38,-1
 224 356 l 1,35,-1
EndSplineSet
EndChar
StartChar: acircumflex
Encoding: 226 226 107
Width: 353
Flags: W
Fore
178 159 m 1,0,1
 115 159 115 159 88.5 144.5 c 128,-1,2
 62 130 62 130 55 95 c 0,3,4
 50 67 50 67 64.5 51 c 128,-1,5
 79 35 79 35 109 35 c 0,6,7
 154 35 154 35 185.5 65.5 c 128,-1,8
 217 96 217 96 227 147 c 2,9,-1
 229 159 l 1,10,-1
 178 159 l 1,11,-1
 178 159 l 1,0,1
251 0 m 1,12,-1
 199 0 l 1,13,-1
 208 47 l 1,14,15
 162 -8 162 -8 88 -8 c 0,16,17
 40 -8 40 -8 17 19 c 128,-1,18
 -6 46 -6 46 2 92 c 0,19,20
 23 199 23 199 164 199 c 2,21,-1
 237 199 l 1,22,-1
 238 204 l 2,23,24
 245 240 245 240 225.5 259.5 c 128,-1,25
 206 279 206 279 164 279 c 0,26,27
 109 279 109 279 57 253 c 1,28,-1
 66 301 l 1,29,30
 95 312 95 312 123.5 317 c 128,-1,31
 152 322 152 322 177 322 c 0,32,33
 313 322 313 322 285 180 c 2,34,-1
 251 0 l 1,12,-1
227 461 m 1,35,-1
 276 355 l 1,36,-1
 237 355 l 1,37,-1
 199 424 l 1,38,-1
 136 355 l 1,39,-1
 97 355 l 1,40,-1
 186 461 l 1,41,-1
 227 461 l 1,35,-1
EndSplineSet
EndChar
StartChar: adieresis
Encoding: 228 228 108
Width: 353
Flags: W
Fore
178 159 m 1,0,1
 115 159 115 159 88.5 144.5 c 128,-1,2
 62 130 62 130 55 95 c 0,3,4
 50 67 50 67 64.5 51 c 128,-1,5
 79 35 79 35 109 35 c 0,6,7
 154 35 154 35 185.5 65.5 c 128,-1,8
 217 96 217 96 227 147 c 2,9,-1
 229 159 l 1,10,-1
 178 159 l 1,11,-1
 178 159 l 1,0,1
251 0 m 1,12,-1
 199 0 l 1,13,-1
 208 47 l 1,14,15
 162 -8 162 -8 88 -8 c 0,16,17
 40 -8 40 -8 17 19 c 128,-1,18
 -6 46 -6 46 2 92 c 0,19,20
 23 199 23 199 164 199 c 2,21,-1
 237 199 l 1,22,-1
 238 204 l 2,23,24
 245 240 245 240 225.5 259.5 c 128,-1,25
 206 279 206 279 164 279 c 0,26,27
 109 279 109 279 57 253 c 1,28,-1
 66 301 l 1,29,30
 95 312 95 312 123.5 317 c 128,-1,31
 152 322 152 322 177 322 c 0,32,33
 313 322 313 322 285 180 c 2,34,-1
 251 0 l 1,12,-1
285 437 m 1,35,-1
 274 380 l 1,36,-1
 217 380 l 1,37,-1
 228 437 l 1,38,-1
 285 437 l 1,35,-1
174 437 m 1,39,-1
 163 380 l 1,40,-1
 107 380 l 1,41,-1
 118 437 l 1,42,-1
 174 437 l 1,39,-1
EndSplineSet
EndChar
StartChar: atilde
Encoding: 227 227 109
Width: 353
Flags: W
Fore
178 159 m 1,0,1
 115 159 115 159 88.5 144.5 c 128,-1,2
 62 130 62 130 55 95 c 0,3,4
 50 67 50 67 64.5 51 c 128,-1,5
 79 35 79 35 109 35 c 0,6,7
 154 35 154 35 185.5 65.5 c 128,-1,8
 217 96 217 96 227 147 c 2,9,-1
 229 159 l 1,10,-1
 178 159 l 1,11,-1
 178 159 l 1,0,1
251 0 m 1,12,-1
 199 0 l 1,13,-1
 208 47 l 1,14,15
 162 -8 162 -8 88 -8 c 0,16,17
 40 -8 40 -8 17 19 c 128,-1,18
 -6 46 -6 46 2 92 c 0,19,20
 23 199 23 199 164 199 c 2,21,-1
 237 199 l 1,22,-1
 238 204 l 2,23,24
 245 240 245 240 225.5 259.5 c 128,-1,25
 206 279 206 279 164 279 c 0,26,27
 109 279 109 279 57 253 c 1,28,-1
 66 301 l 1,29,30
 95 312 95 312 123.5 317 c 128,-1,31
 152 322 152 322 177 322 c 0,32,33
 313 322 313 322 285 180 c 2,34,-1
 251 0 l 1,12,-1
179 402 m 1,35,36
 168 412 168 412 160 412 c 0,37,38
 140 412 140 412 131 369 c 1,39,-1
 96 369 l 1,40,41
 111 448 111 448 166 448 c 0,42,43
 187 448 187 448 201 431 c 2,44,-1
 215 415 l 2,45,46
 225 405 225 405 231 405 c 0,47,48
 243 405 243 405 250 415 c 128,-1,49
 257 425 257 425 262 448 c 1,50,-1
 297 448 l 1,51,52
 280 369 280 369 226 369 c 0,53,54
 205 369 205 369 191 386 c 2,55,-1
 179 402 l 1,35,36
EndSplineSet
EndChar
StartChar: aring
Encoding: 229 229 110
Width: 353
Flags: W
Fore
178 159 m 1,0,1
 115 159 115 159 88.5 144.5 c 128,-1,2
 62 130 62 130 55 95 c 0,3,4
 50 67 50 67 64.5 51 c 128,-1,5
 79 35 79 35 109 35 c 0,6,7
 154 35 154 35 185.5 65.5 c 128,-1,8
 217 96 217 96 227 147 c 2,9,-1
 229 159 l 1,10,-1
 178 159 l 1,11,-1
 178 159 l 1,0,1
251 0 m 1,12,-1
 199 0 l 1,13,-1
 208 47 l 1,14,15
 162 -8 162 -8 88 -8 c 0,16,17
 40 -8 40 -8 17 19 c 128,-1,18
 -6 46 -6 46 2 92 c 0,19,20
 23 199 23 199 164 199 c 2,21,-1
 237 199 l 1,22,-1
 238 204 l 2,23,24
 245 240 245 240 225.5 259.5 c 128,-1,25
 206 279 206 279 164 279 c 0,26,27
 109 279 109 279 57 253 c 1,28,-1
 66 301 l 1,29,30
 95 312 95 312 123.5 317 c 128,-1,31
 152 322 152 322 177 322 c 0,32,33
 313 322 313 322 285 180 c 2,34,-1
 251 0 l 1,12,-1
243 430 m 0,35,36
 247 447 247 447 237 459.5 c 128,-1,37
 227 472 227 472 208 472 c 0,38,39
 190 472 190 472 176 459.5 c 128,-1,40
 162 447 162 447 158 430 c 0,41,42
 154 411 154 411 164 398.5 c 128,-1,43
 174 386 174 386 192 386 c 0,44,45
 211 386 211 386 225 398.5 c 128,-1,46
 239 411 239 411 243 430 c 0,35,36
277 430 m 0,47,48
 271 397 271 397 244 374 c 128,-1,49
 217 351 217 351 185 351 c 0,50,51
 152 351 152 351 134.5 374 c 128,-1,52
 117 397 117 397 123 430 c 0,53,54
 129 461 129 461 155.5 484 c 128,-1,55
 182 507 182 507 215 507 c 0,56,57
 247 507 247 507 265 484 c 128,-1,58
 283 461 283 461 277 430 c 0,47,48
EndSplineSet
EndChar
StartChar: ccedilla
Encoding: 231 231 111
Width: 317
Flags: W
Fore
280 255 m 1,0,1
 243 279 243 279 197 279 c 0,2,3
 146 279 146 279 112 247 c 128,-1,4
 78 215 78 215 67 158 c 0,5,6
 56 100 56 100 77 68 c 128,-1,7
 98 36 98 36 149 36 c 0,8,9
 171 36 171 36 195 41.5 c 128,-1,10
 219 47 219 47 242 60 c 1,11,-1
 233 12 l 1,12,13
 185 -8 185 -8 135 -8 c 0,14,15
 63 -8 63 -8 30 36 c 128,-1,16
 -3 80 -3 80 12 158 c 256,17,18
 27 236 27 236 77.5 279 c 128,-1,19
 128 322 128 322 203 322 c 0,20,21
 252 322 252 322 289 303 c 1,22,-1
 280 255 l 1,0,1
158 0 m 1,23,24
 169 -18 169 -18 174 -32.5 c 128,-1,25
 179 -47 179 -47 177 -61 c 0,26,27
 166 -111 166 -111 100 -111 c 0,28,29
 86 -111 86 -111 74.5 -109 c 128,-1,30
 63 -107 63 -107 51 -105 c 1,31,-1
 58 -67 l 1,32,33
 67 -72 67 -72 77 -74 c 128,-1,34
 87 -76 87 -76 101 -76 c 0,35,36
 133 -76 133 -76 139 -50 c 0,37,38
 142 -35 142 -35 124 0 c 1,39,-1
 158 0 l 1,40,-1
 158 0 l 1,23,24
EndSplineSet
EndChar
StartChar: eacute
Encoding: 233 233 112
Width: 355
Flags: W
Fore
302 145 m 1,0,-1
 63 145 l 1,1,2
 52 36 52 36 155 36 c 0,3,4
 215 36 215 36 274 65 c 1,5,-1
 265 16 l 1,6,7
 205 -8 205 -8 144 -8 c 0,8,9
 69 -8 69 -8 33 35.5 c 128,-1,10
 -3 79 -3 79 12 155 c 0,11,12
 27 233 27 233 76.5 277.5 c 128,-1,13
 126 322 126 322 198 322 c 0,14,15
 262 322 262 322 291.5 281.5 c 128,-1,16
 321 241 321 241 307 171 c 2,17,-1
 302 145 l 1,0,-1
259 186 m 1,18,19
 267 229 267 229 248.5 254 c 128,-1,20
 230 279 230 279 191 279 c 0,21,22
 148 279 148 279 117 255 c 128,-1,23
 86 231 86 231 73 185 c 1,24,-1
 259 186 l 1,25,-1
 259 186 l 1,18,19
317 461 m 1,26,-1
 205 355 l 1,27,-1
 163 355 l 1,28,-1
 261 461 l 1,29,-1
 317 461 l 1,26,-1
EndSplineSet
EndChar
StartChar: egrave
Encoding: 232 232 113
Width: 355
Flags: W
Fore
302 145 m 1,0,-1
 63 145 l 1,1,2
 52 36 52 36 155 36 c 0,3,4
 215 36 215 36 274 65 c 1,5,-1
 265 16 l 1,6,7
 205 -8 205 -8 144 -8 c 0,8,9
 69 -8 69 -8 33 35.5 c 128,-1,10
 -3 79 -3 79 12 155 c 0,11,12
 27 233 27 233 76.5 277.5 c 128,-1,13
 126 322 126 322 198 322 c 0,14,15
 262 322 262 322 291.5 281.5 c 128,-1,16
 321 241 321 241 307 171 c 2,17,-1
 302 145 l 1,0,-1
259 186 m 1,18,19
 267 229 267 229 248.5 254 c 128,-1,20
 230 279 230 279 191 279 c 0,21,22
 148 279 148 279 117 255 c 128,-1,23
 86 231 86 231 73 185 c 1,24,-1
 259 186 l 1,25,-1
 259 186 l 1,18,19
240 356 m 1,26,-1
 198 356 l 1,27,-1
 125 461 l 1,28,-1
 182 461 l 1,29,-1
 240 356 l 1,26,-1
EndSplineSet
EndChar
StartChar: ecircumflex
Encoding: 234 234 114
Width: 355
Flags: W
Fore
302 145 m 1,0,-1
 63 145 l 1,1,2
 52 36 52 36 155 36 c 0,3,4
 215 36 215 36 274 65 c 1,5,-1
 265 16 l 1,6,7
 205 -8 205 -8 144 -8 c 0,8,9
 69 -8 69 -8 33 35.5 c 128,-1,10
 -3 79 -3 79 12 155 c 0,11,12
 27 233 27 233 76.5 277.5 c 128,-1,13
 126 322 126 322 198 322 c 0,14,15
 262 322 262 322 291.5 281.5 c 128,-1,16
 321 241 321 241 307 171 c 2,17,-1
 302 145 l 1,0,-1
259 186 m 1,18,19
 267 229 267 229 248.5 254 c 128,-1,20
 230 279 230 279 191 279 c 0,21,22
 148 279 148 279 117 255 c 128,-1,23
 86 231 86 231 73 185 c 1,24,-1
 259 186 l 1,25,-1
 259 186 l 1,18,19
243 461 m 1,26,-1
 292 355 l 1,27,-1
 253 355 l 1,28,-1
 215 424 l 1,29,-1
 152 355 l 1,30,-1
 113 355 l 1,31,-1
 202 461 l 1,32,-1
 243 461 l 1,26,-1
EndSplineSet
EndChar
StartChar: edieresis
Encoding: 235 235 115
Width: 355
Flags: W
Fore
302 145 m 1,0,-1
 63 145 l 1,1,2
 52 36 52 36 155 36 c 0,3,4
 215 36 215 36 274 65 c 1,5,-1
 265 16 l 1,6,7
 205 -8 205 -8 144 -8 c 0,8,9
 69 -8 69 -8 33 35.5 c 128,-1,10
 -3 79 -3 79 12 155 c 0,11,12
 27 233 27 233 76.5 277.5 c 128,-1,13
 126 322 126 322 198 322 c 0,14,15
 262 322 262 322 291.5 281.5 c 128,-1,16
 321 241 321 241 307 171 c 2,17,-1
 302 145 l 1,0,-1
259 186 m 1,18,19
 267 229 267 229 248.5 254 c 128,-1,20
 230 279 230 279 191 279 c 0,21,22
 148 279 148 279 117 255 c 128,-1,23
 86 231 86 231 73 185 c 1,24,-1
 259 186 l 1,25,-1
 259 186 l 1,18,19
301 437 m 1,26,-1
 290 380 l 1,27,-1
 233 380 l 1,28,-1
 244 437 l 1,29,-1
 301 437 l 1,26,-1
190 437 m 1,30,-1
 179 380 l 1,31,-1
 123 380 l 1,32,-1
 134 437 l 1,33,-1
 190 437 l 1,30,-1
EndSplineSet
EndChar
StartChar: iacute
Encoding: 237 237 116
Width: 161
Flags: W
Fore
117 315 m 1,0,-1
 56 0 l 1,1,-1
 5 0 l 1,2,-1
 66 315 l 1,3,-1
 117 315 l 1,0,-1
218 461 m 1,4,-1
 106 355 l 1,5,-1
 64 355 l 1,6,-1
 162 461 l 1,7,-1
 218 461 l 1,4,-1
EndSplineSet
EndChar
StartChar: igrave
Encoding: 236 236 117
Width: 161
Flags: W
Fore
117 315 m 1,0,-1
 56 0 l 1,1,-1
 5 0 l 1,2,-1
 66 315 l 1,3,-1
 117 315 l 1,0,-1
141 356 m 1,4,-1
 99 356 l 1,5,-1
 26 461 l 1,6,-1
 83 461 l 1,7,-1
 141 356 l 1,4,-1
EndSplineSet
EndChar
StartChar: icircumflex
Encoding: 238 238 118
Width: 161
Flags: W
Fore
117 315 m 1,0,-1
 56 0 l 1,1,-1
 5 0 l 1,2,-1
 66 315 l 1,3,-1
 117 315 l 1,0,-1
144 461 m 1,4,-1
 193 355 l 1,5,-1
 154 355 l 1,6,-1
 116 424 l 1,7,-1
 53 355 l 1,8,-1
 14 355 l 1,9,-1
 103 461 l 1,10,-1
 144 461 l 1,4,-1
EndSplineSet
EndChar
StartChar: idieresis
Encoding: 239 239 119
Width: 161
Flags: W
Fore
117 315 m 1,0,-1
 56 0 l 1,1,-1
 5 0 l 1,2,-1
 66 315 l 1,3,-1
 117 315 l 1,0,-1
202 437 m 1,4,-1
 191 380 l 1,5,-1
 134 380 l 1,6,-1
 145 437 l 1,7,-1
 202 437 l 1,4,-1
91 437 m 1,8,-1
 80 380 l 1,9,-1
 24 380 l 1,10,-1
 35 437 l 1,11,-1
 91 437 l 1,8,-1
EndSplineSet
EndChar
StartChar: ntilde
Encoding: 241 241 120
Width: 366
Flags: W
Fore
266 0 m 1,0,-1
 215 0 l 1,1,-1
 251 188 l 2,2,3
 269 278 269 278 199 278 c 0,4,5
 156 278 156 278 127 252 c 128,-1,6
 98 226 98 226 89 178 c 2,7,-1
 55 0 l 1,8,-1
 3 0 l 1,9,-1
 64 315 l 1,10,-1
 116 315 l 1,11,-1
 106 267 l 1,12,13
 131 295 131 295 158 308.5 c 128,-1,14
 185 322 185 322 218 322 c 0,15,16
 273 322 273 322 294 288.5 c 128,-1,17
 315 255 315 255 303 191 c 2,18,-1
 266 0 l 1,0,-1
199 402 m 1,19,20
 188 412 188 412 180 412 c 0,21,22
 160 412 160 412 151 369 c 1,23,-1
 116 369 l 1,24,25
 131 448 131 448 186 448 c 0,26,27
 207 448 207 448 221 431 c 2,28,-1
 235 415 l 2,29,30
 245 405 245 405 251 405 c 0,31,32
 263 405 263 405 270 415 c 128,-1,33
 277 425 277 425 282 448 c 1,34,-1
 317 448 l 1,35,36
 300 369 300 369 246 369 c 0,37,38
 225 369 225 369 211 386 c 2,39,-1
 199 402 l 1,19,20
EndSplineSet
EndChar
StartChar: oacute
Encoding: 243 243 121
Width: 353
Flags: W
Fore
180 279 m 256,0,1
 138 279 138 279 108 247 c 128,-1,2
 78 215 78 215 67 158 c 256,3,4
 56 101 56 101 73 68.5 c 128,-1,5
 90 36 90 36 132 36 c 256,6,7
 174 36 174 36 205 68.5 c 128,-1,8
 236 101 236 101 247 158 c 0,9,10
 258 213 258 213 240 246 c 128,-1,11
 222 279 222 279 180 279 c 256,0,1
188 322 m 256,12,13
 257 322 257 322 286.5 279 c 128,-1,14
 316 236 316 236 301 158 c 256,15,16
 286 80 286 80 239.5 36 c 128,-1,17
 193 -8 193 -8 124 -8 c 256,18,19
 55 -8 55 -8 26 36 c 128,-1,20
 -3 80 -3 80 12 158 c 256,21,22
 27 236 27 236 73 279 c 128,-1,23
 119 322 119 322 188 322 c 256,12,13
310 461 m 1,24,-1
 198 355 l 1,25,-1
 156 355 l 1,26,-1
 254 461 l 1,27,-1
 310 461 l 1,24,-1
EndSplineSet
EndChar
StartChar: ograve
Encoding: 242 242 122
Width: 353
Flags: W
Fore
180 279 m 256,0,1
 138 279 138 279 108 247 c 128,-1,2
 78 215 78 215 67 158 c 256,3,4
 56 101 56 101 73 68.5 c 128,-1,5
 90 36 90 36 132 36 c 256,6,7
 174 36 174 36 205 68.5 c 128,-1,8
 236 101 236 101 247 158 c 0,9,10
 258 213 258 213 240 246 c 128,-1,11
 222 279 222 279 180 279 c 256,0,1
188 322 m 256,12,13
 257 322 257 322 286.5 279 c 128,-1,14
 316 236 316 236 301 158 c 256,15,16
 286 80 286 80 239.5 36 c 128,-1,17
 193 -8 193 -8 124 -8 c 256,18,19
 55 -8 55 -8 26 36 c 128,-1,20
 -3 80 -3 80 12 158 c 256,21,22
 27 236 27 236 73 279 c 128,-1,23
 119 322 119 322 188 322 c 256,12,13
233 356 m 1,24,-1
 191 356 l 1,25,-1
 118 461 l 1,26,-1
 175 461 l 1,27,-1
 233 356 l 1,24,-1
EndSplineSet
EndChar
StartChar: ocircumflex
Encoding: 244 244 123
Width: 353
Flags: W
Fore
180 279 m 256,0,1
 138 279 138 279 108 247 c 128,-1,2
 78 215 78 215 67 158 c 256,3,4
 56 101 56 101 73 68.5 c 128,-1,5
 90 36 90 36 132 36 c 256,6,7
 174 36 174 36 205 68.5 c 128,-1,8
 236 101 236 101 247 158 c 0,9,10
 258 213 258 213 240 246 c 128,-1,11
 222 279 222 279 180 279 c 256,0,1
188 322 m 256,12,13
 257 322 257 322 286.5 279 c 128,-1,14
 316 236 316 236 301 158 c 256,15,16
 286 80 286 80 239.5 36 c 128,-1,17
 193 -8 193 -8 124 -8 c 256,18,19
 55 -8 55 -8 26 36 c 128,-1,20
 -3 80 -3 80 12 158 c 256,21,22
 27 236 27 236 73 279 c 128,-1,23
 119 322 119 322 188 322 c 256,12,13
236 461 m 1,24,-1
 285 355 l 1,25,-1
 246 355 l 1,26,-1
 208 424 l 1,27,-1
 145 355 l 1,28,-1
 106 355 l 1,29,-1
 195 461 l 1,30,-1
 236 461 l 1,24,-1
EndSplineSet
EndChar
StartChar: odieresis
Encoding: 246 246 124
Width: 353
Flags: W
Fore
180 279 m 256,0,1
 138 279 138 279 108 247 c 128,-1,2
 78 215 78 215 67 158 c 256,3,4
 56 101 56 101 73 68.5 c 128,-1,5
 90 36 90 36 132 36 c 256,6,7
 174 36 174 36 205 68.5 c 128,-1,8
 236 101 236 101 247 158 c 0,9,10
 258 213 258 213 240 246 c 128,-1,11
 222 279 222 279 180 279 c 256,0,1
188 322 m 256,12,13
 257 322 257 322 286.5 279 c 128,-1,14
 316 236 316 236 301 158 c 256,15,16
 286 80 286 80 239.5 36 c 128,-1,17
 193 -8 193 -8 124 -8 c 256,18,19
 55 -8 55 -8 26 36 c 128,-1,20
 -3 80 -3 80 12 158 c 256,21,22
 27 236 27 236 73 279 c 128,-1,23
 119 322 119 322 188 322 c 256,12,13
294 437 m 1,24,-1
 283 380 l 1,25,-1
 226 380 l 1,26,-1
 237 437 l 1,27,-1
 294 437 l 1,24,-1
183 437 m 1,28,-1
 172 380 l 1,29,-1
 116 380 l 1,30,-1
 127 437 l 1,31,-1
 183 437 l 1,28,-1
EndSplineSet
EndChar
StartChar: otilde
Encoding: 245 245 125
Width: 353
Flags: W
Fore
180 279 m 256,0,1
 138 279 138 279 108 247 c 128,-1,2
 78 215 78 215 67 158 c 256,3,4
 56 101 56 101 73 68.5 c 128,-1,5
 90 36 90 36 132 36 c 256,6,7
 174 36 174 36 205 68.5 c 128,-1,8
 236 101 236 101 247 158 c 0,9,10
 258 213 258 213 240 246 c 128,-1,11
 222 279 222 279 180 279 c 256,0,1
188 322 m 256,12,13
 257 322 257 322 286.5 279 c 128,-1,14
 316 236 316 236 301 158 c 256,15,16
 286 80 286 80 239.5 36 c 128,-1,17
 193 -8 193 -8 124 -8 c 256,18,19
 55 -8 55 -8 26 36 c 128,-1,20
 -3 80 -3 80 12 158 c 256,21,22
 27 236 27 236 73 279 c 128,-1,23
 119 322 119 322 188 322 c 256,12,13
188 402 m 1,24,25
 177 412 177 412 169 412 c 0,26,27
 149 412 149 412 140 369 c 1,28,-1
 105 369 l 1,29,30
 120 448 120 448 175 448 c 0,31,32
 196 448 196 448 210 431 c 2,33,-1
 224 415 l 2,34,35
 234 405 234 405 240 405 c 0,36,37
 252 405 252 405 259 415 c 128,-1,38
 266 425 266 425 271 448 c 1,39,-1
 306 448 l 1,40,41
 289 369 289 369 235 369 c 0,42,43
 214 369 214 369 200 386 c 2,44,-1
 188 402 l 1,24,25
EndSplineSet
EndChar
StartChar: uacute
Encoding: 250 250 126
Width: 366
Flags: W
Fore
59 315 m 1,0,-1
 112 315 l 1,1,-1
 75 127 l 2,2,3
 57 37 57 37 128 37 c 0,4,5
 170 37 170 37 199.5 64 c 128,-1,6
 229 91 229 91 238 137 c 2,7,-1
 273 315 l 1,8,-1
 324 315 l 1,9,-1
 263 0 l 1,10,-1
 212 0 l 1,11,-1
 221 48 l 1,12,13
 195 20 195 20 168 6 c 128,-1,14
 141 -8 141 -8 108 -8 c 0,15,16
 -4 -8 -4 -8 22 125 c 2,17,-1
 59 315 l 1,0,-1
313 461 m 1,18,-1
 201 355 l 1,19,-1
 159 355 l 1,20,-1
 257 461 l 1,21,-1
 313 461 l 1,18,-1
EndSplineSet
EndChar
StartChar: ugrave
Encoding: 249 249 127
Width: 366
Flags: W
Fore
59 315 m 1,0,-1
 112 315 l 1,1,-1
 75 127 l 2,2,3
 57 37 57 37 128 37 c 0,4,5
 170 37 170 37 199.5 64 c 128,-1,6
 229 91 229 91 238 137 c 2,7,-1
 273 315 l 1,8,-1
 324 315 l 1,9,-1
 263 0 l 1,10,-1
 212 0 l 1,11,-1
 221 48 l 1,12,13
 195 20 195 20 168 6 c 128,-1,14
 141 -8 141 -8 108 -8 c 0,15,16
 -4 -8 -4 -8 22 125 c 2,17,-1
 59 315 l 1,0,-1
236 356 m 1,18,-1
 194 356 l 1,19,-1
 121 461 l 1,20,-1
 178 461 l 1,21,-1
 236 356 l 1,18,-1
EndSplineSet
EndChar
StartChar: ucircumflex
Encoding: 251 251 128
Width: 366
Flags: W
Fore
59 315 m 1,0,-1
 112 315 l 1,1,-1
 75 127 l 2,2,3
 57 37 57 37 128 37 c 0,4,5
 170 37 170 37 199.5 64 c 128,-1,6
 229 91 229 91 238 137 c 2,7,-1
 273 315 l 1,8,-1
 324 315 l 1,9,-1
 263 0 l 1,10,-1
 212 0 l 1,11,-1
 221 48 l 1,12,13
 195 20 195 20 168 6 c 128,-1,14
 141 -8 141 -8 108 -8 c 0,15,16
 -4 -8 -4 -8 22 125 c 2,17,-1
 59 315 l 1,0,-1
239 461 m 1,18,-1
 288 355 l 1,19,-1
 249 355 l 1,20,-1
 211 424 l 1,21,-1
 148 355 l 1,22,-1
 109 355 l 1,23,-1
 198 461 l 1,24,-1
 239 461 l 1,18,-1
EndSplineSet
EndChar
StartChar: udieresis
Encoding: 252 252 129
Width: 366
Flags: W
Fore
59 315 m 1,0,-1
 112 315 l 1,1,-1
 75 127 l 2,2,3
 57 37 57 37 128 37 c 0,4,5
 170 37 170 37 199.5 64 c 128,-1,6
 229 91 229 91 238 137 c 2,7,-1
 273 315 l 1,8,-1
 324 315 l 1,9,-1
 263 0 l 1,10,-1
 212 0 l 1,11,-1
 221 48 l 1,12,13
 195 20 195 20 168 6 c 128,-1,14
 141 -8 141 -8 108 -8 c 0,15,16
 -4 -8 -4 -8 22 125 c 2,17,-1
 59 315 l 1,0,-1
297 437 m 1,18,-1
 286 380 l 1,19,-1
 229 380 l 1,20,-1
 240 437 l 1,21,-1
 297 437 l 1,18,-1
186 437 m 1,22,-1
 175 380 l 1,23,-1
 119 380 l 1,24,-1
 130 437 l 1,25,-1
 186 437 l 1,22,-1
EndSplineSet
EndChar
StartChar: dagger
Encoding: 8224 8224 130
Width: 288
Flags: W
Fore
200 420 m 1,0,-1
 177 302 l 1,1,-1
 281 302 l 1,2,-1
 273 259 l 1,3,-1
 169 259 l 1,4,-1
 108 -56 l 1,5,-1
 58 -56 l 1,6,-1
 119 259 l 1,7,-1
 16 259 l 1,8,-1
 24 302 l 1,9,-1
 127 302 l 1,10,-1
 150 420 l 1,11,-1
 200 420 l 1,0,-1
EndSplineSet
EndChar
StartChar: degree
Encoding: 176 176 131
Width: 288
Flags: W
Fore
170 391 m 0,0,1
 148 391 148 391 129.5 376 c 128,-1,2
 111 361 111 361 106 338 c 0,3,4
 102 316 102 316 114.5 300.5 c 128,-1,5
 127 285 127 285 149 285 c 0,6,7
 172 285 172 285 190.5 300.5 c 128,-1,8
 209 316 209 316 213 338 c 0,9,10
 218 361 218 361 205.5 376 c 128,-1,11
 193 391 193 391 170 391 c 0,0,1
177 428 m 0,12,13
 215 428 215 428 236 402 c 0,14,15
 245 388 245 388 249 372 c 128,-1,16
 253 356 253 356 249 338 c 0,17,18
 246 320 246 320 235.5 303.5 c 128,-1,19
 225 287 225 287 210.5 275 c 128,-1,20
 196 263 196 263 178 256 c 128,-1,21
 160 249 160 249 142 249 c 0,22,23
 104 249 104 249 83 274.5 c 128,-1,24
 62 300 62 300 70 338 c 256,25,26
 78 376 78 376 109 402 c 128,-1,27
 140 428 140 428 177 428 c 0,12,13
EndSplineSet
EndChar
StartChar: cent
Encoding: 162 162 132
Width: 367
Flags: W
Fore
196 278 m 1,0,1
 151 273 151 273 122.5 241 c 128,-1,2
 94 209 94 209 84 158 c 0,3,4
 73 104 73 104 90 73 c 128,-1,5
 107 42 107 42 149 37 c 1,6,-1
 196 278 l 1,0,1
298 255 m 1,7,8
 263 278 263 278 223 279 c 1,9,-1
 175 36 l 1,10,11
 216 37 216 37 260 60 c 1,12,-1
 251 12 l 1,13,14
 231 3 231 3 210.5 -1.5 c 128,-1,15
 190 -6 190 -6 167 -8 c 1,16,-1
 151 -88 l 1,17,-1
 124 -88 l 1,18,-1
 140 -7 l 1,19,20
 73 -1 73 -1 43.5 42 c 128,-1,21
 14 85 14 85 28 158 c 256,22,23
 42 231 42 231 88.5 273.5 c 128,-1,24
 135 316 135 316 204 322 c 1,25,-1
 220 404 l 1,26,-1
 247 404 l 1,27,-1
 231 322 l 1,28,29
 272 321 272 321 307 303 c 1,30,-1
 298 255 l 1,7,8
EndSplineSet
EndChar
StartChar: sterling
Encoding: 163 163 133
Width: 367
Flags: W
Fore
330 361 m 1,0,1
 311 372 311 372 292.5 377.5 c 128,-1,2
 274 383 274 383 258 383 c 0,3,4
 216 383 216 383 195 361.5 c 128,-1,5
 174 340 174 340 163 279 c 2,6,-1
 151 219 l 1,7,-1
 261 219 l 1,8,-1
 253 179 l 1,9,-1
 143 179 l 1,10,-1
 118 47 l 1,11,-1
 275 47 l 1,12,-1
 266 0 l 1,13,-1
 -14 0 l 1,14,-1
 -5 47 l 1,15,-1
 62 47 l 1,16,-1
 87 179 l 1,17,-1
 30 179 l 1,18,-1
 38 219 l 1,19,-1
 95 219 l 1,20,-1
 108 286 l 2,21,22
 122 359 122 359 159 393.5 c 128,-1,23
 196 428 196 428 262 428 c 0,24,25
 278 428 278 428 298.5 423.5 c 128,-1,26
 319 419 319 419 339 411 c 1,27,-1
 330 361 l 1,0,1
EndSplineSet
EndChar
StartChar: section
Encoding: 167 167 134
Width: 288
Flags: W
Fore
108 264 m 1,0,1
 87 250 87 250 75.5 238 c 128,-1,2
 64 226 64 226 62 212 c 0,3,4
 57 191 57 191 73 172 c 0,5,6
 81 162 81 162 101 148 c 128,-1,7
 121 134 121 134 153 115 c 1,8,9
 174 129 174 129 184.5 141 c 128,-1,10
 195 153 195 153 198 167 c 0,11,12
 202 186 202 186 186 207 c 0,13,14
 170 227 170 227 108 264 c 1,0,1
255 366 m 1,15,16
 233 377 233 377 214 382 c 128,-1,17
 195 387 195 387 178 387 c 0,18,19
 152 387 152 387 135 376 c 128,-1,20
 118 365 118 365 114 345 c 0,21,22
 108 320 108 320 160 287 c 0,23,24
 164 285 164 285 166 283.5 c 128,-1,25
 168 282 168 282 170 280 c 2,26,27
 223 247 223 247 236 225 c 0,28,29
 251 206 251 206 246 175 c 0,30,31
 235 124 235 124 178 96 c 1,32,33
 193 81 193 81 197.5 65.5 c 128,-1,34
 202 50 202 50 199 32 c 0,35,36
 191 -7 191 -7 158 -31 c 128,-1,37
 125 -55 125 -55 76 -55 c 0,38,39
 55 -55 55 -55 34 -50.5 c 128,-1,40
 13 -46 13 -46 -10 -39 c 1,41,-1
 -1 7 l 1,42,43
 22 -3 22 -3 41.5 -8.5 c 128,-1,44
 61 -14 61 -14 78 -14 c 0,45,46
 139 -14 139 -14 148 31 c 0,47,48
 153 60 153 60 97 94 c 2,49,-1
 92 98 l 2,50,51
 64 115 64 115 47.5 128.5 c 128,-1,52
 31 142 31 142 23 153 c 0,53,54
 9 176 9 176 15 204 c 0,55,56
 26 257 26 257 83 283 c 1,57,58
 69 296 69 296 63 312 c 128,-1,59
 57 328 57 328 61 346 c 0,60,61
 68 383 68 383 101 405.5 c 128,-1,62
 134 428 134 428 180 428 c 0,63,64
 222 428 222 428 264 412 c 1,65,-1
 255 366 l 1,15,16
EndSplineSet
EndChar
StartChar: bullet
Encoding: 8226 8226 135
Width: 340
Flags: W
Fore
78 214 m 256,0,1
 85 249 85 249 113.5 273.5 c 128,-1,2
 142 298 142 298 178 298 c 0,3,4
 213 298 213 298 232.5 273.5 c 128,-1,5
 252 249 252 249 245 214 c 0,6,7
 242 196 242 196 232.5 181 c 128,-1,8
 223 166 223 166 209.5 155 c 128,-1,9
 196 144 196 144 179.5 137.5 c 128,-1,10
 163 131 163 131 145 131 c 0,11,12
 110 131 110 131 90.5 155 c 128,-1,13
 71 179 71 179 78 214 c 256,0,1
EndSplineSet
EndChar
StartChar: paragraph
Encoding: 182 182 136
Width: 367
Flags: W
Fore
335 420 m 1,0,-1
 243 -56 l 1,1,-1
 204 -56 l 1,2,-1
 290 386 l 1,3,-1
 236 386 l 1,4,-1
 150 -56 l 1,5,-1
 110 -56 l 1,6,-1
 156 182 l 1,7,8
 96 187 96 187 69 218.5 c 128,-1,9
 42 250 42 250 52 302 c 0,10,11
 63 356 63 356 105.5 388 c 128,-1,12
 148 420 148 420 209 420 c 2,13,-1
 335 420 l 1,0,-1
EndSplineSet
EndChar
StartChar: germandbls
Encoding: 223 223 137
Width: 364
Flags: W
Fore
65 320 m 1,0,1
 76 377 76 377 114.5 407.5 c 128,-1,2
 153 438 153 438 216 438 c 0,3,4
 335 438 335 438 312 310 c 1,5,6
 269 308 269 308 242 291.5 c 128,-1,7
 215 275 215 275 210 248 c 0,8,9
 204 223 204 223 235 200 c 2,10,-1
 249 190 l 2,11,12
 270 175 270 175 282.5 162.5 c 128,-1,13
 295 150 295 150 300 140 c 0,14,15
 310 119 310 119 304 92 c 0,16,17
 295 43 295 43 258.5 17.5 c 128,-1,18
 222 -8 222 -8 162 -8 c 0,19,20
 144 -8 144 -8 125.5 -4.5 c 128,-1,21
 107 -1 107 -1 87 5 c 1,22,-1
 97 52 l 1,23,24
 137 35 137 35 173 35 c 0,25,26
 239 35 239 35 250 88 c 0,27,28
 253 105 253 105 247 117 c 128,-1,29
 241 129 241 129 217 146 c 2,30,-1
 194 162 l 2,31,32
 170 178 170 178 162 197 c 128,-1,33
 154 216 154 216 159 242 c 0,34,35
 166 278 166 278 193.5 302.5 c 128,-1,36
 221 327 221 327 266 335 c 1,37,38
 271 396 271 396 206 396 c 0,39,40
 169 396 169 396 146.5 376 c 128,-1,41
 124 356 124 356 117 319 c 2,42,-1
 55 0 l 1,43,-1
 3 0 l 1,44,-1
 65 320 l 1,45,-1
 65 320 l 1,0,1
EndSplineSet
EndChar
StartChar: registered
Encoding: 174 174 138
Width: 577
Flags: W
Fore
313 389 m 0,0,1
 239 389 239 389 177 337 c 0,2,3
 111 281 111 281 97 209 c 0,4,5
 83 135 83 135 127 82 c 256,6,7
 171 29 171 29 243 29 c 0,8,9
 317 29 317 29 381 82 c 0,10,11
 446 136 446 136 459 209 c 0,12,13
 474 282 474 282 431 337 c 0,14,15
 388 389 388 389 313 389 c 0,0,1
319 418 m 0,16,17
 407 418 407 418 455 356 c 0,18,19
 480 325 480 325 487 288.5 c 128,-1,20
 494 252 494 252 486 209 c 256,21,22
 478 166 478 166 456.5 129.5 c 128,-1,23
 435 93 435 93 398 62 c 0,24,25
 325 0 325 0 238 0 c 0,26,27
 153 0 153 0 103 62 c 0,28,29
 53 125 53 125 69 209 c 0,30,31
 85 294 85 294 160 356 c 0,32,33
 234 418 234 418 319 418 c 0,16,17
254 302 m 1,34,-1
 239 224 l 1,35,-1
 273 224 l 2,36,37
 305 224 305 224 319 232.5 c 128,-1,38
 333 241 333 241 338 263 c 0,39,40
 342 283 342 283 330.5 292.5 c 128,-1,41
 319 302 319 302 288 302 c 2,42,-1
 254 302 l 1,34,-1
296 331 m 1,43,44
 347 331 347 331 368 314.5 c 128,-1,45
 389 298 389 298 382 263 c 0,46,47
 377 239 377 239 359 223 c 128,-1,48
 341 207 341 207 313 203 c 1,49,50
 321 200 321 200 327 189 c 128,-1,51
 333 178 333 178 344 158 c 2,52,-1
 370 95 l 1,53,-1
 321 95 l 1,54,-1
 296 153 l 2,55,56
 285 181 285 181 276.5 188.5 c 128,-1,57
 268 196 268 196 253 196 c 2,58,-1
 234 196 l 1,59,-1
 214 95 l 1,60,-1
 171 95 l 1,61,-1
 217 331 l 1,62,-1
 296 331 l 1,63,-1
 296 331 l 1,43,44
EndSplineSet
EndChar
StartChar: copyright
Encoding: 169 169 139
Width: 577
Flags: W
Fore
319 418 m 0,0,1
 407 418 407 418 455 356 c 0,2,3
 480 325 480 325 487 288.5 c 128,-1,4
 494 252 494 252 486 209 c 256,5,6
 478 166 478 166 456.5 129.5 c 128,-1,7
 435 93 435 93 398 62 c 0,8,9
 325 0 325 0 238 0 c 0,10,11
 153 0 153 0 103 62 c 0,12,13
 53 125 53 125 69 209 c 0,14,15
 85 294 85 294 160 356 c 0,16,17
 234 418 234 418 319 418 c 0,0,1
313 389 m 0,18,19
 239 389 239 389 177 337 c 0,20,21
 111 281 111 281 97 209 c 0,22,23
 83 135 83 135 127 82 c 256,24,25
 171 29 171 29 243 29 c 0,26,27
 317 29 317 29 381 82 c 0,28,29
 446 136 446 136 459 209 c 0,30,31
 474 282 474 282 431 337 c 0,32,33
 388 389 388 389 313 389 c 0,18,19
378 283 m 1,34,35
 361 294 361 294 343 298 c 128,-1,36
 325 302 325 302 307 302 c 0,37,38
 265 302 265 302 237 278 c 128,-1,39
 209 254 209 254 200 209 c 256,40,41
 191 164 191 164 210 139 c 128,-1,42
 229 114 229 114 274 114 c 0,43,44
 292 114 292 114 310 119 c 128,-1,45
 328 124 328 124 348 133 c 1,46,-1
 342 98 l 1,47,48
 296 81 296 81 261 81 c 0,49,50
 200 81 200 81 171.5 115 c 128,-1,51
 143 149 143 149 154 209 c 256,52,53
 165 269 165 269 207.5 302.5 c 128,-1,54
 250 336 250 336 311 336 c 0,55,56
 352 336 352 336 385 320 c 1,57,-1
 378 283 l 1,34,35
EndSplineSet
EndChar
StartChar: trademark
Encoding: 8482 8482 140
Width: 577
Flags: W
Fore
375 348 m 1,0,-1
 436 420 l 1,1,-1
 483 420 l 1,2,-1
 452 258 l 1,3,-1
 420 258 l 1,4,-1
 446 393 l 1,5,-1
 376 309 l 1,6,-1
 360 309 l 1,7,-1
 319 393 l 1,8,-1
 293 258 l 1,9,-1
 261 258 l 1,10,-1
 292 420 l 1,11,-1
 340 420 l 1,12,-1
 375 348 l 1,0,-1
255 393 m 1,13,-1
 198 393 l 1,14,-1
 172 258 l 1,15,-1
 140 258 l 1,16,-1
 166 393 l 1,17,-1
 109 393 l 1,18,-1
 114 420 l 1,19,-1
 260 420 l 1,20,-1
 255 393 l 1,13,-1
EndSplineSet
EndChar
StartChar: acute
Encoding: 180 180 141
Width: 288
Flags: W
Fore
278 461 m 1,0,-1
 166 355 l 1,1,-1
 124 355 l 1,2,-1
 222 461 l 1,3,-1
 278 461 l 1,0,-1
EndSplineSet
EndChar
StartChar: dieresis
Encoding: 168 168 142
Width: 288
Flags: W
Fore
262 437 m 1,0,-1
 251 380 l 1,1,-1
 194 380 l 1,2,-1
 205 437 l 1,3,-1
 262 437 l 1,0,-1
151 437 m 1,4,-1
 140 380 l 1,5,-1
 84 380 l 1,6,-1
 95 437 l 1,7,-1
 151 437 l 1,4,-1
EndSplineSet
EndChar
StartChar: notequal
Encoding: 8800 8800 143
Width: 483
Flags: W
Fore
279 262 m 1,0,-1
 368 350 l 1,1,-1
 398 322 l 1,2,-1
 337 262 l 1,3,-1
 422 262 l 1,4,-1
 413 214 l 1,5,-1
 290 214 l 1,6,-1
 221 147 l 1,7,-1
 400 147 l 1,8,-1
 391 99 l 1,9,-1
 173 99 l 1,10,-1
 84 11 l 1,11,-1
 54 40 l 1,12,-1
 114 99 l 1,13,-1
 31 99 l 1,14,-1
 40 147 l 1,15,-1
 162 147 l 1,16,-1
 230 214 l 1,17,-1
 53 214 l 1,18,-1
 62 262 l 1,19,-1
 279 262 l 1,0,-1
EndSplineSet
EndChar
StartChar: AE
Encoding: 198 198 144
Width: 561
Flags: W
Fore
541 373 m 1,0,-1
 333 373 l 1,1,-1
 309 248 l 1,2,-1
 509 248 l 1,3,-1
 499 200 l 1,4,-1
 299 200 l 1,5,-1
 270 47 l 1,6,-1
 484 47 l 1,7,-1
 475 0 l 1,8,-1
 204 0 l 1,9,-1
 224 107 l 1,10,-1
 75 107 l 1,11,-1
 10 0 l 1,12,-1
 -48 0 l 1,13,-1
 209 420 l 1,14,-1
 550 420 l 1,15,-1
 541 373 l 1,0,-1
105 156 m 1,16,-1
 234 156 l 1,17,-1
 277 376 l 1,18,-1
 240 376 l 1,19,-1
 105 156 l 1,16,-1
EndSplineSet
EndChar
StartChar: Oslash
Encoding: 216 216 145
Width: 454
Flags: W
Fore
102 75 m 1,0,1
 131 38 131 38 185 38 c 0,2,3
 246 38 246 38 291.5 83.5 c 128,-1,4
 337 129 337 129 352 210 c 0,5,6
 358 241 358 241 357 267.5 c 128,-1,7
 356 294 356 294 350 313 c 1,8,-1
 102 75 l 1,0,1
333 345 m 1,9,10
 320 364 320 364 299 373 c 128,-1,11
 278 382 278 382 252 382 c 0,12,13
 189 382 189 382 144 335.5 c 128,-1,14
 99 289 99 289 83 210 c 0,15,16
 72 148 72 148 84 106 c 1,17,-1
 333 345 l 1,18,-1
 333 345 l 1,9,10
38 62 m 1,19,20
 6 122 6 122 22 210 c 0,21,22
 42 310 42 310 106 368 c 0,23,24
 172 428 172 428 261 428 c 0,25,26
 334 428 334 428 374 385 c 1,27,-1
 432 439 l 1,28,-1
 455 414 l 1,29,-1
 396 358 l 1,30,31
 414 330 414 330 417 292.5 c 128,-1,32
 420 255 420 255 411 210 c 0,33,34
 401 160 401 160 379.5 120 c 128,-1,35
 358 80 358 80 327.5 51.5 c 128,-1,36
 297 23 297 23 258.5 7.5 c 128,-1,37
 220 -8 220 -8 176 -8 c 0,38,39
 102 -8 102 -8 60 34 c 1,40,-1
 4 -20 l 1,41,-1
 -21 5 l 1,42,-1
 38 62 l 1,43,-1
 38 62 l 1,19,20
EndSplineSet
EndChar
StartChar: infinity
Encoding: 8734 8734 146
Width: 480
Flags: W
Fore
238 158 m 1,0,1
 248 133 248 133 263.5 120 c 128,-1,2
 279 107 279 107 303 107 c 0,3,4
 332 107 332 107 354 126 c 128,-1,5
 376 145 376 145 382 175 c 0,6,7
 387 203 387 203 374 222 c 128,-1,8
 361 241 361 241 335 241 c 0,9,10
 312 241 312 241 290 222 c 128,-1,11
 268 203 268 203 238 158 c 1,0,1
210 187 m 1,12,13
 190 237 190 237 144 237 c 0,14,15
 115 237 115 237 93 218.5 c 128,-1,16
 71 200 71 200 66 170 c 0,17,18
 60 142 60 142 73 123 c 128,-1,19
 86 104 86 104 112 104 c 0,20,21
 135 104 135 104 157.5 123 c 128,-1,22
 180 142 180 142 210 187 c 1,12,13
219 136 m 1,23,24
 193 98 193 98 167 80.5 c 128,-1,25
 141 63 141 63 114 63 c 0,26,27
 76 63 76 63 56.5 94.5 c 128,-1,28
 37 126 37 126 46 172 c 0,29,30
 56 221 56 221 84.5 251.5 c 128,-1,31
 113 282 113 282 151 282 c 0,32,33
 178 282 178 282 195.5 264 c 128,-1,34
 213 246 213 246 227 208 c 1,35,36
 278 283 278 283 333 283 c 0,37,38
 352 283 352 283 367 274.5 c 128,-1,39
 382 266 382 266 391 251 c 128,-1,40
 400 236 400 236 403.5 216 c 128,-1,41
 407 196 407 196 402 173 c 0,42,43
 392 124 392 124 363 94 c 128,-1,44
 334 64 334 64 296 64 c 0,45,46
 270 64 270 64 252.5 80.5 c 128,-1,47
 235 97 235 97 219 136 c 1,23,24
EndSplineSet
EndChar
StartChar: plusminus
Encoding: 177 177 147
Width: 483
Flags: W
Fore
264 252 m 1,0,-1
 420 252 l 1,1,-1
 411 205 l 1,2,-1
 255 205 l 1,3,-1
 234 96 l 1,4,-1
 185 96 l 1,5,-1
 206 205 l 1,6,-1
 51 205 l 1,7,-1
 60 252 l 1,8,-1
 215 252 l 1,9,-1
 237 362 l 1,10,-1
 286 362 l 1,11,-1
 264 252 l 1,0,-1
381 47 m 1,12,-1
 372 0 l 1,13,-1
 12 0 l 1,14,-1
 21 47 l 1,15,-1
 381 47 l 1,12,-1
EndSplineSet
EndChar
StartChar: lessequal
Encoding: 8804 8804 148
Width: 483
Flags: W
Fore
141 208 m 1,0,-1
 397 131 l 1,1,-1
 387 81 l 1,2,-1
 47 184 l 1,3,-1
 57 233 l 1,4,-1
 437 336 l 1,5,-1
 427 286 l 1,6,-1
 141 208 l 1,0,-1
381 47 m 1,7,-1
 372 0 l 1,8,-1
 12 0 l 1,9,-1
 21 47 l 1,10,-1
 381 47 l 1,7,-1
EndSplineSet
EndChar
StartChar: greaterequal
Encoding: 8805 8805 149
Width: 483
Flags: W
Fore
77 336 m 1,0,-1
 417 233 l 1,1,-1
 407 184 l 1,2,-1
 27 81 l 1,3,-1
 37 131 l 1,4,-1
 322 208 l 1,5,-1
 67 286 l 1,6,-1
 77 336 l 1,0,-1
372 0 m 1,7,-1
 12 0 l 1,8,-1
 21 47 l 1,9,-1
 381 47 l 1,10,-1
 372 0 l 1,7,-1
EndSplineSet
EndChar
StartChar: yen
Encoding: 165 165 150
Width: 367
Flags: W
Fore
187 129 m 1,0,-1
 162 0 l 1,1,-1
 106 0 l 1,2,-1
 131 129 l 1,3,-1
 13 129 l 1,4,-1
 19 163 l 1,5,-1
 137 163 l 1,6,-1
 140 177 l 1,7,-1
 124 220 l 1,8,-1
 30 220 l 1,9,-1
 37 255 l 1,10,-1
 111 255 l 1,11,-1
 54 420 l 1,12,-1
 107 420 l 1,13,-1
 176 224 l 1,14,-1
 320 420 l 1,15,-1
 374 420 l 1,16,-1
 253 255 l 1,17,-1
 327 255 l 1,18,-1
 320 220 l 1,19,-1
 227 220 l 1,20,-1
 195 177 l 1,21,-1
 192 163 l 1,22,-1
 309 163 l 1,23,-1
 303 129 l 1,24,-1
 187 129 l 1,0,-1
EndSplineSet
EndChar
StartChar: mu
Encoding: 181 181 151
Width: 367
Flags: W
Fore
59 315 m 1,0,-1
 112 315 l 1,1,-1
 74 119 l 2,2,3
 58 37 58 37 134 37 c 0,4,5
 219 37 219 37 237 132 c 2,6,-1
 273 315 l 1,7,-1
 324 315 l 1,8,-1
 276 72 l 2,9,10
 273 56 273 56 276 48 c 128,-1,11
 279 40 279 40 291 40 c 0,12,13
 295 40 295 40 311 46 c 1,14,-1
 303 4 l 1,15,16
 279 -8 279 -8 259 -8 c 0,17,18
 221 -8 221 -8 220 36 c 1,19,20
 184 -8 184 -8 129 -8 c 0,21,22
 70 -8 70 -8 57 36 c 1,23,-1
 27 -121 l 1,24,-1
 -26 -121 l 1,25,-1
 59 315 l 1,0,-1
EndSplineSet
EndChar
StartChar: partialdiff
Encoding: 8706 8706 152
Width: 299
Flags: W
Fore
197 175 m 1,0,1
 205 199 205 199 211.5 222 c 128,-1,2
 218 245 218 245 222 267 c 0,3,4
 237 340 237 340 196 340 c 0,5,6
 180 340 180 340 157 323 c 0,7,8
 135 307 135 307 123 307 c 0,9,10
 113 307 113 307 107.5 313 c 128,-1,11
 102 319 102 319 104 328 c 0,12,13
 108 345 108 345 130.5 359 c 128,-1,14
 153 373 153 373 182 373 c 0,15,16
 233 373 233 373 254.5 329 c 128,-1,17
 276 285 276 285 262 212 c 0,18,19
 242 116 242 116 190 55 c 0,20,21
 137 -7 137 -7 77 -7 c 0,22,23
 35 -7 35 -7 12 23.5 c 128,-1,24
 -11 54 -11 54 -2 100 c 0,25,26
 4 128 4 128 17 151.5 c 128,-1,27
 30 175 30 175 48 192 c 128,-1,28
 66 209 66 209 87.5 218.5 c 128,-1,29
 109 228 109 228 131 228 c 0,30,31
 160 228 160 228 175.5 215 c 128,-1,32
 191 202 191 202 197 175 c 1,0,1
176 139 m 0,33,34
 188 207 188 207 142 207 c 0,35,36
 112 207 112 207 84.5 170.5 c 128,-1,37
 57 134 57 134 46 76 c 0,38,39
 34 8 34 8 80 8 c 0,40,41
 95 8 95 8 110 18 c 128,-1,42
 125 28 125 28 138 45 c 128,-1,43
 151 62 151 62 160.5 86.5 c 128,-1,44
 170 111 170 111 176 139 c 0,33,34
EndSplineSet
EndChar
StartChar: summation
Encoding: 8721 8721 153
Width: 388
Flags: W
Fore
400 415 m 1,0,-1
 390 361 l 1,1,-1
 120 361 l 1,2,-1
 269 159 l 1,3,-1
 32 -57 l 1,4,-1
 315 -57 l 1,5,-1
 305 -110 l 1,6,-1
 -64 -110 l 1,7,-1
 -56 -69 l 1,8,-1
 191 157 l 1,9,-1
 35 365 l 1,10,-1
 45 415 l 1,11,-1
 400 415 l 1,0,-1
EndSplineSet
EndChar
StartChar: product
Encoding: 8719 8719 154
Width: 437
Flags: W
Fore
422 415 m 1,0,-1
 320 -110 l 1,1,-1
 252 -110 l 1,2,-1
 343 357 l 1,3,-1
 130 357 l 1,4,-1
 39 -110 l 1,5,-1
 -29 -110 l 1,6,-1
 73 415 l 1,7,-1
 422 415 l 1,0,-1
EndSplineSet
EndChar
StartChar: pi
Encoding: 960 960 155
Width: 340
Flags: W
Fore
275 258 m 1,0,-1
 218 121 l 2,1,2
 201 77 201 77 200 67 c 0,3,4
 196 50 196 50 201.5 43.5 c 128,-1,5
 207 37 207 37 223 37 c 0,6,7
 228 37 228 37 234 37.5 c 128,-1,8
 240 38 240 38 252 40 c 1,9,-1
 235 0 l 1,10,11
 219 -4 219 -4 203 -4 c 0,12,13
 135 -4 135 -4 147 53 c 0,14,15
 149 65 149 65 156.5 85.5 c 128,-1,16
 164 106 164 106 182 151 c 2,17,-1
 225 258 l 1,18,-1
 133 258 l 1,19,-1
 28 0 l 1,20,-1
 -22 0 l 1,21,-1
 82 258 l 1,22,-1
 71 258 l 2,23,24
 41 258 41 258 28 219 c 1,25,-1
 -16 219 l 1,26,27
 -8 243 -8 243 1.5 259 c 128,-1,28
 11 275 11 275 24 284.5 c 128,-1,29
 37 294 37 294 53.5 298 c 128,-1,30
 70 302 70 302 93 302 c 2,31,-1
 345 302 l 1,32,-1
 327 258 l 1,33,-1
 275 258 l 1,0,-1
EndSplineSet
EndChar
StartChar: integral
Encoding: 8747 8747 156
Width: 301
Flags: W
Fore
23 -74 m 0,0,1
 53 -74 53 -74 95 121 c 0,2,3
 98 135 98 135 100.5 147 c 128,-1,4
 103 159 103 159 105 167 c 0,5,6
 136 311 136 311 174.5 374 c 128,-1,7
 213 437 213 437 270 437 c 0,8,9
 293 437 293 437 304.5 425 c 128,-1,10
 316 413 316 413 312 394 c 0,11,12
 306 362 306 362 273 362 c 0,13,14
 249 362 249 362 246 382 c 1,15,16
 244 386 244 386 245 396.5 c 128,-1,17
 246 407 246 407 242 407 c 0,18,19
 212 407 212 407 174 233 c 0,20,21
 168 205 168 205 163.5 184 c 128,-1,22
 159 163 159 163 155 147 c 0,23,24
 139 80 139 80 122 32 c 128,-1,25
 105 -16 105 -16 85.5 -46.5 c 128,-1,26
 66 -77 66 -77 43 -91 c 128,-1,27
 20 -105 20 -105 -7 -105 c 0,28,29
 -29 -105 -29 -105 -40.5 -93 c 128,-1,30
 -52 -81 -52 -81 -50 -63 c 0,31,32
 -44 -29 -44 -29 -7 -29 c 0,33,34
 13 -29 13 -29 17 -45 c 0,35,36
 18 -48 18 -48 18 -52.5 c 128,-1,37
 18 -57 18 -57 18 -62 c 128,-1,38
 18 -67 18 -67 19 -70.5 c 128,-1,39
 20 -74 20 -74 23 -74 c 0,0,1
EndSplineSet
EndChar
StartChar: ordfeminine
Encoding: 170 170 157
Width: 272
Flags: W
Fore
215 167 m 1,0,-1
 208 132 l 1,1,-1
 14 132 l 1,2,-1
 21 167 l 1,3,-1
 215 167 l 1,0,-1
222 202 m 1,4,-1
 180 202 l 1,5,-1
 186 234 l 1,6,7
 153 197 153 197 99 197 c 0,8,9
 63 197 63 197 45 216 c 128,-1,10
 27 235 27 235 33 267 c 0,11,12
 49 343 49 343 155 343 c 2,13,-1
 207 343 l 1,14,-1
 207 344 l 1,15,16
 217 396 217 396 151 396 c 0,17,18
 133 396 133 396 113.5 391 c 128,-1,19
 94 386 94 386 72 377 c 1,20,-1
 79 412 l 1,21,22
 123 428 123 428 163 428 c 0,23,24
 265 428 265 428 246 328 c 2,25,-1
 222 202 l 1,4,-1
165 311 m 1,26,27
 119 311 119 311 100 302 c 128,-1,28
 81 293 81 293 76 270 c 0,29,30
 72 252 72 252 84 241.5 c 128,-1,31
 96 231 96 231 119 231 c 0,32,33
 147 231 147 231 170 251 c 128,-1,34
 193 271 193 271 199 303 c 2,35,-1
 201 311 l 1,36,-1
 165 311 l 1,37,-1
 165 311 l 1,26,27
EndSplineSet
EndChar
StartChar: ordmasculine
Encoding: 186 186 158
Width: 272
Flags: W
Fore
215 167 m 1,0,-1
 208 132 l 1,1,-1
 14 132 l 1,2,-1
 21 167 l 1,3,-1
 215 167 l 1,0,-1
169 428 m 256,4,5
 220 428 220 428 242.5 397 c 128,-1,6
 265 366 265 366 254 312 c 256,7,8
 243 258 243 258 209 227.5 c 128,-1,9
 175 197 175 197 124 197 c 256,10,11
 73 197 73 197 49.5 227.5 c 128,-1,12
 26 258 26 258 37 312 c 256,13,14
 48 366 48 366 83 397 c 128,-1,15
 118 428 118 428 169 428 c 256,4,5
162 396 m 0,16,17
 133 396 133 396 111 373 c 128,-1,18
 89 350 89 350 81 312 c 0,19,20
 74 275 74 275 87.5 252.5 c 128,-1,21
 101 230 101 230 130 230 c 0,22,23
 160 230 160 230 182 252.5 c 128,-1,24
 204 275 204 275 211 312 c 0,25,26
 219 350 219 350 205.5 373 c 128,-1,27
 192 396 192 396 162 396 c 0,16,17
EndSplineSet
EndChar
StartChar: Omega
Encoding: 937 937 159
Width: 441
Flags: W
Fore
369 0 m 1,0,-1
 200 0 l 1,1,-1
 209 50 l 1,2,3
 265 77 265 77 301.5 124 c 128,-1,4
 338 171 338 171 349 228 c 0,5,6
 363 297 363 297 333.5 337 c 128,-1,7
 304 377 304 377 243 377 c 0,8,9
 183 377 183 377 138 336.5 c 128,-1,10
 93 296 93 296 79 228 c 0,11,12
 68 171 68 171 86.5 124 c 128,-1,13
 105 77 105 77 151 50 c 1,14,-1
 142 0 l 1,15,-1
 -28 0 l 1,16,-1
 -19 50 l 1,17,-1
 70 50 l 1,18,19
 34 90 34 90 22 131.5 c 128,-1,20
 10 173 10 173 20 225 c 0,21,22
 38 314 38 314 101 370 c 0,23,24
 166 425 166 425 252 425 c 0,25,26
 339 425 339 425 381 370 c 0,27,28
 424 315 424 315 408 228 c 0,29,30
 397 173 397 173 369.5 131.5 c 128,-1,31
 342 90 342 90 288 50 c 1,32,-1
 378 50 l 1,33,-1
 369 0 l 1,0,-1
EndSplineSet
EndChar
StartChar: ae
Encoding: 230 230 160
Width: 567
Flags: W
Fore
470 186 m 1,0,1
 478 229 478 229 459.5 254 c 128,-1,2
 441 279 441 279 403 279 c 0,3,4
 358 279 358 279 327.5 255 c 128,-1,5
 297 231 297 231 285 185 c 1,6,-1
 470 186 l 1,7,-1
 470 186 l 1,0,1
282 271 m 1,8,9
 308 297 308 297 340.5 309.5 c 128,-1,10
 373 322 373 322 410 322 c 0,11,12
 473 322 473 322 503.5 281.5 c 128,-1,13
 534 241 534 241 520 171 c 2,14,-1
 515 145 l 1,15,-1
 276 145 l 1,16,17
 268 91 268 91 291 63 c 128,-1,18
 314 35 314 35 366 35 c 0,19,20
 396 35 396 35 425 42.5 c 128,-1,21
 454 50 454 50 486 65 c 1,22,-1
 477 16 l 1,23,24
 414 -8 414 -8 356 -8 c 0,25,26
 259 -8 259 -8 230 60 c 1,27,28
 174 -8 174 -8 95 -8 c 0,29,30
 41 -8 41 -8 17 18 c 128,-1,31
 -7 44 -7 44 2 92 c 0,32,33
 23 199 23 199 164 199 c 2,34,-1
 237 199 l 1,35,-1
 238 204 l 2,36,37
 245 240 245 240 225.5 259.5 c 128,-1,38
 206 279 206 279 164 279 c 0,39,40
 109 279 109 279 57 253 c 1,41,-1
 66 301 l 1,42,43
 95 312 95 312 123.5 317 c 128,-1,44
 152 322 152 322 177 322 c 0,45,46
 217 322 217 322 244.5 309.5 c 128,-1,47
 272 297 272 297 282 271 c 1,8,9
178 159 m 1,48,49
 115 159 115 159 88.5 144.5 c 128,-1,50
 62 130 62 130 55 95 c 0,51,52
 50 67 50 67 64.5 51 c 128,-1,53
 79 35 79 35 109 35 c 0,54,55
 154 35 154 35 185.5 65.5 c 128,-1,56
 217 96 217 96 227 147 c 2,57,-1
 229 159 l 1,58,-1
 178 159 l 1,59,-1
 178 159 l 1,48,49
EndSplineSet
EndChar
StartChar: oslash
Encoding: 248 248 161
Width: 353
Flags: W
Fore
78 59 m 1,0,1
 97 36 97 36 132 36 c 0,2,3
 174 36 174 36 205 68.5 c 128,-1,4
 236 101 236 101 247 158 c 0,5,6
 256 199 256 199 248 226 c 1,7,-1
 78 59 l 1,0,1
234 256 m 1,8,9
 217 279 217 279 180 279 c 0,10,11
 138 279 138 279 108 246 c 128,-1,12
 78 213 78 213 66 153 c 0,13,14
 62 133 62 133 61.5 117.5 c 128,-1,15
 61 102 61 102 65 90 c 1,16,-1
 234 256 l 1,17,-1
 234 256 l 1,8,9
21 46 m 1,18,19
 -2 90 -2 90 12 158 c 0,20,21
 27 236 27 236 73 279 c 128,-1,22
 119 322 119 322 188 322 c 0,23,24
 241 322 241 322 274 295 c 1,25,-1
 322 342 l 1,26,-1
 345 319 l 1,27,-1
 293 269 l 1,28,29
 314 225 314 225 301 158 c 0,30,31
 286 80 286 80 239.5 36 c 128,-1,32
 193 -8 193 -8 124 -8 c 0,33,34
 69 -8 69 -8 41 21 c 1,35,-1
 -9 -27 l 1,36,-1
 -30 -4 l 1,37,-1
 21 46 l 1,38,-1
 21 46 l 1,18,19
EndSplineSet
EndChar
StartChar: questiondown
Encoding: 191 191 162
Width: 306
Flags: W
Fore
203 308 m 1,0,-1
 195 264 l 2,1,2
 192 250 192 250 188.5 239 c 128,-1,3
 185 228 185 228 178.5 217.5 c 128,-1,4
 172 207 172 207 162 196.5 c 128,-1,5
 152 186 152 186 136 174 c 2,6,-1
 107 149 l 2,7,8
 87 134 87 134 77.5 120.5 c 128,-1,9
 68 107 68 107 66 94 c 0,10,11
 61 69 61 69 76 53.5 c 128,-1,12
 91 38 91 38 122 38 c 0,13,14
 144 38 144 38 171.5 48 c 128,-1,15
 199 58 199 58 229 76 c 1,16,-1
 219 24 l 1,17,18
 189 7 189 7 160.5 -0.5 c 128,-1,19
 132 -8 132 -8 104 -8 c 0,20,21
 52 -8 52 -8 25.5 19 c 128,-1,22
 -1 46 -1 46 7 91 c 0,23,24
 12 112 12 112 26 131.5 c 128,-1,25
 40 151 40 151 69 175 c 2,26,-1
 98 200 l 2,27,28
 116 213 116 213 122 220.5 c 128,-1,29
 128 228 128 228 132 235 c 0,30,31
 138 245 138 245 144 273 c 2,32,-1
 150 308 l 1,33,-1
 203 308 l 1,0,-1
156 349 m 1,34,-1
 170 420 l 1,35,-1
 227 420 l 1,36,-1
 213 349 l 1,37,-1
 156 349 l 1,34,-1
EndSplineSet
EndChar
StartChar: exclamdown
Encoding: 161 161 163
Width: 232
Flags: W
Fore
104 349 m 1,0,-1
 118 420 l 1,1,-1
 175 420 l 1,2,-1
 161 349 l 1,3,-1
 104 349 l 1,0,-1
37 0 m 1,4,-1
 72 184 l 1,5,-1
 98 285 l 1,6,-1
 144 285 l 1,7,-1
 129 184 l 1,8,-1
 94 0 l 1,9,-1
 37 0 l 1,4,-1
EndSplineSet
EndChar
StartChar: logicalnot
Encoding: 172 172 164
Width: 483
Flags: W
Fore
419 243 m 1,0,-1
 387 81 l 1,1,-1
 340 81 l 1,2,-1
 362 195 l 1,3,-1
 49 195 l 1,4,-1
 59 243 l 1,5,-1
 419 243 l 1,0,-1
EndSplineSet
EndChar
StartChar: radical
Encoding: 8730 8730 165
Width: 368
Flags: W
Fore
408 468 m 1,0,-1
 403 441 l 1,1,-1
 370 441 l 1,2,-1
 115 -11 l 1,3,-1
 96 -11 l 1,4,-1
 56 237 l 1,5,-1
 17 225 l 1,6,-1
 16 247 l 1,7,-1
 100 275 l 1,8,-1
 133 75 l 1,9,-1
 354 468 l 1,10,-1
 408 468 l 1,0,-1
EndSplineSet
EndChar
StartChar: florin
Encoding: 402 402 166
Width: 367
Flags: W
Fore
386 382 m 1,0,1
 366 398 366 398 342 398 c 0,2,3
 290 398 290 398 262 327 c 2,4,-1
 229 239 l 1,5,-1
 309 239 l 1,6,-1
 301 199 l 1,7,-1
 212 199 l 1,8,-1
 141 20 l 2,9,10
 125 -21 125 -21 109.5 -48 c 128,-1,11
 94 -75 94 -75 76.5 -91 c 128,-1,12
 59 -107 59 -107 38.5 -114 c 128,-1,13
 18 -121 18 -121 -8 -121 c 0,14,15
 -37 -121 -37 -121 -62 -107 c 1,16,-1
 -54 -62 l 1,17,18
 -28 -79 -28 -79 -2 -79 c 0,19,20
 25 -79 25 -79 44.5 -60 c 128,-1,21
 64 -41 64 -41 82 5 c 2,22,-1
 158 199 l 1,23,-1
 88 199 l 1,24,-1
 96 239 l 1,25,-1
 175 239 l 1,26,-1
 211 332 l 2,27,28
 231 383 231 383 264.5 410.5 c 128,-1,29
 298 438 298 438 340 438 c 0,30,31
 369 438 369 438 395 428 c 1,32,-1
 386 382 l 1,0,1
EndSplineSet
EndChar
StartChar: approxequal
Encoding: 8776 8776 167
Width: 483
Flags: W
Fore
396 126 m 1,0,1
 361 103 361 103 334.5 93 c 128,-1,2
 308 83 308 83 281 83 c 0,3,4
 251 83 251 83 212 100 c 0,5,6
 208 102 208 102 207 102 c 1,7,8
 207 103 207 103 202 105 c 0,9,10
 160 122 160 122 135 122 c 256,11,12
 110 122 110 122 84 111 c 128,-1,13
 58 100 58 100 26 76 c 1,14,-1
 36 128 l 1,15,16
 70 149 70 149 96.5 159 c 128,-1,17
 123 169 123 169 151 169 c 0,18,19
 181 169 181 169 220 151 c 0,20,21
 222 150 222 150 224 150 c 1,22,23
 224 149 224 149 229 147 c 0,24,25
 271 130 271 130 296 130 c 0,26,27
 320 130 320 130 345.5 140.5 c 128,-1,28
 371 151 371 151 406 175 c 1,29,-1
 396 126 l 1,0,1
417 235 m 1,30,31
 383 213 383 213 356 203.5 c 128,-1,32
 329 194 329 194 302 194 c 0,33,34
 269 194 269 194 233 210 c 1,35,36
 232 211 232 211 231 211 c 128,-1,37
 230 211 230 211 229 212 c 1,38,39
 223 214 l 2,40,41
 183 232 183 232 157 232 c 0,42,43
 132 232 132 232 106 221 c 128,-1,44
 80 210 80 210 48 186 c 1,45,-1
 57 236 l 1,46,47
 91 259 91 259 118 268.5 c 128,-1,48
 145 278 145 278 173 278 c 0,49,50
 205 278 205 278 241 262 c 1,51,52
 243 260 243 260 245 260 c 1,53,54
 251 258 l 2,55,56
 290 240 290 240 317 240 c 0,57,58
 341 240 341 240 367 250.5 c 128,-1,59
 393 261 393 261 427 285 c 1,60,-1
 417 235 l 1,30,31
EndSplineSet
EndChar
StartChar: Delta
Encoding: 8710 8710 168
Width: 386
Flags: W
Fore
34 50 m 1,0,-1
 269 50 l 1,1,-1
 212 355 l 1,2,-1
 34 50 l 1,0,-1
255 415 m 1,3,-1
 337 0 l 1,4,-1
 -51 0 l 1,5,-1
 192 415 l 1,6,-1
 255 415 l 1,3,-1
EndSplineSet
EndChar
StartChar: guillemotleft
Encoding: 171 171 169
Width: 353
Flags: W
Fore
296 244 m 1,0,-1
 196 169 l 1,1,-1
 267 94 l 1,2,-1
 256 40 l 1,3,-1
 147 158 l 1,4,-1
 151 180 l 1,5,-1
 307 299 l 1,6,-1
 296 244 l 1,0,-1
173 244 m 1,7,-1
 74 169 l 1,8,-1
 144 94 l 1,9,-1
 133 40 l 1,10,-1
 24 158 l 1,11,-1
 28 180 l 1,12,-1
 184 299 l 1,13,-1
 173 244 l 1,7,-1
EndSplineSet
EndChar
StartChar: guillemotright
Encoding: 187 187 170
Width: 353
Flags: W
Fore
170 180 m 1,0,-1
 166 158 l 1,1,-1
 12 40 l 1,2,-1
 23 94 l 1,3,-1
 121 169 l 1,4,-1
 52 244 l 1,5,-1
 63 299 l 1,6,-1
 170 180 l 1,0,-1
293 180 m 1,7,-1
 289 158 l 1,8,-1
 133 40 l 1,9,-1
 144 94 l 1,10,-1
 244 169 l 1,11,-1
 173 244 l 1,12,-1
 184 299 l 1,13,-1
 293 180 l 1,7,-1
EndSplineSet
EndChar
StartChar: ellipsis
Encoding: 8230 8230 171
Width: 577
Flags: W
Fore
281 71 m 1,0,-1
 268 0 l 1,1,-1
 209 0 l 1,2,-1
 222 71 l 1,3,-1
 281 71 l 1,0,-1
474 71 m 1,4,-1
 461 0 l 1,5,-1
 400 0 l 1,6,-1
 413 71 l 1,7,-1
 474 71 l 1,4,-1
90 71 m 1,8,-1
 77 0 l 1,9,-1
 16 0 l 1,10,-1
 29 71 l 1,11,-1
 90 71 l 1,8,-1
EndSplineSet
EndChar
StartChar: Agrave
Encoding: 192 192 173
Width: 394
Flags: W
Fore
101 156 m 1,0,-1
 255 156 l 1,1,-1
 217 365 l 1,2,-1
 101 156 l 1,0,-1
261 420 m 1,3,-1
 339 0 l 1,4,-1
 281 0 l 1,5,-1
 263 107 l 1,6,-1
 73 107 l 1,7,-1
 15 0 l 1,8,-1
 -46 0 l 1,9,-1
 196 420 l 1,10,-1
 261 420 l 1,3,-1
275 460 m 1,11,-1
 232 460 l 1,12,-1
 181 535 l 1,13,-1
 235 535 l 1,14,-1
 275 460 l 1,11,-1
EndSplineSet
EndChar
StartChar: Atilde
Encoding: 195 195 174
Width: 394
Flags: W
Fore
101 156 m 1,0,-1
 255 156 l 1,1,-1
 217 365 l 1,2,-1
 101 156 l 1,0,-1
261 420 m 1,3,-1
 339 0 l 1,4,-1
 281 0 l 1,5,-1
 263 107 l 1,6,-1
 73 107 l 1,7,-1
 15 0 l 1,8,-1
 -46 0 l 1,9,-1
 196 420 l 1,10,-1
 261 420 l 1,3,-1
226 491 m 1,11,12
 214 497 214 497 206 497 c 0,13,14
 186 497 186 497 181 471 c 1,15,-1
 181 470 l 1,16,-1
 146 470 l 1,17,18
 151 497 151 497 168.5 514 c 128,-1,19
 186 531 186 531 211 531 c 0,20,21
 220 531 220 531 228.5 528.5 c 128,-1,22
 237 526 237 526 248 519 c 2,23,-1
 264 511 l 1,24,25
 274 504 274 504 281 504 c 0,26,27
 302 504 302 504 307 529 c 1,28,-1
 308 531 l 1,29,-1
 343 531 l 1,30,31
 337 503 337 503 319.5 486.5 c 128,-1,32
 302 470 302 470 278 470 c 0,33,34
 268 470 268 470 260.5 472 c 128,-1,35
 253 474 253 474 239 482 c 2,36,-1
 226 491 l 1,11,12
EndSplineSet
EndChar
StartChar: Otilde
Encoding: 213 213 175
Width: 454
Flags: W
Fore
252 382 m 0,0,1
 189 382 189 382 144 335.5 c 128,-1,2
 99 289 99 289 83 210 c 0,3,4
 68 129 68 129 95 83.5 c 128,-1,5
 122 38 122 38 185 38 c 0,6,7
 246 38 246 38 291.5 83.5 c 128,-1,8
 337 129 337 129 352 210 c 0,9,10
 368 289 368 289 340.5 335.5 c 128,-1,11
 313 382 313 382 252 382 c 0,0,1
261 428 m 0,12,13
 305 428 305 428 337.5 412.5 c 128,-1,14
 370 397 370 397 389.5 368.5 c 128,-1,15
 409 340 409 340 415 300 c 128,-1,16
 421 260 421 260 411 210 c 256,17,18
 401 160 401 160 379.5 120 c 128,-1,19
 358 80 358 80 327.5 51.5 c 128,-1,20
 297 23 297 23 258.5 7.5 c 128,-1,21
 220 -8 220 -8 176 -8 c 0,22,23
 88 -8 88 -8 44 51 c 0,24,25
 3 111 3 111 22 210 c 0,26,27
 42 310 42 310 106 368 c 0,28,29
 172 428 172 428 261 428 c 0,12,13
256 491 m 1,30,31
 244 497 244 497 236 497 c 0,32,33
 216 497 216 497 211 471 c 1,34,-1
 211 470 l 1,35,-1
 176 470 l 1,36,37
 181 497 181 497 198.5 514 c 128,-1,38
 216 531 216 531 241 531 c 0,39,40
 250 531 250 531 258.5 528.5 c 128,-1,41
 267 526 267 526 278 519 c 2,42,-1
 294 511 l 1,43,44
 304 504 304 504 311 504 c 0,45,46
 332 504 332 504 337 529 c 1,47,-1
 338 531 l 1,48,-1
 373 531 l 1,49,50
 367 503 367 503 349.5 486.5 c 128,-1,51
 332 470 332 470 308 470 c 0,52,53
 298 470 298 470 290.5 472 c 128,-1,54
 283 474 283 474 269 482 c 2,55,-1
 256 491 l 1,30,31
EndSplineSet
EndChar
StartChar: OE
Encoding: 338 338 176
Width: 617
Flags: W
Fore
598 373 m 1,0,-1
 388 373 l 1,1,-1
 364 248 l 1,2,-1
 565 248 l 1,3,-1
 555 200 l 1,4,-1
 354 200 l 1,5,-1
 325 47 l 1,6,-1
 539 47 l 1,7,-1
 530 0 l 1,8,-1
 230 0 l 2,9,10
 109 0 109 0 55.5 53 c 128,-1,11
 2 106 2 106 23 211 c 0,12,13
 43 314 43 314 116.5 367 c 128,-1,14
 190 420 190 420 311 420 c 2,15,-1
 607 420 l 1,16,-1
 598 373 l 1,0,-1
295 373 m 2,17,18
 114 373 114 373 84 211 c 0,19,20
 51 47 51 47 232 47 c 2,21,-1
 268 47 l 1,22,-1
 331 373 l 1,23,-1
 295 373 l 2,17,18
EndSplineSet
EndChar
StartChar: oe
Encoding: 339 339 177
Width: 590
Flags: W
Fore
494 186 m 1,0,1
 502 229 502 229 483 254 c 128,-1,2
 464 279 464 279 426 279 c 0,3,4
 383 279 383 279 352 255 c 128,-1,5
 321 231 321 231 307 185 c 1,6,-1
 494 186 l 1,7,-1
 494 186 l 1,0,1
537 145 m 1,8,-1
 299 145 l 1,9,10
 284 36 284 36 390 36 c 0,11,12
 451 36 451 36 510 65 c 1,13,-1
 501 16 l 1,14,15
 438 -8 438 -8 379 -8 c 0,16,17
 290 -8 290 -8 255 54 c 1,18,19
 202 -8 202 -8 124 -8 c 0,20,21
 55 -8 55 -8 26 36 c 128,-1,22
 -3 80 -3 80 12 158 c 256,23,24
 27 236 27 236 73 279 c 128,-1,25
 119 322 119 322 188 322 c 0,26,27
 269 322 269 322 295 262 c 1,28,29
 322 291 322 291 357.5 306.5 c 128,-1,30
 393 322 393 322 433 322 c 0,31,32
 497 322 497 322 526.5 281.5 c 128,-1,33
 556 241 556 241 542 171 c 2,34,-1
 537 145 l 1,8,-1
180 279 m 256,35,36
 138 279 138 279 108 247 c 128,-1,37
 78 215 78 215 67 158 c 256,38,39
 56 101 56 101 73 68.5 c 128,-1,40
 90 36 90 36 132 36 c 256,41,42
 174 36 174 36 205 68.5 c 128,-1,43
 236 101 236 101 247 158 c 0,44,45
 258 213 258 213 240 246 c 128,-1,46
 222 279 222 279 180 279 c 256,35,36
EndSplineSet
EndChar
StartChar: endash
Encoding: 8211 8211 178
Width: 288
Flags: W
Fore
272 178 m 1,0,-1
 264 138 l 1,1,-1
 -24 138 l 1,2,-1
 -16 178 l 1,3,-1
 272 178 l 1,0,-1
EndSplineSet
EndChar
StartChar: emdash
Encoding: 8212 8212 179
Width: 577
Flags: W
Fore
561 178 m 1,0,-1
 553 138 l 1,1,-1
 -24 138 l 1,2,-1
 -16 178 l 1,3,-1
 561 178 l 1,0,-1
EndSplineSet
EndChar
StartChar: quotedblleft
Encoding: 8220 8220 180
Width: 299
Flags: W
Fore
52 282 m 1,0,-1
 62 331 l 1,1,-1
 126 420 l 1,2,-1
 163 420 l 1,3,-1
 122 331 l 1,4,-1
 112 282 l 1,5,-1
 52 282 l 1,0,-1
169 282 m 1,6,-1
 179 331 l 1,7,-1
 242 420 l 1,8,-1
 278 420 l 1,9,-1
 238 331 l 1,10,-1
 228 282 l 1,11,-1
 169 282 l 1,6,-1
EndSplineSet
EndChar
StartChar: quotedblright
Encoding: 8221 8221 181
Width: 299
Flags: W
Fore
163 420 m 1,0,-1
 154 372 l 1,1,-1
 89 282 l 1,2,-1
 52 282 l 1,3,-1
 94 372 l 1,4,-1
 103 420 l 1,5,-1
 163 420 l 1,0,-1
278 420 m 1,6,-1
 269 372 l 1,7,-1
 205 282 l 1,8,-1
 169 282 l 1,9,-1
 209 372 l 1,10,-1
 218 420 l 1,11,-1
 278 420 l 1,6,-1
EndSplineSet
EndChar
StartChar: quoteleft
Encoding: 8216 8216 182
Width: 183
Flags: W
Fore
52 282 m 1,0,-1
 62 331 l 1,1,-1
 126 420 l 1,2,-1
 163 420 l 1,3,-1
 122 331 l 1,4,-1
 112 282 l 1,5,-1
 52 282 l 1,0,-1
EndSplineSet
EndChar
StartChar: quoteright
Encoding: 8217 8217 183
Width: 183
Flags: W
Fore
164 420 m 1,0,-1
 156 378 l 1,1,-1
 92 287 l 1,2,-1
 55 287 l 1,3,-1
 96 378 l 1,4,-1
 104 420 l 1,5,-1
 164 420 l 1,0,-1
EndSplineSet
EndChar
StartChar: divide
Encoding: 247 247 184
Width: 483
Flags: W
Fore
288 320 m 1,0,-1
 274 250 l 1,1,-1
 205 250 l 1,2,-1
 219 320 l 1,3,-1
 288 320 l 1,0,-1
247 111 m 1,4,-1
 234 42 l 1,5,-1
 165 42 l 1,6,-1
 178 111 l 1,7,-1
 247 111 l 1,4,-1
411 205 m 1,8,-1
 402 157 l 1,9,-1
 42 157 l 1,10,-1
 51 205 l 1,11,-1
 411 205 l 1,8,-1
EndSplineSet
EndChar
StartChar: lozenge
Encoding: 9674 9674 185
Width: 285
Flags: W
Fore
16 167 m 1,0,-1
 79 -65 l 1,1,-1
 233 167 l 1,2,-1
 169 397 l 1,3,-1
 16 167 l 1,0,-1
265 167 m 1,4,-1
 65 -134 l 1,5,-1
 -17 167 l 1,6,-1
 182 466 l 1,7,-1
 265 167 l 1,4,-1
EndSplineSet
EndChar
StartChar: ydieresis
Encoding: 255 255 186
Width: 342
Flags: W
Fore
129 -29 m 1,0,1
 113 -57 113 -57 99.5 -75 c 128,-1,2
 86 -93 86 -93 72.5 -103 c 128,-1,3
 59 -113 59 -113 45 -117 c 128,-1,4
 31 -121 31 -121 13 -121 c 2,5,-1
 -29 -121 l 1,6,-1
 -20 -76 l 1,7,-1
 11 -76 l 2,8,9
 22 -76 22 -76 30.5 -74.5 c 128,-1,10
 39 -73 39 -73 47 -67 c 128,-1,11
 55 -61 55 -61 63 -49.5 c 128,-1,12
 71 -38 71 -38 81 -19 c 2,13,-1
 95 5 l 1,14,-1
 29 315 l 1,15,-1
 83 315 l 1,16,-1
 134 69 l 1,17,-1
 280 315 l 1,18,-1
 335 315 l 1,19,-1
 129 -29 l 1,20,-1
 129 -29 l 1,0,1
289 437 m 1,21,-1
 278 380 l 1,22,-1
 221 380 l 1,23,-1
 232 437 l 1,24,-1
 289 437 l 1,21,-1
178 437 m 1,25,-1
 167 380 l 1,26,-1
 111 380 l 1,27,-1
 122 437 l 1,28,-1
 178 437 l 1,25,-1
EndSplineSet
EndChar
StartChar: Ydieresis
Encoding: 376 376 187
Width: 352
Flags: W
Fore
91 420 m 1,0,-1
 174 247 l 1,1,-1
 324 420 l 1,2,-1
 384 420 l 1,3,-1
 193 200 l 1,4,-1
 155 0 l 1,5,-1
 97 0 l 1,6,-1
 135 200 l 1,7,-1
 30 420 l 1,8,-1
 91 420 l 1,0,-1
312 526 m 1,9,-1
 301 470 l 1,10,-1
 244 470 l 1,11,-1
 255 526 l 1,12,-1
 312 526 l 1,9,-1
201 526 m 1,13,-1
 190 470 l 1,14,-1
 134 470 l 1,15,-1
 145 526 l 1,16,-1
 201 526 l 1,13,-1
EndSplineSet
EndChar
StartChar: uni2215
Encoding: 8725 8725 188
Width: 94
Flags: W
Fore
226 416 m 1,0,-1
 -110 -8 l 1,1,-1
 -154 -8 l 1,2,-1
 182 416 l 1,3,-1
 226 416 l 1,0,-1
EndSplineSet
EndChar
StartChar: currency
Encoding: 164 164 189
Width: 367
Flags: W
Fore
324 339 m 1,0,-1
 351 306 l 1,1,-1
 281 248 l 1,2,3
 289 232 289 232 290.5 215 c 128,-1,4
 292 198 292 198 288 180 c 0,5,6
 285 163 285 163 277 146.5 c 128,-1,7
 269 130 269 130 254 114 c 1,8,-1
 301 56 l 1,9,-1
 263 24 l 1,10,-1
 215 82 l 1,11,12
 198 71 198 71 180 66 c 128,-1,13
 162 61 162 61 145 61 c 0,14,15
 115 61 115 61 81 81 c 1,16,-1
 13 23 l 1,17,-1
 -13 56 l 1,18,-1
 56 113 l 1,19,20
 42 147 42 147 48 180 c 0,21,22
 56 218 56 218 83 247 c 1,23,-1
 36 305 l 1,24,-1
 75 338 l 1,25,-1
 121 279 l 1,26,27
 156 301 156 301 192 301 c 0,28,29
 226 301 226 301 255 279 c 1,30,-1
 324 339 l 1,0,-1
245 181 m 0,31,32
 251 213 251 213 233 234.5 c 128,-1,33
 215 256 215 256 183 256 c 256,34,35
 151 256 151 256 124.5 234.5 c 128,-1,36
 98 213 98 213 92 181 c 0,37,38
 85 149 85 149 103 127 c 128,-1,39
 121 105 121 105 154 105 c 0,40,41
 185 105 185 105 211.5 127 c 128,-1,42
 238 149 238 149 245 181 c 0,31,32
EndSplineSet
EndChar
StartChar: guilsinglleft
Encoding: 8249 8249 190
Width: 231
Flags: W
Fore
173 244 m 1,0,-1
 74 169 l 1,1,-1
 144 94 l 1,2,-1
 133 40 l 1,3,-1
 24 158 l 1,4,-1
 28 180 l 1,5,-1
 184 299 l 1,6,-1
 173 244 l 1,0,-1
EndSplineSet
EndChar
StartChar: guilsinglright
Encoding: 8250 8250 191
Width: 231
Flags: W
Fore
170 180 m 1,0,-1
 166 158 l 1,1,-1
 12 40 l 1,2,-1
 23 94 l 1,3,-1
 121 169 l 1,4,-1
 52 244 l 1,5,-1
 63 299 l 1,6,-1
 170 180 l 1,0,-1
EndSplineSet
EndChar
StartChar: fi
Encoding: 64257 64257 192
Width: 364
Flags: W
Fore
259 0 m 1,0,-1
 208 0 l 1,1,-1
 261 275 l 1,2,-1
 117 275 l 1,3,-1
 64 0 l 1,4,-1
 13 0 l 1,5,-1
 66 275 l 1,6,-1
 16 275 l 1,7,-1
 24 315 l 1,8,-1
 74 315 l 1,9,-1
 78 338 l 2,10,11
 97 438 97 438 197 438 c 2,12,-1
 249 438 l 1,13,-1
 240 396 l 1,14,-1
 191 396 l 2,15,16
 163 396 163 396 149.5 384.5 c 128,-1,17
 136 373 136 373 130 343 c 2,18,-1
 125 315 l 1,19,-1
 320 315 l 1,20,-1
 259 0 l 1,0,-1
344 438 m 1,21,-1
 331 372 l 1,22,-1
 280 372 l 1,23,-1
 293 438 l 1,24,-1
 344 438 l 1,21,-1
EndSplineSet
Ligature: 0 0 'liga' f i
EndChar
StartChar: fl
Encoding: 64258 64258 193
Width: 364
Flags: W
Fore
344 438 m 1,0,-1
 259 0 l 1,1,-1
 208 0 l 1,2,-1
 284 396 l 1,3,-1
 191 396 l 2,4,5
 163 396 163 396 149.5 384.5 c 128,-1,6
 136 373 136 373 130 343 c 2,7,-1
 125 315 l 1,8,-1
 211 315 l 1,9,-1
 203 275 l 1,10,-1
 117 275 l 1,11,-1
 64 0 l 1,12,-1
 13 0 l 1,13,-1
 66 275 l 1,14,-1
 16 275 l 1,15,-1
 24 315 l 1,16,-1
 74 315 l 1,17,-1
 78 338 l 2,18,19
 89 390 89 390 117.5 414 c 128,-1,20
 146 438 146 438 200 438 c 2,21,-1
 344 438 l 1,0,-1
EndSplineSet
Ligature: 0 0 'liga' f l
EndChar
StartChar: daggerdbl
Encoding: 8225 8225 194
Width: 288
Flags: W
Fore
131 63 m 1,0,-1
 108 -56 l 1,1,-1
 58 -56 l 1,2,-1
 81 63 l 1,3,-1
 -22 63 l 1,4,-1
 -14 106 l 1,5,-1
 89 106 l 1,6,-1
 119 259 l 1,7,-1
 16 259 l 1,8,-1
 24 302 l 1,9,-1
 127 302 l 1,10,-1
 150 420 l 1,11,-1
 200 420 l 1,12,-1
 177 302 l 1,13,-1
 281 302 l 1,14,-1
 273 259 l 1,15,-1
 169 259 l 1,16,-1
 139 106 l 1,17,-1
 243 106 l 1,18,-1
 235 63 l 1,19,-1
 131 63 l 1,0,-1
EndSplineSet
EndChar
StartChar: periodcentered
Encoding: 183 183 195
Width: 183
Flags: W
Fore
117 236 m 1,0,-1
 104 165 l 1,1,-1
 44 165 l 1,2,-1
 57 236 l 1,3,-1
 117 236 l 1,0,-1
EndSplineSet
EndChar
StartChar: quotesinglbase
Encoding: 8218 8218 196
Width: 183
Flags: W
Fore
95 71 m 1,0,-1
 86 23 l 1,1,-1
 21 -67 l 1,2,-1
 -16 -67 l 1,3,-1
 26 23 l 1,4,-1
 35 71 l 1,5,-1
 95 71 l 1,0,-1
EndSplineSet
EndChar
StartChar: quotedblbase
Encoding: 8222 8222 197
Width: 299
Flags: W
Fore
210 71 m 1,0,-1
 201 23 l 1,1,-1
 137 -67 l 1,2,-1
 101 -67 l 1,3,-1
 141 23 l 1,4,-1
 150 71 l 1,5,-1
 210 71 l 1,0,-1
95 71 m 1,6,-1
 86 23 l 1,7,-1
 21 -67 l 1,8,-1
 -16 -67 l 1,9,-1
 26 23 l 1,10,-1
 35 71 l 1,11,-1
 95 71 l 1,6,-1
EndSplineSet
EndChar
StartChar: perthousand
Encoding: 8240 8240 198
Width: 774
Flags: W
Fore
631 185 m 0,0,1
 606 185 606 185 588.5 164 c 128,-1,2
 571 143 571 143 563 106 c 0,3,4
 556 69 556 69 566 48.5 c 128,-1,5
 576 28 576 28 601 28 c 0,6,7
 625 28 625 28 642.5 48.5 c 128,-1,8
 660 69 660 69 667 106 c 0,9,10
 675 143 675 143 665 164 c 128,-1,11
 655 185 655 185 631 185 c 0,0,1
638 220 m 0,12,13
 683 220 683 220 703.5 190 c 128,-1,14
 724 160 724 160 713 106 c 0,15,16
 703 54 703 54 670 23 c 128,-1,17
 637 -8 637 -8 594 -8 c 0,18,19
 548 -8 548 -8 528 23 c 128,-1,20
 508 54 508 54 518 106 c 0,21,22
 529 160 529 160 560.5 190 c 128,-1,23
 592 220 592 220 638 220 c 0,12,13
162 428 m 256,24,25
 207 428 207 428 227.5 398 c 128,-1,26
 248 368 248 368 238 314 c 0,27,28
 227 260 227 260 194.5 229.5 c 128,-1,29
 162 199 162 199 117 199 c 256,30,31
 72 199 72 199 52 229.5 c 128,-1,32
 32 260 32 260 43 314 c 0,33,34
 53 366 53 366 85 397 c 128,-1,35
 117 428 117 428 162 428 c 256,24,25
461 428 m 1,36,-1
 113 -8 l 1,37,-1
 69 -8 l 1,38,-1
 416 428 l 1,39,-1
 461 428 l 1,36,-1
155 392 m 0,40,41
 131 392 131 392 112.5 371 c 128,-1,42
 94 350 94 350 87 314 c 0,43,44
 79 277 79 277 89 256 c 128,-1,45
 99 235 99 235 124 235 c 0,46,47
 148 235 148 235 166 256 c 128,-1,48
 184 277 184 277 192 314 c 0,49,50
 199 350 199 350 188.5 371 c 128,-1,51
 178 392 178 392 155 392 c 0,40,41
411 220 m 256,52,53
 456 220 456 220 476.5 190 c 128,-1,54
 497 160 497 160 486 106 c 0,55,56
 476 54 476 54 444 23 c 128,-1,57
 412 -8 412 -8 367 -8 c 256,58,59
 322 -8 322 -8 302 23 c 128,-1,60
 282 54 282 54 292 106 c 0,61,62
 303 160 303 160 334.5 190 c 128,-1,63
 366 220 366 220 411 220 c 256,52,53
404 185 m 0,64,65
 379 185 379 185 362 164 c 128,-1,66
 345 143 345 143 337 106 c 0,67,68
 330 69 330 69 339.5 48.5 c 128,-1,69
 349 28 349 28 374 28 c 0,70,71
 398 28 398 28 416.5 48.5 c 128,-1,72
 435 69 435 69 442 106 c 0,73,74
 450 143 450 143 439 164 c 128,-1,75
 428 185 428 185 404 185 c 0,64,65
EndSplineSet
EndChar
StartChar: Acircumflex
Encoding: 194 194 199
Width: 394
Flags: W
Fore
101 156 m 1,0,-1
 255 156 l 1,1,-1
 217 365 l 1,2,-1
 101 156 l 1,0,-1
261 420 m 1,3,-1
 339 0 l 1,4,-1
 281 0 l 1,5,-1
 263 107 l 1,6,-1
 73 107 l 1,7,-1
 15 0 l 1,8,-1
 -46 0 l 1,9,-1
 196 420 l 1,10,-1
 261 420 l 1,3,-1
278 536 m 1,11,-1
 323 460 l 1,12,-1
 284 460 l 1,13,-1
 246 511 l 1,14,-1
 190 460 l 1,15,-1
 151 460 l 1,16,-1
 224 536 l 1,17,-1
 278 536 l 1,11,-1
EndSplineSet
EndChar
StartChar: Ecircumflex
Encoding: 202 202 200
Width: 365
Flags: W
Fore
353 420 m 1,0,-1
 344 373 l 1,1,-1
 135 373 l 1,2,-1
 111 248 l 1,3,-1
 312 248 l 1,4,-1
 302 200 l 1,5,-1
 101 200 l 1,6,-1
 72 47 l 1,7,-1
 287 47 l 1,8,-1
 278 0 l 1,9,-1
 7 0 l 1,10,-1
 88 420 l 1,11,-1
 353 420 l 1,0,-1
269 536 m 1,12,-1
 314 460 l 1,13,-1
 275 460 l 1,14,-1
 237 511 l 1,15,-1
 181 460 l 1,16,-1
 142 460 l 1,17,-1
 215 536 l 1,18,-1
 269 536 l 1,12,-1
EndSplineSet
EndChar
StartChar: Aacute
Encoding: 193 193 201
Width: 394
Flags: W
Fore
101 156 m 1,0,-1
 255 156 l 1,1,-1
 217 365 l 1,2,-1
 101 156 l 1,0,-1
261 420 m 1,3,-1
 339 0 l 1,4,-1
 281 0 l 1,5,-1
 263 107 l 1,6,-1
 73 107 l 1,7,-1
 15 0 l 1,8,-1
 -46 0 l 1,9,-1
 196 420 l 1,10,-1
 261 420 l 1,3,-1
318 535 m 1,11,-1
 239 460 l 1,12,-1
 197 460 l 1,13,-1
 266 535 l 1,14,-1
 318 535 l 1,11,-1
EndSplineSet
EndChar
StartChar: Edieresis
Encoding: 203 203 202
Width: 365
Flags: W
Fore
353 420 m 1,0,-1
 344 373 l 1,1,-1
 135 373 l 1,2,-1
 111 248 l 1,3,-1
 312 248 l 1,4,-1
 302 200 l 1,5,-1
 101 200 l 1,6,-1
 72 47 l 1,7,-1
 287 47 l 1,8,-1
 278 0 l 1,9,-1
 7 0 l 1,10,-1
 88 420 l 1,11,-1
 353 420 l 1,0,-1
324 526 m 1,12,-1
 313 470 l 1,13,-1
 256 470 l 1,14,-1
 267 526 l 1,15,-1
 324 526 l 1,12,-1
213 526 m 1,16,-1
 202 470 l 1,17,-1
 146 470 l 1,18,-1
 157 526 l 1,19,-1
 213 526 l 1,16,-1
EndSplineSet
EndChar
StartChar: Egrave
Encoding: 200 200 203
Width: 365
Flags: W
Fore
353 420 m 1,0,-1
 344 373 l 1,1,-1
 135 373 l 1,2,-1
 111 248 l 1,3,-1
 312 248 l 1,4,-1
 302 200 l 1,5,-1
 101 200 l 1,6,-1
 72 47 l 1,7,-1
 287 47 l 1,8,-1
 278 0 l 1,9,-1
 7 0 l 1,10,-1
 88 420 l 1,11,-1
 353 420 l 1,0,-1
266 460 m 1,12,-1
 223 460 l 1,13,-1
 172 535 l 1,14,-1
 226 535 l 1,15,-1
 266 460 l 1,12,-1
EndSplineSet
EndChar
StartChar: Iacute
Encoding: 205 205 204
Width: 170
Flags: W
Fore
144 420 m 1,0,-1
 63 0 l 1,1,-1
 7 0 l 1,2,-1
 88 420 l 1,3,-1
 144 420 l 1,0,-1
210 535 m 1,4,-1
 131 460 l 1,5,-1
 89 460 l 1,6,-1
 158 535 l 1,7,-1
 210 535 l 1,4,-1
EndSplineSet
EndChar
StartChar: Icircumflex
Encoding: 206 206 205
Width: 170
Flags: W
Fore
144 420 m 1,0,-1
 63 0 l 1,1,-1
 7 0 l 1,2,-1
 88 420 l 1,3,-1
 144 420 l 1,0,-1
170 536 m 1,4,-1
 215 460 l 1,5,-1
 176 460 l 1,6,-1
 138 511 l 1,7,-1
 82 460 l 1,8,-1
 43 460 l 1,9,-1
 116 536 l 1,10,-1
 170 536 l 1,4,-1
EndSplineSet
EndChar
StartChar: Idieresis
Encoding: 207 207 206
Width: 170
Flags: W
Fore
144 420 m 1,0,-1
 63 0 l 1,1,-1
 7 0 l 1,2,-1
 88 420 l 1,3,-1
 144 420 l 1,0,-1
225 526 m 1,4,-1
 214 470 l 1,5,-1
 157 470 l 1,6,-1
 168 526 l 1,7,-1
 225 526 l 1,4,-1
114 526 m 1,8,-1
 103 470 l 1,9,-1
 47 470 l 1,10,-1
 58 526 l 1,11,-1
 114 526 l 1,8,-1
EndSplineSet
EndChar
StartChar: Igrave
Encoding: 204 204 207
Width: 170
Flags: W
Fore
144 420 m 1,0,-1
 63 0 l 1,1,-1
 7 0 l 1,2,-1
 88 420 l 1,3,-1
 144 420 l 1,0,-1
167 460 m 1,4,-1
 124 460 l 1,5,-1
 73 535 l 1,6,-1
 127 535 l 1,7,-1
 167 460 l 1,4,-1
EndSplineSet
EndChar
StartChar: Oacute
Encoding: 211 211 208
Width: 454
Flags: W
Fore
252 382 m 0,0,1
 189 382 189 382 144 335.5 c 128,-1,2
 99 289 99 289 83 210 c 0,3,4
 68 129 68 129 95 83.5 c 128,-1,5
 122 38 122 38 185 38 c 0,6,7
 246 38 246 38 291.5 83.5 c 128,-1,8
 337 129 337 129 352 210 c 0,9,10
 368 289 368 289 340.5 335.5 c 128,-1,11
 313 382 313 382 252 382 c 0,0,1
261 428 m 0,12,13
 305 428 305 428 337.5 412.5 c 128,-1,14
 370 397 370 397 389.5 368.5 c 128,-1,15
 409 340 409 340 415 300 c 128,-1,16
 421 260 421 260 411 210 c 256,17,18
 401 160 401 160 379.5 120 c 128,-1,19
 358 80 358 80 327.5 51.5 c 128,-1,20
 297 23 297 23 258.5 7.5 c 128,-1,21
 220 -8 220 -8 176 -8 c 0,22,23
 88 -8 88 -8 44 51 c 0,24,25
 3 111 3 111 22 210 c 0,26,27
 42 310 42 310 106 368 c 0,28,29
 172 428 172 428 261 428 c 0,12,13
348 535 m 1,30,-1
 269 460 l 1,31,-1
 227 460 l 1,32,-1
 296 535 l 1,33,-1
 348 535 l 1,30,-1
EndSplineSet
EndChar
StartChar: Ocircumflex
Encoding: 212 212 209
Width: 454
Flags: W
Fore
252 382 m 0,0,1
 189 382 189 382 144 335.5 c 128,-1,2
 99 289 99 289 83 210 c 0,3,4
 68 129 68 129 95 83.5 c 128,-1,5
 122 38 122 38 185 38 c 0,6,7
 246 38 246 38 291.5 83.5 c 128,-1,8
 337 129 337 129 352 210 c 0,9,10
 368 289 368 289 340.5 335.5 c 128,-1,11
 313 382 313 382 252 382 c 0,0,1
261 428 m 0,12,13
 305 428 305 428 337.5 412.5 c 128,-1,14
 370 397 370 397 389.5 368.5 c 128,-1,15
 409 340 409 340 415 300 c 128,-1,16
 421 260 421 260 411 210 c 256,17,18
 401 160 401 160 379.5 120 c 128,-1,19
 358 80 358 80 327.5 51.5 c 128,-1,20
 297 23 297 23 258.5 7.5 c 128,-1,21
 220 -8 220 -8 176 -8 c 0,22,23
 88 -8 88 -8 44 51 c 0,24,25
 3 111 3 111 22 210 c 0,26,27
 42 310 42 310 106 368 c 0,28,29
 172 428 172 428 261 428 c 0,12,13
308 536 m 1,30,-1
 353 460 l 1,31,-1
 314 460 l 1,32,-1
 276 511 l 1,33,-1
 220 460 l 1,34,-1
 181 460 l 1,35,-1
 254 536 l 1,36,-1
 308 536 l 1,30,-1
EndSplineSet
EndChar
StartChar: Ograve
Encoding: 210 210 210
Width: 454
Flags: W
Fore
252 382 m 0,0,1
 189 382 189 382 144 335.5 c 128,-1,2
 99 289 99 289 83 210 c 0,3,4
 68 129 68 129 95 83.5 c 128,-1,5
 122 38 122 38 185 38 c 0,6,7
 246 38 246 38 291.5 83.5 c 128,-1,8
 337 129 337 129 352 210 c 0,9,10
 368 289 368 289 340.5 335.5 c 128,-1,11
 313 382 313 382 252 382 c 0,0,1
261 428 m 0,12,13
 305 428 305 428 337.5 412.5 c 128,-1,14
 370 397 370 397 389.5 368.5 c 128,-1,15
 409 340 409 340 415 300 c 128,-1,16
 421 260 421 260 411 210 c 256,17,18
 401 160 401 160 379.5 120 c 128,-1,19
 358 80 358 80 327.5 51.5 c 128,-1,20
 297 23 297 23 258.5 7.5 c 128,-1,21
 220 -8 220 -8 176 -8 c 0,22,23
 88 -8 88 -8 44 51 c 0,24,25
 3 111 3 111 22 210 c 0,26,27
 42 310 42 310 106 368 c 0,28,29
 172 428 172 428 261 428 c 0,12,13
305 460 m 1,30,-1
 262 460 l 1,31,-1
 211 535 l 1,32,-1
 265 535 l 1,33,-1
 305 460 l 1,30,-1
EndSplineSet
EndChar
StartChar: Uacute
Encoding: 218 218 211
Width: 422
Flags: W
Fore
138 420 m 1,0,-1
 89 165 l 2,1,2
 75 98 75 98 94.5 68 c 128,-1,3
 114 38 114 38 168 38 c 0,4,5
 223 38 223 38 253 68 c 128,-1,6
 283 98 283 98 297 165 c 2,7,-1
 346 420 l 1,8,-1
 403 420 l 1,9,-1
 352 158 l 2,10,11
 336 76 336 76 287 34 c 128,-1,12
 238 -8 238 -8 159 -8 c 256,13,14
 80 -8 80 -8 47 34 c 128,-1,15
 14 76 14 76 30 158 c 2,16,-1
 81 420 l 1,17,-1
 138 420 l 1,0,-1
332 535 m 1,18,-1
 253 460 l 1,19,-1
 211 460 l 1,20,-1
 280 535 l 1,21,-1
 332 535 l 1,18,-1
EndSplineSet
EndChar
StartChar: Ucircumflex
Encoding: 219 219 212
Width: 422
Flags: W
Fore
138 420 m 1,0,-1
 89 165 l 2,1,2
 75 98 75 98 94.5 68 c 128,-1,3
 114 38 114 38 168 38 c 0,4,5
 223 38 223 38 253 68 c 128,-1,6
 283 98 283 98 297 165 c 2,7,-1
 346 420 l 1,8,-1
 403 420 l 1,9,-1
 352 158 l 2,10,11
 336 76 336 76 287 34 c 128,-1,12
 238 -8 238 -8 159 -8 c 256,13,14
 80 -8 80 -8 47 34 c 128,-1,15
 14 76 14 76 30 158 c 2,16,-1
 81 420 l 1,17,-1
 138 420 l 1,0,-1
292 536 m 1,18,-1
 337 460 l 1,19,-1
 298 460 l 1,20,-1
 260 511 l 1,21,-1
 204 460 l 1,22,-1
 165 460 l 1,23,-1
 238 536 l 1,24,-1
 292 536 l 1,18,-1
EndSplineSet
EndChar
StartChar: Ugrave
Encoding: 217 217 213
Width: 422
Flags: W
Fore
138 420 m 1,0,-1
 89 165 l 2,1,2
 75 98 75 98 94.5 68 c 128,-1,3
 114 38 114 38 168 38 c 0,4,5
 223 38 223 38 253 68 c 128,-1,6
 283 98 283 98 297 165 c 2,7,-1
 346 420 l 1,8,-1
 403 420 l 1,9,-1
 352 158 l 2,10,11
 336 76 336 76 287 34 c 128,-1,12
 238 -8 238 -8 159 -8 c 256,13,14
 80 -8 80 -8 47 34 c 128,-1,15
 14 76 14 76 30 158 c 2,16,-1
 81 420 l 1,17,-1
 138 420 l 1,0,-1
289 460 m 1,18,-1
 246 460 l 1,19,-1
 195 535 l 1,20,-1
 249 535 l 1,21,-1
 289 460 l 1,18,-1
EndSplineSet
EndChar
StartChar: dotlessi
Encoding: 305 305 214
Width: 161
Flags: W
Fore
117 315 m 1,0,-1
 56 0 l 1,1,-1
 5 0 l 1,2,-1
 66 315 l 1,3,-1
 117 315 l 1,0,-1
EndSplineSet
EndChar
StartChar: circumflex
Encoding: 710 710 215
Width: 288
Flags: W
Fore
204 461 m 1,0,-1
 253 355 l 1,1,-1
 214 355 l 1,2,-1
 176 424 l 1,3,-1
 113 355 l 1,4,-1
 74 355 l 1,5,-1
 163 461 l 1,6,-1
 204 461 l 1,0,-1
EndSplineSet
EndChar
StartChar: tilde
Encoding: 732 732 216
Width: 288
Flags: W
Fore
156 402 m 1,0,1
 145 412 145 412 137 412 c 0,2,3
 117 412 117 412 108 369 c 1,4,-1
 73 369 l 1,5,6
 88 448 88 448 143 448 c 0,7,8
 164 448 164 448 178 431 c 2,9,-1
 192 415 l 2,10,11
 202 405 202 405 208 405 c 0,12,13
 220 405 220 405 227 415 c 128,-1,14
 234 425 234 425 239 448 c 1,15,-1
 274 448 l 1,16,17
 257 369 257 369 203 369 c 0,18,19
 182 369 182 369 168 386 c 2,20,-1
 156 402 l 1,0,1
EndSplineSet
EndChar
StartChar: macron
Encoding: 175 175 217
Width: 288
Flags: W
Fore
262 430 m 1,0,-1
 254 388 l 1,1,-1
 85 388 l 1,2,-1
 93 430 l 1,3,-1
 262 430 l 1,0,-1
EndSplineSet
EndChar
StartChar: breve
Encoding: 728 728 218
Width: 288
Flags: W
Fore
127 452 m 1,0,1
 125 410 125 410 173 410 c 0,2,3
 222 410 222 410 236 452 c 1,4,-1
 270 452 l 1,5,6
 249 372 249 372 166 372 c 0,7,8
 84 372 84 372 93 452 c 1,9,-1
 127 452 l 1,0,1
EndSplineSet
EndChar
StartChar: dotaccent
Encoding: 729 729 219
Width: 288
Flags: W
Fore
207 437 m 1,0,-1
 196 380 l 1,1,-1
 138 380 l 1,2,-1
 149 437 l 1,3,-1
 207 437 l 1,0,-1
EndSplineSet
EndChar
StartChar: ring
Encoding: 730 730 220
Width: 288
Flags: W
Fore
220 430 m 0,0,1
 224 447 224 447 214 459.5 c 128,-1,2
 204 472 204 472 185 472 c 0,3,4
 167 472 167 472 153 459.5 c 128,-1,5
 139 447 139 447 135 430 c 0,6,7
 131 411 131 411 141 398.5 c 128,-1,8
 151 386 151 386 169 386 c 0,9,10
 188 386 188 386 202 398.5 c 128,-1,11
 216 411 216 411 220 430 c 0,0,1
254 430 m 0,12,13
 248 397 248 397 221 374 c 128,-1,14
 194 351 194 351 162 351 c 0,15,16
 129 351 129 351 111.5 374 c 128,-1,17
 94 397 94 397 100 430 c 0,18,19
 106 461 106 461 132.5 484 c 128,-1,20
 159 507 159 507 192 507 c 0,21,22
 224 507 224 507 242 484 c 128,-1,23
 260 461 260 461 254 430 c 0,12,13
EndSplineSet
EndChar
StartChar: cedilla
Encoding: 184 184 221
Width: 288
Flags: W
Fore
118 0 m 1,0,1
 129 -18 129 -18 134 -32.5 c 128,-1,2
 139 -47 139 -47 137 -61 c 0,3,4
 126 -111 126 -111 60 -111 c 0,5,6
 46 -111 46 -111 34.5 -109 c 128,-1,7
 23 -107 23 -107 11 -105 c 1,8,-1
 18 -67 l 1,9,10
 27 -72 27 -72 37 -74 c 128,-1,11
 47 -76 47 -76 61 -76 c 0,12,13
 93 -76 93 -76 99 -50 c 0,14,15
 102 -35 102 -35 84 0 c 1,16,-1
 118 0 l 1,17,-1
 118 0 l 1,0,1
EndSplineSet
EndChar
StartChar: hungarumlaut
Encoding: 733 733 222
Width: 288
Flags: W
Fore
305 461 m 1,0,-1
 215 355 l 1,1,-1
 177 355 l 1,2,-1
 254 461 l 1,3,-1
 305 461 l 1,0,-1
208 461 m 1,4,-1
 125 355 l 1,5,-1
 86 355 l 1,6,-1
 161 461 l 1,7,-1
 208 461 l 1,4,-1
EndSplineSet
EndChar
StartChar: ogonek
Encoding: 731 731 223
Width: 288
Flags: W
Fore
108 0 m 1,0,1
 76 -35 76 -35 73 -50 c 0,2,3
 68 -76 68 -76 99 -76 c 0,4,5
 114 -76 114 -76 135 -68 c 1,6,-1
 128 -106 l 1,7,8
 116 -108 116 -108 106.5 -109.5 c 128,-1,9
 97 -111 97 -111 89 -111 c 0,10,11
 54 -111 54 -111 40.5 -99 c 128,-1,12
 27 -87 27 -87 32 -61 c 0,13,14
 36 -35 36 -35 74 0 c 1,15,-1
 108 0 l 1,0,1
EndSplineSet
EndChar
StartChar: caron
Encoding: 711 711 224
Width: 288
Flags: W
Fore
94 461 m 1,0,-1
 133 461 l 1,1,-1
 170 392 l 1,2,-1
 234 461 l 1,3,-1
 273 461 l 1,4,-1
 184 355 l 1,5,-1
 143 355 l 1,6,-1
 94 461 l 1,0,-1
EndSplineSet
EndChar
StartChar: Lslash
Encoding: 321 321 225
Width: 324
Flags: W
Fore
147 420 m 1,0,-1
 114 247 l 1,1,-1
 215 309 l 1,2,-1
 232 278 l 1,3,-1
 104 200 l 1,4,-1
 75 47 l 1,5,-1
 280 47 l 1,6,-1
 271 0 l 1,7,-1
 10 0 l 1,8,-1
 41 161 l 1,9,-1
 -7 131 l 1,10,-1
 -23 162 l 1,11,-1
 50 206 l 1,12,-1
 91 420 l 1,13,-1
 147 420 l 1,0,-1
EndSplineSet
EndChar
StartChar: lslash
Encoding: 322 322 226
Width: 164
Flags: W
Fore
142 438 m 1,0,-1
 109 269 l 1,1,-1
 150 295 l 1,2,-1
 166 264 l 1,3,-1
 100 225 l 1,4,-1
 57 0 l 1,5,-1
 6 0 l 1,6,-1
 42 187 l 1,7,-1
 3 163 l 1,8,-1
 -13 193 l 1,9,-1
 51 233 l 1,10,-1
 91 438 l 1,11,-1
 142 438 l 1,0,-1
EndSplineSet
EndChar
StartChar: Scaron
Encoding: 352 352 227
Width: 366
Flags: W
Fore
327 351 m 1,0,1
 268 382 268 382 217 382 c 0,2,3
 169 382 169 382 140.5 364 c 128,-1,4
 112 346 112 346 105 313 c 0,5,6
 100 284 100 284 114 270 c 128,-1,7
 128 256 128 256 173 247 c 2,8,-1
 206 240 l 2,9,10
 268 229 268 229 292 198.5 c 128,-1,11
 316 168 316 168 306 116 c 0,12,13
 294 55 294 55 247 23.5 c 128,-1,14
 200 -8 200 -8 121 -8 c 0,15,16
 91 -8 91 -8 59 -1.5 c 128,-1,17
 27 5 27 5 -7 19 c 1,18,-1
 4 77 l 1,19,20
 35 58 35 58 66.5 48 c 128,-1,21
 98 38 98 38 130 38 c 0,22,23
 178 38 178 38 208.5 57 c 128,-1,24
 239 76 239 76 246 111 c 0,25,26
 252 143 252 143 236 160 c 128,-1,27
 220 177 220 177 180 186 c 2,28,-1
 146 194 l 2,29,30
 84 206 84 206 61 233 c 128,-1,31
 38 260 38 260 47 308 c 0,32,33
 58 365 58 365 103.5 396.5 c 128,-1,34
 149 428 149 428 218 428 c 0,35,36
 248 428 248 428 277.5 422.5 c 128,-1,37
 307 417 307 417 338 407 c 1,38,-1
 327 351 l 1,0,1
152 536 m 1,39,-1
 191 536 l 1,40,-1
 227 485 l 1,41,-1
 285 536 l 1,42,-1
 324 536 l 1,43,-1
 249 460 l 1,44,-1
 195 460 l 1,45,-1
 152 536 l 1,39,-1
EndSplineSet
EndChar
StartChar: scaron
Encoding: 353 353 228
Width: 301
Flags: W
Fore
255 258 m 1,0,1
 236 269 236 269 213 274 c 128,-1,2
 190 279 190 279 165 279 c 0,3,4
 87 279 87 279 78 233 c 0,5,6
 74 214 74 214 86 204 c 128,-1,7
 98 194 98 194 137 184 c 2,8,-1
 155 180 l 2,9,10
 209 169 209 169 228 147.5 c 128,-1,11
 247 126 247 126 239 87 c 0,12,13
 231 42 231 42 191 17 c 128,-1,14
 151 -8 151 -8 90 -8 c 0,15,16
 39 -8 39 -8 -17 11 c 1,17,-1
 -7 65 l 1,18,19
 46 35 46 35 99 35 c 0,20,21
 135 35 135 35 157.5 48 c 128,-1,22
 180 61 180 61 185 83 c 0,23,24
 189 104 189 104 177 115.5 c 128,-1,25
 165 127 165 127 118 137 c 2,26,-1
 102 141 l 2,27,28
 54 151 54 151 37.5 172.5 c 128,-1,29
 21 194 21 194 28 231 c 0,30,31
 37 276 37 276 73 299 c 128,-1,32
 109 322 109 322 167 322 c 0,33,34
 195 322 195 322 219.5 318.5 c 128,-1,35
 244 315 244 315 264 306 c 1,36,-1
 255 258 l 1,0,1
100 461 m 1,37,-1
 139 461 l 1,38,-1
 176 392 l 1,39,-1
 240 461 l 1,40,-1
 279 461 l 1,41,-1
 190 355 l 1,42,-1
 149 355 l 1,43,-1
 100 461 l 1,37,-1
EndSplineSet
EndChar
StartChar: Zcaron
Encoding: 381 381 229
Width: 396
Flags: W
Fore
394 420 m 1,0,-1
 386 377 l 1,1,-1
 56 47 l 1,2,-1
 328 47 l 1,3,-1
 319 0 l 1,4,-1
 -24 0 l 1,5,-1
 -16 43 l 1,6,-1
 313 373 l 1,7,-1
 54 373 l 1,8,-1
 63 420 l 1,9,-1
 394 420 l 1,0,-1
167 536 m 1,10,-1
 206 536 l 1,11,-1
 242 485 l 1,12,-1
 300 536 l 1,13,-1
 339 536 l 1,14,-1
 264 460 l 1,15,-1
 210 460 l 1,16,-1
 167 536 l 1,10,-1
EndSplineSet
EndChar
StartChar: zcaron
Encoding: 382 382 230
Width: 303
Flags: W
Fore
289 315 m 1,0,-1
 280 268 l 1,1,-1
 40 41 l 1,2,-1
 235 41 l 1,3,-1
 228 0 l 1,4,-1
 -25 0 l 1,5,-1
 -16 47 l 1,6,-1
 222 274 l 1,7,-1
 35 274 l 1,8,-1
 43 315 l 1,9,-1
 289 315 l 1,0,-1
101 461 m 1,10,-1
 140 461 l 1,11,-1
 177 392 l 1,12,-1
 241 461 l 1,13,-1
 280 461 l 1,14,-1
 191 355 l 1,15,-1
 150 355 l 1,16,-1
 101 461 l 1,10,-1
EndSplineSet
EndChar
StartChar: brokenbar
Encoding: 166 166 231
Width: 194
Flags: W
Fore
52 -99 m 1,0,-1
 3 -99 l 1,1,-1
 45 114 l 1,2,-1
 94 114 l 1,3,-1
 52 -99 l 1,0,-1
108 190 m 1,4,-1
 59 190 l 1,5,-1
 101 404 l 1,6,-1
 150 404 l 1,7,-1
 108 190 l 1,4,-1
EndSplineSet
EndChar
StartChar: Eth
Encoding: 208 208 232
Width: 447
Flags: W
Fore
207 420 m 2,0,1
 331 420 331 420 378 370 c 128,-1,2
 425 320 425 320 404 211 c 0,3,4
 382 102 382 102 315.5 51 c 128,-1,5
 249 0 249 0 126 0 c 2,6,-1
 10 0 l 1,7,-1
 48 197 l 1,8,-1
 -9 197 l 1,9,-1
 -1 238 l 1,10,-1
 56 238 l 1,11,-1
 91 420 l 1,12,-1
 207 420 l 2,0,1
112 238 m 1,13,-1
 207 238 l 1,14,-1
 199 197 l 1,15,-1
 104 197 l 1,16,-1
 74 46 l 1,17,-1
 143 46 l 2,18,19
 231 46 231 46 279 86 c 128,-1,20
 327 126 327 126 344 211 c 0,21,22
 360 296 360 296 327.5 335 c 128,-1,23
 295 374 295 374 207 374 c 2,24,-1
 138 374 l 1,25,-1
 112 238 l 1,13,-1
EndSplineSet
EndChar
StartChar: eth
Encoding: 240 240 233
Width: 353
Flags: W
Fore
236 258 m 1,0,1
 222 263 222 263 210 265 c 128,-1,2
 198 267 198 267 186 267 c 0,3,4
 140 267 140 267 108.5 236.5 c 128,-1,5
 77 206 77 206 66 151 c 0,6,7
 55 97 55 97 72.5 66.5 c 128,-1,8
 90 36 90 36 132 36 c 256,9,10
 174 36 174 36 204.5 66.5 c 128,-1,11
 235 97 235 97 246 151 c 0,12,13
 253 185 253 185 250 211.5 c 128,-1,14
 247 238 247 238 236 258 c 1,0,1
266 321 m 1,15,16
 294 281 294 281 301.5 240.5 c 128,-1,17
 309 200 309 200 300 151 c 0,18,19
 293 115 293 115 277 85.5 c 128,-1,20
 261 56 261 56 237.5 35.5 c 128,-1,21
 214 15 214 15 185.5 3.5 c 128,-1,22
 157 -8 157 -8 124 -8 c 0,23,24
 58 -8 58 -8 27.5 35.5 c 128,-1,25
 -3 79 -3 79 11 151 c 0,26,27
 18 186 18 186 33.5 215 c 128,-1,28
 49 244 49 244 71.5 265 c 128,-1,29
 94 286 94 286 122.5 297.5 c 128,-1,30
 151 309 151 309 182 309 c 0,31,32
 187 309 187 309 194 308.5 c 128,-1,33
 201 308 201 308 212 306 c 1,34,-1
 178 357 l 1,35,-1
 82 327 l 1,36,-1
 79 355 l 1,37,-1
 163 381 l 1,38,-1
 123 438 l 1,39,-1
 186 438 l 1,40,-1
 214 398 l 1,41,-1
 314 428 l 1,42,-1
 318 402 l 1,43,-1
 230 374 l 1,44,-1
 266 321 l 1,45,-1
 266 321 l 1,15,16
EndSplineSet
EndChar
StartChar: Yacute
Encoding: 221 221 234
Width: 352
Flags: W
Fore
91 420 m 1,0,-1
 174 247 l 1,1,-1
 324 420 l 1,2,-1
 384 420 l 1,3,-1
 193 200 l 1,4,-1
 155 0 l 1,5,-1
 97 0 l 1,6,-1
 135 200 l 1,7,-1
 30 420 l 1,8,-1
 91 420 l 1,0,-1
297 535 m 1,9,-1
 218 460 l 1,10,-1
 176 460 l 1,11,-1
 245 535 l 1,12,-1
 297 535 l 1,9,-1
EndSplineSet
EndChar
StartChar: yacute
Encoding: 253 253 235
Width: 342
Flags: W
Fore
129 -29 m 1,0,1
 113 -57 113 -57 99.5 -75 c 128,-1,2
 86 -93 86 -93 72.5 -103 c 128,-1,3
 59 -113 59 -113 45 -117 c 128,-1,4
 31 -121 31 -121 13 -121 c 2,5,-1
 -29 -121 l 1,6,-1
 -20 -76 l 1,7,-1
 11 -76 l 2,8,9
 22 -76 22 -76 30.5 -74.5 c 128,-1,10
 39 -73 39 -73 47 -67 c 128,-1,11
 55 -61 55 -61 63 -49.5 c 128,-1,12
 71 -38 71 -38 81 -19 c 2,13,-1
 95 5 l 1,14,-1
 29 315 l 1,15,-1
 83 315 l 1,16,-1
 134 69 l 1,17,-1
 280 315 l 1,18,-1
 335 315 l 1,19,-1
 129 -29 l 1,20,-1
 129 -29 l 1,0,1
305 461 m 1,21,-1
 193 355 l 1,22,-1
 151 355 l 1,23,-1
 249 461 l 1,24,-1
 305 461 l 1,21,-1
EndSplineSet
EndChar
StartChar: Thorn
Encoding: 222 222 236
Width: 349
Flags: W
Fore
144 420 m 1,0,-1
 130 346 l 1,1,-1
 202 346 l 2,2,3
 344 346 344 346 320 220 c 0,4,5
 309 159 309 159 266 127 c 128,-1,6
 223 95 223 95 153 95 c 2,7,-1
 81 95 l 1,8,-1
 63 0 l 1,9,-1
 7 0 l 1,10,-1
 88 420 l 1,11,-1
 144 420 l 1,0,-1
90 142 m 1,12,-1
 162 142 l 2,13,14
 202 142 202 142 227.5 162.5 c 128,-1,15
 253 183 253 183 260 220 c 0,16,17
 275 300 275 300 193 300 c 2,18,-1
 121 300 l 1,19,-1
 90 142 l 1,12,-1
EndSplineSet
EndChar
StartChar: thorn
Encoding: 254 254 237
Width: 366
Flags: W
Fore
31 -121 m 1,0,-1
 -21 -121 l 1,1,-1
 88 438 l 1,2,-1
 140 438 l 1,3,-1
 107 268 l 1,4,5
 148 322 148 322 217 322 c 0,6,7
 275 322 275 322 302 277.5 c 128,-1,8
 329 233 329 233 315 158 c 0,9,10
 308 121 308 121 292.5 90 c 128,-1,11
 277 59 277 59 255.5 37.5 c 128,-1,12
 234 16 234 16 208 4 c 128,-1,13
 182 -8 182 -8 153 -8 c 0,14,15
 85 -8 85 -8 64 47 c 1,16,-1
 31 -121 l 1,0,-1
260 158 m 0,17,18
 271 215 271 215 255 247 c 128,-1,19
 239 279 239 279 197 279 c 256,20,21
 155 279 155 279 125.5 247 c 128,-1,22
 96 215 96 215 85 158 c 0,23,24
 74 100 74 100 90.5 67.5 c 128,-1,25
 107 35 107 35 149 35 c 256,26,27
 191 35 191 35 220 67.5 c 128,-1,28
 249 100 249 100 260 158 c 0,17,18
EndSplineSet
EndChar
StartChar: minus
Encoding: 8722 8722 238
Width: 483
Flags: W
Fore
411 205 m 1,0,-1
 402 157 l 1,1,-1
 42 157 l 1,2,-1
 51 205 l 1,3,-1
 411 205 l 1,0,-1
EndSplineSet
EndChar
StartChar: multiply
Encoding: 215 215 239
Width: 483
Flags: W
Fore
260 180 m 1,0,-1
 365 52 l 1,1,-1
 324 18 l 1,2,-1
 219 147 l 1,3,-1
 65 18 l 1,4,-1
 39 52 l 1,5,-1
 192 180 l 1,6,-1
 89 310 l 1,7,-1
 128 344 l 1,8,-1
 232 214 l 1,9,-1
 387 344 l 1,10,-1
 415 310 l 1,11,-1
 260 180 l 1,0,-1
EndSplineSet
EndChar
StartChar: onesuperior
Encoding: 185 185 240
Width: 232
Flags: W
Fore
94 219 m 1,0,-1
 128 391 l 1,1,-1
 62 380 l 1,2,-1
 69 412 l 1,3,-1
 136 423 l 1,4,-1
 174 423 l 1,5,-1
 134 219 l 1,6,-1
 192 219 l 1,7,-1
 186 188 l 1,8,-1
 29 188 l 1,9,-1
 35 219 l 1,10,-1
 94 219 l 1,0,-1
EndSplineSet
EndChar
StartChar: twosuperior
Encoding: 178 178 241
Width: 232
Flags: W
Fore
187 220 m 1,0,-1
 181 188 l 1,1,-1
 13 188 l 1,2,-1
 19 219 l 1,3,4
 24 224 24 224 32 229.5 c 128,-1,5
 40 235 40 235 51 243 c 0,6,7
 163 329 163 329 169 356 c 0,8,9
 173 375 173 375 161 386.5 c 128,-1,10
 149 398 149 398 125 398 c 0,11,12
 110 398 110 398 91.5 392.5 c 128,-1,13
 73 387 73 387 51 378 c 1,14,-1
 58 412 l 1,15,16
 81 420 81 420 101 424 c 128,-1,17
 121 428 121 428 137 428 c 0,18,19
 177 428 177 428 198 409 c 128,-1,20
 219 390 219 390 214 361 c 0,21,22
 205 319 205 319 96 241 c 0,23,24
 87 234 87 234 79.5 229 c 128,-1,25
 72 224 72 224 67 220 c 1,26,-1
 187 220 l 1,0,-1
EndSplineSet
EndChar
StartChar: threesuperior
Encoding: 179 179 242
Width: 232
Flags: W
Fore
158 315 m 1,0,1
 210 304 210 304 201 256 c 0,2,3
 194 221 194 221 163.5 202.5 c 128,-1,4
 133 184 133 184 84 184 c 0,5,6
 51 184 51 184 16 196 c 1,7,-1
 22 230 l 1,8,9
 35 221 35 221 51 217.5 c 128,-1,10
 67 214 67 214 86 214 c 0,11,12
 117 214 117 214 135.5 225.5 c 128,-1,13
 154 237 154 237 158 256 c 0,14,15
 167 299 167 299 106 299 c 2,16,-1
 81 299 l 1,17,-1
 87 330 l 1,18,-1
 114 330 l 2,19,20
 167 330 167 330 173 365 c 0,21,22
 176 380 176 380 164.5 389 c 128,-1,23
 153 398 153 398 126 398 c 0,24,25
 115 398 115 398 100 395 c 128,-1,26
 85 392 85 392 61 386 c 1,27,-1
 67 418 l 1,28,29
 89 423 89 423 107.5 425.5 c 128,-1,30
 126 428 126 428 140 428 c 0,31,32
 182 428 182 428 202 411 c 128,-1,33
 222 394 222 394 217 367 c 0,34,35
 209 326 209 326 158 315 c 1,0,1
EndSplineSet
EndChar
StartChar: onequarter
Encoding: 188 188 243
Width: 559
Flags: W
Fore
94 219 m 1,0,-1
 128 391 l 1,1,-1
 62 380 l 1,2,-1
 69 412 l 1,3,-1
 136 423 l 1,4,-1
 174 423 l 1,5,-1
 134 219 l 1,6,-1
 192 219 l 1,7,-1
 186 188 l 1,8,-1
 29 188 l 1,9,-1
 35 219 l 1,10,-1
 94 219 l 1,0,-1
458 416 m 1,11,-1
 121 -8 l 1,12,-1
 77 -8 l 1,13,-1
 414 416 l 1,14,-1
 458 416 l 1,11,-1
341 87 m 1,15,-1
 428 87 l 1,16,-1
 451 205 l 1,17,-1
 341 87 l 1,15,-1
499 239 m 1,18,-1
 469 87 l 1,19,-1
 507 87 l 1,20,-1
 501 56 l 1,21,-1
 463 56 l 1,22,-1
 453 4 l 1,23,-1
 412 4 l 1,24,-1
 422 56 l 1,25,-1
 306 56 l 1,26,-1
 313 91 l 1,27,-1
 453 239 l 1,28,-1
 499 239 l 1,18,-1
EndSplineSet
Ligature: 0 0 'frac' one fraction four
Ligature: 0 0 'frac' one slash four
EndChar
StartChar: onehalf
Encoding: 189 189 244
Width: 559
Flags: W
Fore
94 219 m 1,0,-1
 128 391 l 1,1,-1
 62 380 l 1,2,-1
 69 412 l 1,3,-1
 136 423 l 1,4,-1
 174 423 l 1,5,-1
 134 219 l 1,6,-1
 192 219 l 1,7,-1
 186 188 l 1,8,-1
 29 188 l 1,9,-1
 35 219 l 1,10,-1
 94 219 l 1,0,-1
458 416 m 1,11,-1
 121 -8 l 1,12,-1
 77 -8 l 1,13,-1
 414 416 l 1,14,-1
 458 416 l 1,11,-1
479 36 m 1,15,-1
 473 4 l 1,16,-1
 305 4 l 1,17,-1
 311 35 l 1,18,19
 316 40 316 40 324 45.5 c 128,-1,20
 332 51 332 51 343 59 c 0,21,22
 457 147 457 147 461 172 c 0,23,24
 465 191 465 191 453 202.5 c 128,-1,25
 441 214 441 214 417 214 c 0,26,27
 402 214 402 214 384 208.5 c 128,-1,28
 366 203 366 203 343 194 c 1,29,-1
 350 228 l 1,30,31
 373 236 373 236 393 240 c 128,-1,32
 413 244 413 244 429 244 c 0,33,34
 469 244 469 244 490 225 c 128,-1,35
 511 206 511 206 506 177 c 0,36,37
 499 137 499 137 389 57 c 0,38,39
 370 44 370 44 359 36 c 1,40,-1
 479 36 l 1,15,-1
EndSplineSet
Ligature: 0 0 'frac' one fraction two
Ligature: 0 0 'frac' one slash two
EndChar
StartChar: threequarters
Encoding: 190 190 245
Width: 559
Flags: W
Fore
158 315 m 1,0,1
 210 304 210 304 201 256 c 0,2,3
 194 221 194 221 163.5 202.5 c 128,-1,4
 133 184 133 184 84 184 c 0,5,6
 51 184 51 184 16 196 c 1,7,-1
 22 230 l 1,8,9
 35 221 35 221 51 217.5 c 128,-1,10
 67 214 67 214 86 214 c 0,11,12
 117 214 117 214 135.5 225.5 c 128,-1,13
 154 237 154 237 158 256 c 0,14,15
 167 299 167 299 106 299 c 2,16,-1
 81 299 l 1,17,-1
 87 330 l 1,18,-1
 114 330 l 2,19,20
 167 330 167 330 173 365 c 0,21,22
 176 380 176 380 164.5 389 c 128,-1,23
 153 398 153 398 126 398 c 0,24,25
 115 398 115 398 100 395 c 128,-1,26
 85 392 85 392 61 386 c 1,27,-1
 67 418 l 1,28,29
 89 423 89 423 107.5 425.5 c 128,-1,30
 126 428 126 428 140 428 c 0,31,32
 182 428 182 428 202 411 c 128,-1,33
 222 394 222 394 217 367 c 0,34,35
 209 326 209 326 158 315 c 1,0,1
458 416 m 1,36,-1
 121 -8 l 1,37,-1
 77 -8 l 1,38,-1
 414 416 l 1,39,-1
 458 416 l 1,36,-1
341 87 m 1,40,-1
 428 87 l 1,41,-1
 451 205 l 1,42,-1
 341 87 l 1,40,-1
499 239 m 1,43,-1
 469 87 l 1,44,-1
 507 87 l 1,45,-1
 501 56 l 1,46,-1
 463 56 l 1,47,-1
 453 4 l 1,48,-1
 412 4 l 1,49,-1
 422 56 l 1,50,-1
 306 56 l 1,51,-1
 313 91 l 1,52,-1
 453 239 l 1,53,-1
 499 239 l 1,43,-1
EndSplineSet
Ligature: 0 0 'frac' three fraction four
Ligature: 0 0 'frac' three slash four
EndChar
StartChar: Gbreve
Encoding: 286 286 246
Width: 447
Flags: W
Fore
326 173 m 1,0,-1
 233 173 l 1,1,-1
 242 219 l 1,2,-1
 392 219 l 1,3,-1
 357 39 l 1,4,5
 319 15 319 15 277 3.5 c 128,-1,6
 235 -8 235 -8 190 -8 c 0,7,8
 91 -8 91 -8 46.5 49.5 c 128,-1,9
 2 107 2 107 22 210 c 256,10,11
 42 313 42 313 109.5 370.5 c 128,-1,12
 177 428 177 428 275 428 c 0,13,14
 360 428 360 428 413 388 c 1,15,-1
 401 328 l 1,16,17
 350 381 350 381 271 381 c 0,18,19
 117 381 117 381 83 210 c 0,20,21
 50 39 50 39 204 39 c 0,22,23
 234 39 234 39 258.5 43.5 c 128,-1,24
 283 48 283 48 304 60 c 1,25,-1
 326 173 l 1,0,-1
223 536 m 1,26,27
 223 505 223 505 271 505 c 0,28,29
 295 505 295 505 309.5 512 c 128,-1,30
 324 519 324 519 332 536 c 1,31,-1
 366 536 l 1,32,33
 356 502 356 502 329.5 485 c 128,-1,34
 303 468 303 468 263 468 c 0,35,36
 181 468 181 468 189 536 c 1,37,-1
 223 536 l 1,26,27
EndSplineSet
EndChar
StartChar: gbreve
Encoding: 287 287 247
Width: 366
Flags: W
Fore
243 162 m 0,0,1
 254 217 254 217 236.5 248 c 128,-1,2
 219 279 219 279 177 279 c 256,3,4
 135 279 135 279 106 248 c 128,-1,5
 77 217 77 217 66 162 c 0,6,7
 55 105 55 105 72 74 c 128,-1,8
 89 43 89 43 131 43 c 256,9,10
 173 43 173 43 202.5 74 c 128,-1,11
 232 105 232 105 243 162 c 0,0,1
271 39 m 1,12,13
 240 -121 240 -121 95 -121 c 0,14,15
 67 -121 67 -121 44.5 -116 c 128,-1,16
 22 -111 22 -111 -1 -104 c 1,17,-1
 9 -53 l 1,18,19
 30 -65 30 -65 51 -71 c 128,-1,20
 72 -77 72 -77 96 -77 c 0,21,22
 196 -77 196 -77 217 30 c 2,23,-1
 222 56 l 1,24,25
 180 0 180 0 111 0 c 0,26,27
 53 0 53 0 26 44.5 c 128,-1,28
 -1 89 -1 89 13 162 c 0,29,30
 20 198 20 198 35 227.5 c 128,-1,31
 50 257 50 257 71 278 c 128,-1,32
 92 299 92 299 118 310.5 c 128,-1,33
 144 322 144 322 173 322 c 0,34,35
 244 322 244 322 264 268 c 1,36,-1
 273 315 l 1,37,-1
 325 315 l 1,38,-1
 271 39 l 1,39,-1
 271 39 l 1,12,13
166 452 m 1,40,41
 164 410 164 410 212 410 c 0,42,43
 261 410 261 410 275 452 c 1,44,-1
 309 452 l 1,45,46
 288 372 288 372 205 372 c 0,47,48
 123 372 123 372 132 452 c 1,49,-1
 166 452 l 1,40,41
EndSplineSet
EndChar
StartChar: Idotaccent
Encoding: 304 304 248
Width: 170
Flags: W
Fore
144 420 m 1,0,-1
 63 0 l 1,1,-1
 7 0 l 1,2,-1
 88 420 l 1,3,-1
 144 420 l 1,0,-1
170 527 m 1,4,-1
 159 470 l 1,5,-1
 101 470 l 1,6,-1
 112 527 l 1,7,-1
 170 527 l 1,4,-1
EndSplineSet
EndChar
StartChar: Scedilla
Encoding: 350 350 249
Width: 366
Flags: W
Fore
327 351 m 1,0,1
 268 382 268 382 217 382 c 0,2,3
 169 382 169 382 140.5 364 c 128,-1,4
 112 346 112 346 105 313 c 0,5,6
 100 284 100 284 114 270 c 128,-1,7
 128 256 128 256 173 247 c 2,8,-1
 206 240 l 2,9,10
 268 229 268 229 292 198.5 c 128,-1,11
 316 168 316 168 306 116 c 0,12,13
 294 55 294 55 247 23.5 c 128,-1,14
 200 -8 200 -8 121 -8 c 0,15,16
 91 -8 91 -8 59 -1.5 c 128,-1,17
 27 5 27 5 -7 19 c 1,18,-1
 4 77 l 1,19,20
 35 58 35 58 66.5 48 c 128,-1,21
 98 38 98 38 130 38 c 0,22,23
 178 38 178 38 208.5 57 c 128,-1,24
 239 76 239 76 246 111 c 0,25,26
 252 143 252 143 236 160 c 128,-1,27
 220 177 220 177 180 186 c 2,28,-1
 146 194 l 2,29,30
 84 206 84 206 61 233 c 128,-1,31
 38 260 38 260 47 308 c 0,32,33
 58 365 58 365 103.5 396.5 c 128,-1,34
 149 428 149 428 218 428 c 0,35,36
 248 428 248 428 277.5 422.5 c 128,-1,37
 307 417 307 417 338 407 c 1,38,-1
 327 351 l 1,0,1
157 0 m 1,39,40
 168 -18 168 -18 173 -32.5 c 128,-1,41
 178 -47 178 -47 176 -61 c 0,42,43
 165 -111 165 -111 99 -111 c 0,44,45
 85 -111 85 -111 73.5 -109 c 128,-1,46
 62 -107 62 -107 50 -105 c 1,47,-1
 57 -67 l 1,48,49
 66 -72 66 -72 76 -74 c 128,-1,50
 86 -76 86 -76 100 -76 c 0,51,52
 132 -76 132 -76 138 -50 c 0,53,54
 141 -35 141 -35 123 0 c 1,55,-1
 157 0 l 1,56,-1
 157 0 l 1,39,40
EndSplineSet
EndChar
StartChar: scedilla
Encoding: 351 351 250
Width: 301
Flags: W
Fore
255 258 m 1,0,1
 236 269 236 269 213 274 c 128,-1,2
 190 279 190 279 165 279 c 0,3,4
 87 279 87 279 78 233 c 0,5,6
 74 214 74 214 86 204 c 128,-1,7
 98 194 98 194 137 184 c 2,8,-1
 155 180 l 2,9,10
 209 169 209 169 228 147.5 c 128,-1,11
 247 126 247 126 239 87 c 0,12,13
 231 42 231 42 191 17 c 128,-1,14
 151 -8 151 -8 90 -8 c 0,15,16
 39 -8 39 -8 -17 11 c 1,17,-1
 -7 65 l 1,18,19
 46 35 46 35 99 35 c 0,20,21
 135 35 135 35 157.5 48 c 128,-1,22
 180 61 180 61 185 83 c 0,23,24
 189 104 189 104 177 115.5 c 128,-1,25
 165 127 165 127 118 137 c 2,26,-1
 102 141 l 2,27,28
 54 151 54 151 37.5 172.5 c 128,-1,29
 21 194 21 194 28 231 c 0,30,31
 37 276 37 276 73 299 c 128,-1,32
 109 322 109 322 167 322 c 0,33,34
 195 322 195 322 219.5 318.5 c 128,-1,35
 244 315 244 315 264 306 c 1,36,-1
 255 258 l 1,0,1
124 0 m 1,37,38
 135 -18 135 -18 140 -32.5 c 128,-1,39
 145 -47 145 -47 143 -61 c 0,40,41
 132 -111 132 -111 66 -111 c 0,42,43
 52 -111 52 -111 40.5 -109 c 128,-1,44
 29 -107 29 -107 17 -105 c 1,45,-1
 24 -67 l 1,46,47
 33 -72 33 -72 43 -74 c 128,-1,48
 53 -76 53 -76 67 -76 c 0,49,50
 99 -76 99 -76 105 -50 c 0,51,52
 108 -35 108 -35 90 0 c 1,53,-1
 124 0 l 1,54,-1
 124 0 l 1,37,38
EndSplineSet
EndChar
StartChar: Cacute
Encoding: 262 262 251
Width: 403
Flags: W
Fore
385 328 m 1,0,1
 338 381 338 381 265 381 c 0,2,3
 193 381 193 381 146.5 338 c 128,-1,4
 100 295 100 295 83 210 c 0,5,6
 67 126 67 126 96.5 82.5 c 128,-1,7
 126 39 126 39 198 39 c 0,8,9
 271 39 271 39 339 92 c 1,10,-1
 328 32 l 1,11,12
 260 -8 260 -8 186 -8 c 0,13,14
 89 -8 89 -8 45.5 49.5 c 128,-1,15
 2 107 2 107 22 210 c 0,16,17
 32 261 32 261 54 301 c 128,-1,18
 76 341 76 341 108.5 369.5 c 128,-1,19
 141 398 141 398 182 413 c 128,-1,20
 223 428 223 428 271 428 c 0,21,22
 345 428 345 428 397 388 c 1,23,-1
 385 328 l 1,0,1
350 535 m 1,24,-1
 271 460 l 1,25,-1
 229 460 l 1,26,-1
 298 535 l 1,27,-1
 350 535 l 1,24,-1
EndSplineSet
EndChar
StartChar: cacute
Encoding: 263 263 252
Width: 317
Flags: W
Fore
280 255 m 1,0,1
 243 279 243 279 197 279 c 0,2,3
 146 279 146 279 112 247 c 128,-1,4
 78 215 78 215 67 158 c 0,5,6
 56 100 56 100 77 68 c 128,-1,7
 98 36 98 36 149 36 c 0,8,9
 171 36 171 36 195 41.5 c 128,-1,10
 219 47 219 47 242 60 c 1,11,-1
 233 12 l 1,12,13
 185 -8 185 -8 135 -8 c 0,14,15
 63 -8 63 -8 30 36 c 128,-1,16
 -3 80 -3 80 12 158 c 256,17,18
 27 236 27 236 77.5 279 c 128,-1,19
 128 322 128 322 203 322 c 0,20,21
 252 322 252 322 289 303 c 1,22,-1
 280 255 l 1,0,1
317 461 m 1,23,-1
 205 355 l 1,24,-1
 163 355 l 1,25,-1
 261 461 l 1,26,-1
 317 461 l 1,23,-1
EndSplineSet
EndChar
StartChar: Ccaron
Encoding: 268 268 253
Width: 403
Flags: W
Fore
385 328 m 1,0,1
 338 381 338 381 265 381 c 0,2,3
 193 381 193 381 146.5 338 c 128,-1,4
 100 295 100 295 83 210 c 0,5,6
 67 126 67 126 96.5 82.5 c 128,-1,7
 126 39 126 39 198 39 c 0,8,9
 271 39 271 39 339 92 c 1,10,-1
 328 32 l 1,11,12
 260 -8 260 -8 186 -8 c 0,13,14
 89 -8 89 -8 45.5 49.5 c 128,-1,15
 2 107 2 107 22 210 c 0,16,17
 32 261 32 261 54 301 c 128,-1,18
 76 341 76 341 108.5 369.5 c 128,-1,19
 141 398 141 398 182 413 c 128,-1,20
 223 428 223 428 271 428 c 0,21,22
 345 428 345 428 397 388 c 1,23,-1
 385 328 l 1,0,1
198 536 m 1,24,-1
 237 536 l 1,25,-1
 273 485 l 1,26,-1
 331 536 l 1,27,-1
 370 536 l 1,28,-1
 295 460 l 1,29,-1
 241 460 l 1,30,-1
 198 536 l 1,24,-1
EndSplineSet
EndChar
StartChar: ccaron
Encoding: 269 269 254
Width: 317
Flags: W
Fore
280 255 m 1,0,1
 243 279 243 279 197 279 c 0,2,3
 146 279 146 279 112 247 c 128,-1,4
 78 215 78 215 67 158 c 0,5,6
 56 100 56 100 77 68 c 128,-1,7
 98 36 98 36 149 36 c 0,8,9
 171 36 171 36 195 41.5 c 128,-1,10
 219 47 219 47 242 60 c 1,11,-1
 233 12 l 1,12,13
 185 -8 185 -8 135 -8 c 0,14,15
 63 -8 63 -8 30 36 c 128,-1,16
 -3 80 -3 80 12 158 c 256,17,18
 27 236 27 236 77.5 279 c 128,-1,19
 128 322 128 322 203 322 c 0,20,21
 252 322 252 322 289 303 c 1,22,-1
 280 255 l 1,0,1
133 461 m 1,23,-1
 172 461 l 1,24,-1
 209 392 l 1,25,-1
 273 461 l 1,26,-1
 312 461 l 1,27,-1
 223 355 l 1,28,-1
 182 355 l 1,29,-1
 133 461 l 1,23,-1
EndSplineSet
EndChar
StartChar: dcroat
Encoding: 273 273 255
Width: 366
Flags: W
Fore
282 362 m 1,0,-1
 190 362 l 1,1,-1
 197 397 l 1,2,-1
 289 397 l 1,3,-1
 297 438 l 1,4,-1
 349 438 l 1,5,-1
 341 397 l 1,6,-1
 384 397 l 1,7,-1
 377 362 l 1,8,-1
 334 362 l 1,9,-1
 264 0 l 1,10,-1
 212 0 l 1,11,-1
 221 47 l 1,12,13
 198 20 198 20 171 6 c 128,-1,14
 144 -8 144 -8 109 -8 c 0,15,16
 52 -8 52 -8 25 37.5 c 128,-1,17
 -2 83 -2 83 12 158 c 0,18,19
 19 195 19 195 34.5 225.5 c 128,-1,20
 50 256 50 256 71 277.5 c 128,-1,21
 92 299 92 299 118.5 310.5 c 128,-1,22
 145 322 145 322 173 322 c 0,23,24
 241 322 241 322 264 268 c 1,25,-1
 282 362 l 1,0,-1
65 158 m 0,26,27
 54 100 54 100 70.5 67.5 c 128,-1,28
 87 35 87 35 129 35 c 256,29,30
 171 35 171 35 201 67.5 c 128,-1,31
 231 100 231 100 242 158 c 0,32,33
 253 215 253 215 236 247 c 128,-1,34
 219 279 219 279 177 279 c 256,35,36
 135 279 135 279 105.5 247 c 128,-1,37
 76 215 76 215 65 158 c 0,26,27
EndSplineSet
EndChar
StartChar: sfthyphen
Encoding: 173 173 256
Width: 208
Flags: W
Fore
165 181 m 1,0,-1
 156 135 l 1,1,-1
 4 135 l 1,2,-1
 13 181 l 1,3,-1
 165 181 l 1,0,-1
EndSplineSet
EndChar
StartChar: periodcentered
Encoding: 8729 8729 257
Width: 178
Flags: W
Fore
112 229 m 1,0,-1
 99 160 l 1,1,-1
 41 160 l 1,2,-1
 54 229 l 1,3,-1
 112 229 l 1,0,-1
EndSplineSet
EndChar
StartChar: Euro
Encoding: 8364 8364 258
Width: 367
Flags: W
Fore
342 328 m 1,0,1
 322 357 322 357 300.5 370 c 128,-1,2
 279 383 279 383 251 383 c 0,3,4
 160 383 160 383 119 274 c 1,5,-1
 282 274 l 1,6,-1
 260 239 l 1,7,-1
 108 239 l 1,8,9
 106 233 106 233 104.5 226 c 128,-1,10
 103 219 103 219 101 210 c 256,11,12
 99 201 99 201 98 194.5 c 128,-1,13
 97 188 97 188 97 181 c 1,14,-1
 223 181 l 1,15,-1
 199 146 l 1,16,-1
 94 146 l 1,17,18
 93 94 93 94 116 65.5 c 128,-1,19
 139 37 139 37 184 37 c 0,20,21
 212 37 212 37 238 50 c 128,-1,22
 264 63 264 63 296 92 c 1,23,-1
 285 32 l 1,24,25
 227 -8 227 -8 173 -8 c 0,26,27
 106 -8 106 -8 70.5 32.5 c 128,-1,28
 35 73 35 73 38 146 c 1,29,-1
 -22 146 l 1,30,-1
 0 181 l 1,31,-1
 40 181 l 1,32,-1
 45 210 l 1,33,-1
 51 239 l 1,34,-1
 -4 239 l 1,35,-1
 18 274 l 1,36,-1
 63 274 l 1,37,38
 88 346 88 346 139.5 387 c 128,-1,39
 191 428 191 428 258 428 c 0,40,41
 313 428 313 428 354 388 c 1,42,-1
 342 328 l 1,0,1
EndSplineSet
EndChar
StartChar: c6459
Encoding: 65539 -1 259
Width: 288
Flags: W
Fore
259 421 m 1,0,-1
 248 365 l 1,1,-1
 191 365 l 1,2,-1
 202 421 l 1,3,-1
 259 421 l 1,0,-1
148 421 m 1,4,-1
 137 365 l 1,5,-1
 81 365 l 1,6,-1
 92 421 l 1,7,-1
 148 421 l 1,4,-1
EndSplineSet
EndChar
StartChar: c6460
Encoding: 65540 -1 260
Width: 288
Flags: W
Fore
245 430 m 1,0,-1
 166 355 l 1,1,-1
 124 355 l 1,2,-1
 193 430 l 1,3,-1
 245 430 l 1,0,-1
EndSplineSet
EndChar
StartChar: c6461
Encoding: 65541 -1 261
Width: 288
Flags: W
Fore
153 386 m 1,0,1
 140 392 140 392 133 392 c 0,2,3
 113 392 113 392 108 366 c 1,4,-1
 107 365 l 1,5,-1
 72 365 l 1,6,7
 77 392 77 392 94.5 409 c 128,-1,8
 112 426 112 426 137 426 c 0,9,10
 146 426 146 426 155 423.5 c 128,-1,11
 164 421 164 421 175 414 c 2,12,-1
 190 406 l 2,13,14
 200 399 200 399 208 399 c 0,15,16
 229 399 229 399 234 424 c 1,17,-1
 234 426 l 1,18,-1
 269 426 l 1,19,20
 263 398 263 398 245.5 381.5 c 128,-1,21
 228 365 228 365 204 365 c 0,22,23
 194 365 194 365 187 367 c 128,-1,24
 180 369 180 369 166 377 c 2,25,-1
 153 386 l 1,0,1
EndSplineSet
EndChar
StartChar: c6462
Encoding: 65542 -1 262
Width: 288
Flags: W
Fore
202 355 m 1,0,-1
 159 355 l 1,1,-1
 108 430 l 1,2,-1
 162 430 l 1,3,-1
 202 355 l 1,0,-1
EndSplineSet
EndChar
StartChar: c6463
Encoding: 65543 -1 263
Width: 288
Flags: W
Fore
204 431 m 1,0,-1
 250 355 l 1,1,-1
 211 355 l 1,2,-1
 172 406 l 1,3,-1
 117 355 l 1,4,-1
 78 355 l 1,5,-1
 150 431 l 1,6,-1
 204 431 l 1,0,-1
EndSplineSet
EndChar
StartChar: c6466
Encoding: 65544 -1 264
Width: 288
Flags: W
Fore
92 431 m 1,0,-1
 131 431 l 1,1,-1
 167 380 l 1,2,-1
 225 431 l 1,3,-1
 264 431 l 1,4,-1
 190 355 l 1,5,-1
 136 355 l 1,6,-1
 92 431 l 1,0,-1
EndSplineSet
EndChar
StartChar: c6467
Encoding: 65545 -1 265
Width: 232
Flags: W
Fore
49 271 m 1,0,-1
 136 271 l 1,1,-1
 159 389 l 1,2,-1
 49 271 l 1,0,-1
207 423 m 1,3,-1
 177 271 l 1,4,-1
 215 271 l 1,5,-1
 209 240 l 1,6,-1
 171 240 l 1,7,-1
 161 188 l 1,8,-1
 120 188 l 1,9,-1
 130 240 l 1,10,-1
 14 240 l 1,11,-1
 21 275 l 1,12,-1
 161 423 l 1,13,-1
 207 423 l 1,3,-1
EndSplineSet
EndChar
StartChar: c6468
Encoding: 65546 -1 266
Width: 288
Flags: W
Fore
123 431 m 1,0,1
 123 400 123 400 171 400 c 0,2,3
 195 400 195 400 210 407 c 128,-1,4
 225 414 225 414 232 431 c 1,5,-1
 266 431 l 1,6,7
 257 397 257 397 230.5 380 c 128,-1,8
 204 363 204 363 164 363 c 0,9,10
 83 363 83 363 89 431 c 1,11,-1
 123 431 l 1,0,1
EndSplineSet
EndChar
StartChar: c6469
Encoding: 65547 -1 267
Width: 288
Flags: W
Fore
205 422 m 1,0,-1
 193 365 l 1,1,-1
 135 365 l 1,2,-1
 147 422 l 1,3,-1
 205 422 l 1,0,-1
EndSplineSet
EndChar
StartChar: uni0E01
Encoding: 3585 3585 269
Width: 413
Flags: W
Fore
64 293 m 1,0,-1
 145 293 l 1,1,-1
 138 256 l 1,2,3
 118 250 118 250 105.5 233.5 c 128,-1,4
 93 217 93 217 89 198 c 2,5,-1
 51 0 l 1,6,-1
 4 0 l 1,7,-1
 43 204 l 2,8,9
 47 224 47 224 55.5 233 c 128,-1,10
 64 242 64 242 81 255 c 2,11,-1
 83 257 l 1,12,-1
 17 257 l 1,13,-1
 29 317 l 1,14,15
 36 323 36 323 46.5 330.5 c 128,-1,16
 57 338 57 338 64 343 c 0,17,18
 102 366 102 366 135.5 377 c 128,-1,19
 169 388 169 388 209 388 c 0,20,21
 238 388 238 388 267.5 382 c 128,-1,22
 297 376 297 376 319 362 c 128,-1,23
 341 348 341 348 352.5 325.5 c 128,-1,24
 364 303 364 303 358 270 c 2,25,-1
 306 0 l 1,26,-1
 258 0 l 1,27,-1
 308 258 l 2,28,29
 311 276 311 276 308.5 292.5 c 128,-1,30
 306 309 306 309 295 322.5 c 128,-1,31
 284 336 284 336 262 344 c 128,-1,32
 240 352 240 352 205 352 c 0,33,34
 176 352 176 352 153.5 345 c 128,-1,35
 131 338 131 338 114 329 c 0,36,37
 95 318 95 318 79 306 c 2,38,-1
 64 293 l 1,0,-1
EndSplineSet
EndChar
StartChar: uni0E02
Encoding: 3586 3586 270
Width: 377
Flags: W
Fore
142 283 m 0,0,1
 136 254 136 254 113.5 237.5 c 128,-1,2
 91 221 91 221 64 221 c 0,3,4
 32 221 32 221 21 239.5 c 128,-1,5
 10 258 10 258 15 288 c 0,6,7
 19 309 19 309 30.5 327.5 c 128,-1,8
 42 346 42 346 58 359.5 c 128,-1,9
 74 373 74 373 94 381 c 128,-1,10
 114 389 114 389 135 389 c 0,11,12
 187 389 187 389 211 362.5 c 128,-1,13
 235 336 235 336 225 284 c 0,14,15
 222 268 222 268 207.5 249 c 128,-1,16
 193 230 193 230 176 211.5 c 128,-1,17
 159 193 159 193 144.5 175 c 128,-1,18
 130 157 130 157 127 142 c 2,19,-1
 106 36 l 1,20,-1
 229 36 l 1,21,-1
 297 383 l 1,22,-1
 344 383 l 1,23,-1
 270 0 l 1,24,-1
 53 0 l 1,25,-1
 79 136 l 2,26,27
 84 161 84 161 99.5 180.5 c 128,-1,28
 115 200 115 200 132.5 218.5 c 128,-1,29
 150 237 150 237 165 255.5 c 128,-1,30
 180 274 180 274 184 297 c 0,31,32
 189 324 189 324 172 339 c 128,-1,33
 155 354 155 354 129 354 c 0,34,35
 115 354 115 354 105 349.5 c 128,-1,36
 95 345 95 345 85 333 c 1,37,38
 90 334 90 334 94 335 c 128,-1,39
 98 336 98 336 103 336 c 0,40,41
 110 336 110 336 113 335 c 0,42,43
 134 330 134 330 139.5 316 c 128,-1,44
 145 302 145 302 142 283 c 0,0,1
54 279 m 0,45,46
 52 267 52 267 58.5 260.5 c 128,-1,47
 65 254 65 254 77 254 c 0,48,49
 88 254 88 254 95.5 261.5 c 128,-1,50
 103 269 103 269 105 280 c 0,51,52
 110 304 110 304 85 304 c 0,53,54
 73 304 73 304 64.5 298 c 128,-1,55
 56 292 56 292 54 279 c 0,45,46
EndSplineSet
EndChar
StartChar: uni0E03
Encoding: 3587 3587 271
Width: 380
Flags: W
Fore
84 137 m 1,0,1
 89 160 89 160 106.5 182 c 128,-1,2
 124 204 124 204 144 227 c 128,-1,3
 164 250 164 250 182 273.5 c 128,-1,4
 200 297 200 297 205 322 c 0,5,6
 207 331 207 331 204.5 338.5 c 128,-1,7
 202 346 202 346 191 346 c 0,8,9
 177 346 177 346 162 335 c 128,-1,10
 147 324 147 324 130 324 c 0,11,12
 121 324 121 324 115 327.5 c 128,-1,13
 109 331 109 331 105 335 c 128,-1,14
 101 339 101 339 97.5 342.5 c 128,-1,15
 94 346 94 346 89 346 c 256,16,17
 84 346 84 346 79.5 341 c 128,-1,18
 75 336 75 336 71.5 329.5 c 128,-1,19
 68 323 68 323 65.5 316.5 c 128,-1,20
 63 310 63 310 62 306 c 1,21,22
 70 309 70 309 78 311.5 c 128,-1,23
 86 314 86 314 94 314 c 0,24,25
 117 314 117 314 128 299.5 c 128,-1,26
 139 285 139 285 134 262 c 0,27,28
 129 236 129 236 109.5 221.5 c 128,-1,29
 90 207 90 207 66 207 c 0,30,31
 47 207 47 207 36.5 216 c 128,-1,32
 26 225 26 225 21.5 239 c 128,-1,33
 17 253 17 253 17 269.5 c 128,-1,34
 17 286 17 286 20 301 c 0,35,36
 22 313 22 313 28 328.5 c 128,-1,37
 34 344 34 344 43 357.5 c 128,-1,38
 52 371 52 371 64 380 c 128,-1,39
 76 389 76 389 92 389 c 0,40,41
 103 389 103 389 110.5 385 c 128,-1,42
 118 381 118 381 124 376 c 128,-1,43
 130 371 130 371 134 367 c 128,-1,44
 138 363 138 363 142 363 c 0,45,46
 148 363 148 363 155 367 c 128,-1,47
 162 371 162 371 169.5 376 c 128,-1,48
 177 381 177 381 185.5 385 c 128,-1,49
 194 389 194 389 203 389 c 0,50,51
 233 389 233 389 243.5 368.5 c 128,-1,52
 254 348 254 348 249 320 c 0,53,54
 243 292 243 292 225.5 266.5 c 128,-1,55
 208 241 208 241 188 217.5 c 128,-1,56
 168 194 168 194 151.5 173 c 128,-1,57
 135 152 135 152 131 133 c 2,58,-1
 114 42 l 1,59,-1
 233 42 l 1,60,-1
 299 383 l 1,61,-1
 347 383 l 1,62,-1
 273 0 l 1,63,-1
 58 0 l 1,64,-1
 84 137 l 1,65,-1
 84 137 l 1,0,1
81 282 m 0,66,67
 73 282 73 282 65.5 275.5 c 128,-1,68
 58 269 58 269 56 261 c 0,69,70
 54 252 54 252 59 245 c 128,-1,71
 64 238 64 238 74 238 c 0,72,73
 85 238 85 238 91.5 244.5 c 128,-1,74
 98 251 98 251 100 261 c 0,75,76
 102 272 102 272 96.5 277 c 128,-1,77
 91 282 91 282 81 282 c 0,66,67
EndSplineSet
EndChar
StartChar: uni0E04
Encoding: 3588 3588 272
Width: 416
Flags: W
Fore
218 351 m 0,0,1
 193 351 193 351 169 344 c 128,-1,2
 145 337 145 337 124.5 323 c 128,-1,3
 104 309 104 309 90 288.5 c 128,-1,4
 76 268 76 268 70 240 c 0,5,6
 63 203 63 203 65.5 166 c 128,-1,7
 68 129 68 129 71 94 c 1,8,9
 79 112 79 112 87.5 133 c 128,-1,10
 96 154 96 154 104.5 175.5 c 128,-1,11
 113 197 113 197 122.5 217 c 128,-1,12
 132 237 132 237 143 253 c 0,13,14
 155 270 155 270 171.5 277.5 c 128,-1,15
 188 285 188 285 206 285 c 0,16,17
 236 285 236 285 253 269 c 128,-1,18
 270 253 270 253 263 221 c 0,19,20
 258 193 258 193 235.5 173.5 c 128,-1,21
 213 154 213 154 185 154 c 0,22,23
 171 154 171 154 163.5 157.5 c 128,-1,24
 156 161 156 161 146 169 c 1,25,26
 134 144 134 144 123 119 c 128,-1,27
 101 69 l 0,28,29
 100 66 100 66 96.5 59 c 128,-1,30
 93 52 93 52 89 43.5 c 128,-1,31
 85 35 85 35 81.5 28 c 128,-1,32
 78 21 78 21 78 19 c 2,33,-1
 76 0 l 1,34,-1
 20 0 l 1,35,36
 21 26 21 26 22 52.5 c 128,-1,37
 23 79 23 79 21 105 c 0,38,39
 19 135 19 135 15.5 165 c 128,-1,40
 12 195 12 195 19 227 c 0,41,42
 22 244 22 244 27 261 c 128,-1,43
 32 278 32 278 41 295 c 0,44,45
 55 319 55 319 76.5 336.5 c 128,-1,46
 98 354 98 354 123 365.5 c 128,-1,47
 148 377 148 377 174.5 383 c 128,-1,48
 201 389 201 389 224 389 c 0,49,50
 251 389 251 389 278.5 382.5 c 128,-1,51
 306 376 306 376 326.5 361.5 c 128,-1,52
 347 347 347 347 357 324 c 128,-1,53
 367 301 367 301 361 268 c 2,54,-1
 309 0 l 1,55,-1
 262 0 l 1,56,-1
 312 260 l 2,57,58
 317 283 317 283 310 300 c 128,-1,59
 303 317 303 317 289.5 328.5 c 128,-1,60
 276 340 276 340 257 345.5 c 128,-1,61
 238 351 238 351 218 351 c 0,0,1
202 249 m 0,62,63
 190 249 190 249 180 239 c 128,-1,64
 170 229 170 229 168 218 c 0,65,66
 162 189 162 189 193 189 c 0,67,68
 204 189 204 189 213.5 198 c 128,-1,69
 223 207 223 207 225 218 c 0,70,71
 231 249 231 249 202 249 c 0,62,63
EndSplineSet
EndChar
StartChar: uni0E05
Encoding: 3589 3589 273
Width: 427
Flags: W
Fore
36 38 m 1,0,-1
 36 44 l 2,1,2
 35 58 35 58 34 72.5 c 128,-1,3
 33 87 33 87 31 101 c 0,4,5
 25 136 25 136 19.5 173.5 c 128,-1,6
 14 211 14 211 22 249 c 0,7,8
 27 274 27 274 39 299 c 128,-1,9
 51 324 51 324 69 344 c 128,-1,10
 87 364 87 364 111 376.5 c 128,-1,11
 135 389 135 389 163 389 c 0,12,13
 172 389 172 389 179 384 c 128,-1,14
 186 379 186 379 193 373.5 c 128,-1,15
 200 368 200 368 208 363 c 128,-1,16
 216 358 216 358 228 358 c 0,17,18
 252 358 252 358 269.5 368 c 128,-1,19
 287 378 287 378 309 389 c 1,20,-1
 311 389 l 2,21,22
 317 389 317 389 324.5 385 c 128,-1,23
 332 381 332 381 336 377 c 0,24,25
 363 356 363 356 371 329 c 128,-1,26
 379 302 379 302 371 264 c 2,27,-1
 320 0 l 1,28,-1
 273 0 l 1,29,-1
 323 262 l 2,30,31
 327 280 327 280 327 295 c 128,-1,32
 327 310 327 310 317 324 c 0,33,34
 313 330 313 330 307.5 334.5 c 128,-1,35
 302 339 302 339 294 339 c 0,36,37
 285 339 285 339 277 335.5 c 128,-1,38
 269 332 269 332 260 327.5 c 128,-1,39
 251 323 251 323 242 319.5 c 128,-1,40
 233 316 233 316 222 316 c 0,41,42
 210 316 210 316 201 321 c 128,-1,43
 192 326 192 326 184.5 331.5 c 128,-1,44
 177 337 177 337 169 342 c 128,-1,45
 161 347 161 347 151 347 c 0,46,47
 135 347 135 347 121.5 336.5 c 128,-1,48
 108 326 108 326 98 311 c 128,-1,49
 88 296 88 296 81.5 279.5 c 128,-1,50
 75 263 75 263 72 251 c 0,51,52
 64 210 64 210 68 174.5 c 128,-1,53
 72 139 72 139 83 103 c 1,54,-1
 121 196 l 2,55,56
 127 213 127 213 134.5 228.5 c 128,-1,57
 142 244 142 244 152.5 257 c 128,-1,58
 163 270 163 270 177 277.5 c 128,-1,59
 191 285 191 285 212 285 c 0,60,61
 240 285 240 285 258.5 271 c 128,-1,62
 277 257 277 257 271 226 c 0,63,64
 266 197 266 197 242.5 176.5 c 128,-1,65
 219 156 219 156 189 156 c 0,66,67
 166 156 166 156 158 172 c 1,68,-1
 83 0 l 1,69,-1
 31 0 l 1,70,-1
 36 38 l 1,0,-1
210 248 m 0,71,72
 197 248 197 248 187.5 240 c 128,-1,73
 178 232 178 232 176 219 c 256,74,75
 174 206 174 206 180.5 200 c 128,-1,76
 187 194 187 194 199 194 c 256,77,78
 211 194 211 194 220 201.5 c 128,-1,79
 229 209 229 209 231 221 c 0,80,81
 234 233 234 233 228 240.5 c 128,-1,82
 222 248 222 248 210 248 c 0,71,72
EndSplineSet
EndChar
StartChar: uni0E06
Encoding: 3590 3590 274
Width: 426
Flags: W
Fore
62 -4 m 0,0,1
 40 -4 40 -4 26 3.5 c 128,-1,2
 12 11 12 11 4.5 22.5 c 128,-1,3
 -3 34 -3 34 -5 49 c 128,-1,4
 -7 64 -7 64 -4 79 c 0,5,6
 1 105 1 105 21.5 126.5 c 128,-1,7
 42 148 42 148 67 158 c 0,8,9
 75 161 75 161 83.5 162 c 128,-1,10
 92 163 92 163 101 165 c 1,11,12
 103 173 103 173 104 180 c 128,-1,13
 105 187 105 187 109 195 c 0,14,15
 115 206 115 206 125.5 215 c 128,-1,16
 136 224 136 224 148 234.5 c 128,-1,17
 160 245 160 245 173 260 c 128,-1,18
 186 275 186 275 198 297 c 1,19,-1
 198 296 l 1,20,21
 200 301 200 301 203 307.5 c 128,-1,22
 206 314 206 314 208 321 c 0,23,24
 210 331 210 331 207.5 338.5 c 128,-1,25
 205 346 205 346 195 346 c 0,26,27
 188 346 188 346 179.5 342.5 c 128,-1,28
 171 339 171 339 163 335 c 128,-1,29
 155 331 155 331 147 327.5 c 128,-1,30
 139 324 139 324 132 324 c 0,31,32
 124 324 124 324 118.5 328 c 128,-1,33
 113 332 113 332 109 336.5 c 128,-1,34
 105 341 105 341 101 344.5 c 128,-1,35
 97 348 97 348 91 348 c 0,36,37
 76 348 76 348 71 334 c 128,-1,38
 66 320 66 320 64 309 c 1,39,40
 72 313 72 313 79.5 315.5 c 128,-1,41
 87 318 87 318 95 318 c 0,42,43
 117 318 117 318 127.5 303 c 128,-1,44
 138 288 138 288 133 267 c 0,45,46
 128 237 128 237 108 224 c 128,-1,47
 88 211 88 211 65 211 c 0,48,49
 54 211 54 211 43 214.5 c 128,-1,50
 32 218 32 218 24 227 c 128,-1,51
 16 236 16 236 12.5 250.5 c 128,-1,52
 9 265 9 265 13 287 c 0,53,54
 22 331 22 331 41 360.5 c 128,-1,55
 60 390 60 390 81 390 c 0,56,57
 95 390 95 390 103 385 c 128,-1,58
 111 380 111 380 117 374.5 c 128,-1,59
 123 369 123 369 129 364 c 128,-1,60
 135 359 135 359 143 359 c 256,61,62
 151 359 151 359 159.5 363.5 c 128,-1,63
 168 368 168 368 176.5 374 c 128,-1,64
 185 380 185 380 194 384.5 c 128,-1,65
 203 389 203 389 212 389 c 0,66,67
 227 389 227 389 235.5 382 c 128,-1,68
 244 375 244 375 247.5 363.5 c 128,-1,69
 251 352 251 352 251 338.5 c 128,-1,70
 251 325 251 325 248 313 c 0,71,72
 244 289 244 289 228.5 269 c 128,-1,73
 213 249 213 249 196.5 232 c 128,-1,74
 180 215 180 215 166 201 c 128,-1,75
 152 187 152 187 150 175 c 2,76,-1
 147 163 l 1,77,-1
 213 115 l 2,78,79
 239 95 l 0,80,81
 250 87 250 87 262 78 c 128,-1,82
 274 69 274 69 282 61 c 1,83,-1
 345 383 l 1,84,-1
 393 383 l 1,85,-1
 319 0 l 1,86,-1
 272 0 l 1,87,-1
 233 35 l 2,88,89
 216 52 216 52 200.5 65 c 128,-1,90
 185 78 185 78 163 95 c 0,91,92
 148 106 148 106 138 114 c 1,93,-1
 122 31 l 1,94,95
 110 8 110 8 93.5 2 c 128,-1,96
 77 -4 77 -4 62 -4 c 0,0,1
81 286 m 0,97,98
 59 286 59 286 54 264 c 0,99,100
 52 256 52 256 58 249 c 128,-1,101
 64 242 64 242 72 242 c 0,102,103
 82 242 82 242 89.5 248.5 c 128,-1,104
 97 255 97 255 99 265 c 0,105,106
 101 273 101 273 96 279.5 c 128,-1,107
 91 286 91 286 81 286 c 0,97,98
91 123 m 1,108,109
 73 119 73 119 60 107.5 c 128,-1,110
 47 96 47 96 44 78 c 0,111,112
 42 66 42 66 44 52 c 128,-1,113
 46 38 46 38 61 38 c 0,114,115
 72 38 72 38 75.5 47.5 c 128,-1,116
 79 57 79 57 81 68 c 2,117,-1
 91 123 l 1,118,-1
 91 123 l 1,108,109
EndSplineSet
EndChar
StartChar: uni0E07
Encoding: 3591 3591 275
Width: 299
Flags: W
Fore
191 355 m 256,0,1
 177 355 177 355 167.5 347 c 128,-1,2
 158 339 158 339 156 325 c 0,3,4
 153 311 153 311 160.5 302.5 c 128,-1,5
 168 294 168 294 180 294 c 0,6,7
 194 294 194 294 202 303 c 128,-1,8
 210 312 210 312 213 326 c 0,9,10
 215 339 215 339 210 347 c 128,-1,11
 205 355 205 355 191 355 c 256,0,1
196 263 m 1,12,13
 183 258 183 258 172 258 c 0,14,15
 144 258 144 258 125.5 275.5 c 128,-1,16
 107 293 107 293 112 322 c 0,17,18
 118 352 118 352 143 370.5 c 128,-1,19
 168 389 168 389 197 389 c 256,20,21
 226 389 226 389 243 370.5 c 128,-1,22
 260 352 260 352 254 323 c 2,23,-1
 192 0 l 1,24,-1
 114 0 l 1,25,-1
 1 179 l 1,26,-1
 56 179 l 1,27,-1
 151 32 l 1,28,-1
 196 263 l 1,29,-1
 196 263 l 1,12,13
EndSplineSet
EndChar
StartChar: uni0E08
Encoding: 3592 3592 276
Width: 343
Flags: W
Fore
119 141 m 1,0,1
 108 133 108 133 98.5 130.5 c 128,-1,2
 89 128 89 128 77 128 c 0,3,4
 47 128 47 128 30 150 c 128,-1,5
 13 172 13 172 19 202 c 0,6,7
 22 218 22 218 31 229.5 c 128,-1,8
 40 241 40 241 52.5 248.5 c 128,-1,9
 65 256 65 256 79.5 259.5 c 128,-1,10
 94 263 94 263 108 263 c 0,11,12
 128 263 128 263 138.5 256 c 128,-1,13
 149 249 149 249 154.5 237 c 128,-1,14
 160 225 160 225 161 210 c 128,-1,15
 163 180 l 2,16,-1
 169 38 l 1,17,-1
 201 38 l 1,18,19
 213 90 213 90 224.5 141.5 c 128,-1,20
 236 193 236 193 246 245 c 0,21,22
 256 295 256 295 240 322 c 128,-1,23
 224 349 224 349 172 349 c 0,24,25
 127 349 127 349 88 330.5 c 128,-1,26
 49 312 49 312 13 279 c 1,27,-1
 23 332 l 1,28,29
 38 348 38 348 57.5 359 c 128,-1,30
 77 370 77 370 98 376.5 c 128,-1,31
 119 383 119 383 140.5 386 c 128,-1,32
 162 389 162 389 181 389 c 0,33,34
 245 389 245 389 277.5 357 c 128,-1,35
 310 325 310 325 297 258 c 2,36,-1
 294 246 l 1,37,-1
 233 0 l 1,38,-1
 123 0 l 1,39,-1
 119 141 l 1,40,-1
 119 141 l 1,0,1
96 228 m 256,41,42
 82 228 82 228 72.5 220 c 128,-1,43
 63 212 63 212 61 198 c 0,44,45
 58 184 58 184 65.5 175.5 c 128,-1,46
 73 167 73 167 85 167 c 0,47,48
 99 167 99 167 107.5 176 c 128,-1,49
 116 185 116 185 118 199 c 0,50,51
 120 212 120 212 115 220 c 128,-1,52
 110 228 110 228 96 228 c 256,41,42
EndSplineSet
EndChar
StartChar: uni0E09
Encoding: 3593 3593 277
Width: 402
Flags: W
Fore
322 154 m 1,0,1
 319 132 319 132 298 117 c 1,2,3
 319 112 319 112 331.5 96 c 128,-1,4
 344 80 344 80 339 57 c 0,5,6
 333 28 333 28 310 11.5 c 128,-1,7
 287 -5 287 -5 260 -5 c 0,8,9
 234 -5 234 -5 218 9.5 c 128,-1,10
 202 24 202 24 207 51 c 0,11,12
 210 67 210 67 219 80 c 1,13,14
 206 74 206 74 191 65.5 c 128,-1,15
 176 57 176 57 161 46 c 128,-1,16
 146 35 146 35 133 23.5 c 128,-1,17
 120 12 120 12 111 0 c 1,18,-1
 63 0 l 1,19,-1
 86 122 l 1,20,21
 71 116 71 116 56 116 c 0,22,23
 30 116 30 116 13.5 130 c 128,-1,24
 -3 144 -3 144 2 172 c 0,25,26
 8 204 8 204 32 222.5 c 128,-1,27
 56 241 56 241 88 241 c 0,28,29
 126 241 126 241 138 219 c 128,-1,30
 150 197 150 197 143 162 c 2,31,-1
 124 65 l 1,32,33
 141 76 141 76 156 86 c 128,-1,34
 171 96 171 96 189 104 c 0,35,36
 198 108 198 108 212 111.5 c 128,-1,37
 226 115 226 115 239 120 c 128,-1,38
 252 125 252 125 262 132.5 c 128,-1,39
 272 140 272 140 274 152 c 2,40,-1
 294 253 l 2,41,42
 304 304 304 304 281.5 327.5 c 128,-1,43
 259 351 259 351 209 351 c 0,44,45
 185 351 185 351 160.5 344 c 128,-1,46
 136 337 136 337 112 326 c 128,-1,47
 88 315 88 315 65 301.5 c 128,-1,48
 42 288 42 288 21 274 c 1,49,-1
 32 332 l 1,50,51
 50 344 50 344 73 355 c 128,-1,52
 96 366 96 366 120.5 373.5 c 128,-1,53
 145 381 145 381 169 385.5 c 128,-1,54
 193 390 193 390 212 390 c 0,55,56
 232 390 232 390 252 388 c 128,-1,57
 272 386 272 386 289 380 c 128,-1,58
 306 374 306 374 319.5 362.5 c 128,-1,59
 333 351 333 351 340 332 c 0,60,61
 351 302 351 302 345 270 c 2,62,-1
 322 154 l 1,63,-1
 322 154 l 1,0,1
247 55 m 0,64,65
 245 44 245 44 250 36 c 128,-1,66
 255 28 255 28 266 28 c 0,67,68
 278 28 278 28 287 37 c 128,-1,69
 296 46 296 46 298 57 c 0,70,71
 301 82 301 82 279 82 c 0,72,73
 253 82 253 82 247 55 c 0,64,65
78 205 m 0,74,75
 67 205 67 205 57.5 196.5 c 128,-1,76
 48 188 48 188 46 177 c 256,77,78
 44 166 44 166 50 158.5 c 128,-1,79
 56 151 56 151 67 151 c 256,80,81
 78 151 78 151 89 157.5 c 128,-1,82
 100 164 100 164 102 176 c 0,83,84
 104 189 104 189 97.5 197 c 128,-1,85
 91 205 91 205 78 205 c 0,74,75
EndSplineSet
EndChar
StartChar: uni0E0A
Encoding: 3594 3594 278
Width: 386
Flags: W
Fore
408 401 m 1,0,1
 355 340 355 340 289 295 c 1,2,3
 311 284 311 284 319.5 262.5 c 128,-1,4
 328 241 328 241 323 215 c 2,5,-1
 282 0 l 1,6,-1
 63 0 l 1,7,-1
 89 134 l 2,8,9
 94 158 94 158 109.5 178 c 128,-1,10
 125 198 125 198 142.5 217.5 c 128,-1,11
 160 237 160 237 175.5 256.5 c 128,-1,12
 191 276 191 276 195 298 c 0,13,14
 200 323 200 323 184 338 c 128,-1,15
 168 353 168 353 142 353 c 0,16,17
 122 353 122 353 107.5 345 c 128,-1,18
 93 337 93 337 78 322 c 1,19,20
 92 325 92 325 106 325 c 0,21,22
 127 325 127 325 136.5 309 c 128,-1,23
 146 293 146 293 142 273 c 0,24,25
 137 247 137 247 118 232.5 c 128,-1,26
 99 218 99 218 73 218 c 0,27,28
 41 218 41 218 28 237.5 c 128,-1,29
 15 257 15 257 20 288 c 0,30,31
 30 335 30 335 66 362 c 128,-1,32
 102 389 102 389 147 389 c 0,33,34
 171 389 171 389 190 383.5 c 128,-1,35
 209 378 209 378 221 366.5 c 128,-1,36
 233 355 233 355 237.5 337 c 128,-1,37
 242 319 242 319 237 293 c 0,38,39
 233 270 233 270 217.5 249 c 128,-1,40
 202 228 202 228 185 208 c 128,-1,41
 168 188 168 188 153.5 169 c 128,-1,42
 139 150 139 150 135 130 c 2,43,-1
 116 35 l 1,44,-1
 240 35 l 1,45,-1
 274 209 l 2,46,47
 279 235 279 235 271.5 248.5 c 128,-1,48
 264 262 264 262 242 272 c 1,49,-1
 250 311 l 1,50,51
 280 331 280 331 303 352.5 c 128,-1,52
 326 374 326 374 349 401 c 1,53,-1
 408 401 l 1,54,-1
 408 401 l 1,0,1
89 296 m 256,55,56
 78 296 78 296 70 289.5 c 128,-1,57
 62 283 62 283 60 272 c 256,58,59
 58 261 58 261 63.5 254 c 128,-1,60
 69 247 69 247 80 247 c 0,61,62
 88 247 88 247 97 254.5 c 128,-1,63
 106 262 106 262 108 271 c 0,64,65
 110 282 110 282 105 289 c 128,-1,66
 100 296 100 296 89 296 c 256,55,56
EndSplineSet
EndChar
StartChar: uni0E0B
Encoding: 3595 3595 279
Width: 406
Flags: W
Fore
426 400 m 1,0,1
 398 372 398 372 368 345.5 c 128,-1,2
 338 319 338 319 305 299 c 1,3,4
 326 288 326 288 336 265.5 c 128,-1,5
 346 243 346 243 341 217 c 2,6,-1
 299 0 l 1,7,-1
 76 0 l 1,8,-1
 102 137 l 2,9,10
 107 160 107 160 122 180 c 128,-1,11
 137 200 137 200 155 219.5 c 128,-1,12
 173 239 173 239 188.5 259.5 c 128,-1,13
 204 280 204 280 208 303 c 0,14,15
 209 309 209 309 210 316 c 128,-1,16
 211 323 211 323 210.5 330 c 128,-1,17
 210 337 210 337 207 341.5 c 128,-1,18
 204 346 204 346 196 346 c 0,19,20
 190 346 190 346 183 342.5 c 128,-1,21
 176 339 176 339 169.5 334.5 c 128,-1,22
 163 330 163 330 156 326.5 c 128,-1,23
 149 323 149 323 142 323 c 0,24,25
 133 323 133 323 127 327 c 128,-1,26
 121 331 121 331 116.5 335.5 c 128,-1,27
 112 340 112 340 107.5 344 c 128,-1,28
 103 348 103 348 97 348 c 0,29,30
 80 348 80 348 74 335 c 128,-1,31
 68 322 68 322 65 308 c 1,32,33
 83 317 83 317 101 317 c 0,34,35
 122 317 122 317 132.5 302.5 c 128,-1,36
 143 288 143 288 139 268 c 0,37,38
 134 243 134 243 115 228.5 c 128,-1,39
 96 214 96 214 72 214 c 0,40,41
 53 214 53 214 42 221.5 c 128,-1,42
 31 229 31 229 25.5 241 c 128,-1,43
 20 253 20 253 20 268.5 c 128,-1,44
 20 284 20 284 23 300 c 0,45,46
 26 313 26 313 32 328.5 c 128,-1,47
 38 344 38 344 47.5 357.5 c 128,-1,48
 57 371 57 371 69.5 380 c 128,-1,49
 82 389 82 389 98 389 c 0,50,51
 107 389 107 389 113.5 384.5 c 128,-1,52
 120 380 120 380 125.5 375 c 128,-1,53
 131 370 131 370 136 365.5 c 128,-1,54
 141 361 141 361 148 361 c 0,55,56
 154 361 154 361 162 365.5 c 128,-1,57
 170 370 170 370 178 375 c 128,-1,58
 186 380 186 380 195.5 384.5 c 128,-1,59
 205 389 205 389 214 389 c 0,60,61
 232 389 232 389 241 380 c 128,-1,62
 250 371 250 371 253.5 357 c 128,-1,63
 257 343 257 343 256 326.5 c 128,-1,64
 255 310 255 310 252 296 c 0,65,66
 247 272 247 272 232 251.5 c 128,-1,67
 217 231 217 231 200.5 212 c 128,-1,68
 184 193 184 193 169.5 173.5 c 128,-1,69
 155 154 155 154 150 131 c 2,70,-1
 131 36 l 1,71,-1
 258 36 l 1,72,-1
 294 218 l 2,73,74
 299 241 299 241 289 255 c 128,-1,75
 279 269 279 269 259 275 c 1,76,-1
 267 316 l 1,77,78
 293 330 293 330 315.5 351 c 128,-1,79
 338 372 338 372 359 395 c 2,80,-1
 364 400 l 1,81,-1
 426 400 l 1,82,-1
 426 400 l 1,0,1
61 263 m 0,83,84
 59 252 59 252 64.5 247 c 128,-1,85
 70 242 70 242 80 242 c 0,86,87
 91 242 91 242 97 249.5 c 128,-1,88
 103 257 103 257 105 267 c 0,89,90
 107 275 107 275 101.5 281 c 128,-1,91
 96 287 96 287 88 287 c 0,92,93
 66 287 66 287 61 263 c 0,83,84
EndSplineSet
EndChar
StartChar: uni0E0C
Encoding: 3596 3596 280
Width: 564
Flags: W
Fore
215 390 m 0,0,1
 245 390 245 390 272 384 c 128,-1,2
 299 378 299 378 318 365.5 c 128,-1,3
 337 353 337 353 346 333 c 128,-1,4
 355 313 355 313 350 285 c 2,5,-1
 322 141 l 1,6,7
 349 124 349 124 374 106.5 c 128,-1,8
 399 89 399 89 425 70 c 1,9,-1
 486 382 l 1,10,-1
 531 382 l 1,11,-1
 457 0 l 1,12,-1
 421 0 l 1,13,14
 417 13 417 13 404 27.5 c 128,-1,15
 391 42 391 42 375 55 c 128,-1,16
 359 68 359 68 342 79 c 128,-1,17
 325 90 325 90 313 97 c 1,18,-1
 307 65 l 2,19,20
 304 49 304 49 300 36.5 c 128,-1,21
 296 24 296 24 287.5 15 c 128,-1,22
 279 6 279 6 265.5 1.5 c 128,-1,23
 252 -3 252 -3 230 -3 c 0,24,25
 166 -3 166 -3 180 62 c 0,26,27
 183 79 183 79 193 92.5 c 128,-1,28
 203 106 203 106 216.5 116 c 128,-1,29
 230 126 230 126 246 132.5 c 128,-1,30
 262 139 262 139 277 143 c 1,31,-1
 300 262 l 2,32,33
 303 275 303 275 304.5 288 c 128,-1,34
 306 301 306 301 301 312 c 0,35,36
 283 355 283 355 209 355 c 0,37,38
 192 355 192 355 171 350.5 c 128,-1,39
 150 346 150 346 131 338 c 128,-1,40
 112 330 112 330 96.5 320.5 c 128,-1,41
 81 311 81 311 74 300 c 1,42,-1
 150 300 l 1,43,-1
 144 268 l 1,44,45
 129 265 129 265 115.5 251.5 c 128,-1,46
 102 238 102 238 99 223 c 2,47,-1
 79 120 l 1,48,49
 94 128 94 128 112 128 c 0,50,51
 142 128 142 128 155 108.5 c 128,-1,52
 168 89 168 89 162 60 c 0,53,54
 156 29 156 29 132 13 c 128,-1,55
 108 -3 108 -3 79 -3 c 0,56,57
 65 -3 65 -3 54 3 c 0,58,59
 32 17 32 17 26 33.5 c 128,-1,60
 20 50 20 50 26 79 c 2,61,-1
 53 220 l 2,62,63
 55 231 55 231 58 237.5 c 128,-1,64
 61 244 61 244 65 248.5 c 128,-1,65
 69 253 69 253 75 258 c 128,-1,66
 81 263 81 263 90 270 c 1,67,-1
 21 270 l 1,68,-1
 29 311 l 1,69,-1
 44 327 l 2,70,71
 63 345 63 345 89 359 c 0,72,73
 111 371 111 371 142.5 380.5 c 128,-1,74
 174 390 174 390 215 390 c 0,0,1
240 25 m 0,75,76
 246 25 246 25 253 29 c 128,-1,77
 260 33 260 33 261 40 c 2,78,-1
 275 110 l 1,79,80
 255 108 255 108 238.5 95 c 128,-1,81
 222 82 222 82 218 62 c 0,82,83
 215 47 215 47 219 36 c 128,-1,84
 223 25 223 25 240 25 c 0,75,76
101 91 m 0,85,86
 88 91 88 91 77.5 82 c 128,-1,87
 67 73 67 73 65 60 c 0,88,89
 63 48 63 48 70.5 39.5 c 128,-1,90
 78 31 78 31 90 31 c 0,91,92
 104 31 104 31 113 39.5 c 128,-1,93
 122 48 122 48 125 62 c 0,94,95
 130 91 130 91 101 91 c 0,85,86
EndSplineSet
EndChar
StartChar: uni0E0D
Encoding: 3597 3597 281
Width: 560
Flags: W
Fore
86 315 m 0,0,1
 83 313 83 313 79 310 c 0,2,3
 71 304 71 304 69 301 c 1,4,-1
 150 301 l 1,5,-1
 143 265 l 1,6,7
 124 258 124 258 109 242.5 c 128,-1,8
 94 227 94 227 90 208 c 2,9,-1
 72 117 l 1,10,11
 83 122 83 122 93 125.5 c 128,-1,12
 103 129 103 129 115 129 c 0,13,14
 139 129 139 129 152.5 111 c 128,-1,15
 166 93 166 93 161 70 c 0,16,17
 154 35 154 35 131.5 16.5 c 128,-1,18
 109 -2 109 -2 74 -2 c 0,19,20
 43 -2 43 -2 26 20 c 128,-1,21
 9 42 9 42 14 72 c 2,22,-1
 40 204 l 2,23,24
 42 215 42 215 53.5 233.5 c 128,-1,25
 65 252 65 252 88 267 c 1,26,-1
 20 267 l 1,27,-1
 32 325 l 1,28,29
 73 352 73 352 115.5 370.5 c 128,-1,30
 158 389 158 389 209 389 c 0,31,32
 275 389 275 389 307.5 358.5 c 128,-1,33
 340 328 340 328 326 259 c 2,34,-1
 283 37 l 1,35,-1
 412 37 l 1,36,-1
 479 381 l 1,37,-1
 527 381 l 1,38,-1
 453 0 l 1,39,-1
 228 0 l 1,40,-1
 277 253 l 2,41,42
 286 300 286 300 267.5 324.5 c 128,-1,43
 249 349 249 349 196 349 c 0,44,45
 169 349 169 349 148.5 344 c 128,-1,46
 128 339 128 339 114 332 c 0,47,48
 97 324 97 324 86 315 c 0,0,1
270 -162 m 0,49,50
 255 -162 255 -162 240.5 -157.5 c 128,-1,51
 226 -153 226 -153 215 -144.5 c 128,-1,52
 204 -136 204 -136 198 -123.5 c 128,-1,53
 192 -111 192 -111 195 -94 c 0,54,55
 200 -67 200 -67 222.5 -48.5 c 128,-1,56
 245 -30 245 -30 272 -30 c 0,57,58
 296 -30 296 -30 311.5 -43.5 c 128,-1,59
 327 -57 327 -57 322 -83 c 0,60,61
 318 -106 318 -106 300 -123 c 1,62,-1
 303 -123 l 2,63,64
 326 -123 326 -123 350.5 -113.5 c 128,-1,65
 375 -104 375 -104 385 -79 c 0,66,67
 387 -75 387 -75 387.5 -70.5 c 128,-1,68
 388 -66 388 -66 390 -61 c 1,69,-1
 393 -43 l 1,70,-1
 442 -43 l 1,71,-1
 439 -59 l 2,72,73
 433 -90 433 -90 415.5 -110 c 128,-1,74
 398 -130 398 -130 374 -141.5 c 128,-1,75
 350 -153 350 -153 322.5 -157.5 c 128,-1,76
 295 -162 295 -162 270 -162 c 0,49,50
236 -92 m 256,77,78
 234 -103 234 -103 239.5 -110.5 c 128,-1,79
 245 -118 245 -118 256 -118 c 256,80,81
 267 -118 267 -118 274.5 -109.5 c 128,-1,82
 282 -101 282 -101 284 -90 c 256,83,84
 286 -79 286 -79 282 -72 c 128,-1,85
 278 -65 278 -65 267 -65 c 0,86,87
 254 -65 254 -65 246 -73 c 128,-1,88
 238 -81 238 -81 236 -92 c 256,77,78
95 91 m 0,89,90
 82 91 82 91 71.5 82 c 128,-1,91
 61 73 61 73 59 60 c 0,92,93
 57 48 57 48 64.5 39.5 c 128,-1,94
 72 31 72 31 84 31 c 0,95,96
 98 31 98 31 107 39.5 c 128,-1,97
 116 48 116 48 119 62 c 0,98,99
 124 91 124 91 95 91 c 0,89,90
EndSplineSet
Substitution: 0 65534 'L019' uni0E0D.alt1
Substitution: 0 65534 'L019' uni0E0D.alt1
EndChar
StartChar: uni0E0E
Encoding: 3598 3598 282
Width: 445
Flags: W
Fore
-30 64 m 0,0,1
 -25 86 -25 86 -7.5 106.5 c 128,-1,2
 10 127 10 127 49 127 c 0,3,4
 60 127 60 127 65 124 c 128,-1,5
 75 118 l 1,6,-1
 94 212 l 2,7,8
 96 224 96 224 99.5 231.5 c 128,-1,9
 103 239 103 239 108 245 c 128,-1,10
 113 251 113 251 119.5 256.5 c 128,-1,11
 126 262 126 262 135 270 c 1,12,-1
 67 270 l 1,13,-1
 76 317 l 1,14,15
 96 334 96 334 115 347.5 c 128,-1,16
 134 361 134 361 154 370 c 128,-1,17
 174 379 174 379 197.5 384 c 128,-1,18
 221 389 221 389 251 389 c 0,19,20
 306 389 306 389 336 376 c 128,-1,21
 366 363 366 363 378.5 343 c 128,-1,22
 391 323 391 323 391.5 299 c 128,-1,23
 392 275 392 275 387 252 c 2,24,-1
 306 -165 l 1,25,-1
 258 -165 l 1,26,27
 238 -151 238 -151 216 -138.5 c 128,-1,28
 194 -126 194 -126 174 -112 c 1,29,30
 159 -144 159 -144 136 -157 c 128,-1,31
 113 -170 113 -170 81 -170 c 0,32,33
 68 -170 68 -170 55 -167 c 128,-1,34
 42 -164 42 -164 32 -157 c 128,-1,35
 22 -150 22 -150 17.5 -139 c 128,-1,36
 13 -128 13 -128 16 -112 c 0,37,38
 22 -80 22 -80 49.5 -63 c 128,-1,39
 77 -46 77 -46 106 -46 c 0,40,41
 120 -46 120 -46 128 -48 c 128,-1,42
 136 -50 136 -50 147 -55 c 1,43,-1
 155 -14 l 1,44,-1
 199 -14 l 1,45,-1
 188 -70 l 1,46,-1
 218 -88 l 2,47,48
 231 -96 231 -96 242.5 -103.5 c 128,-1,49
 254 -111 254 -111 268 -118 c 1,50,-1
 338 242 l 2,51,52
 350 304 350 304 325 328 c 128,-1,53
 300 352 300 352 245 352 c 0,54,55
 211 352 211 352 189 345.5 c 128,-1,56
 167 339 167 339 153 331 c 0,57,58
 148 329 148 329 147 328.5 c 128,-1,59
 146 328 146 328 139 323 c 0,60,61
 126 316 126 316 115 305 c 1,62,-1
 196 305 l 1,63,-1
 189 269 l 1,64,65
 182 265 182 265 175 260.5 c 128,-1,66
 168 256 168 256 161 251 c 0,67,68
 151 243 151 243 146 225.5 c 128,-1,69
 141 208 141 208 139 197 c 2,70,-1
 114 72 l 2,71,72
 109 51 109 51 98 35 c 0,73,74
 89 21 89 21 73.5 9.5 c 128,-1,75
 58 -2 58 -2 32 -2 c 2,76,-1
 29 -2 l 2,77,78
 -1 -2 -1 -2 -18.5 15 c 128,-1,79
 -36 32 -36 32 -30 64 c 0,0,1
92 -83 m 0,80,81
 81 -83 81 -83 71.5 -91 c 128,-1,82
 62 -99 62 -99 60 -110 c 256,83,84
 58 -121 58 -121 69.5 -127.5 c 128,-1,85
 81 -134 81 -134 90 -134 c 0,86,87
 104 -134 104 -134 119 -125.5 c 128,-1,88
 134 -117 134 -117 137 -102 c 2,89,-1
 138 -96 l 1,90,91
 130 -91 130 -91 116 -87 c 128,-1,92
 102 -83 102 -83 92 -83 c 0,80,81
44 92 m 0,93,94
 31 92 31 92 21 83 c 128,-1,95
 11 74 11 74 8 61 c 0,96,97
 6 49 6 49 13.5 40.5 c 128,-1,98
 21 32 21 32 33 32 c 0,99,100
 47 32 47 32 56 40.5 c 128,-1,101
 65 49 65 49 68 63 c 0,102,103
 73 92 73 92 44 92 c 0,93,94
EndSplineSet
Substitution: 0 65534 'L019' uni0E0E.alt1
Substitution: 0 65534 'L019' uni0E0E.alt1
EndChar
StartChar: uni0E0F
Encoding: 3599 3599 283
Width: 444
Flags: W
Fore
32 -52 m 0,0,1
 50 -52 50 -52 62 -54 c 128,-1,2
 74 -56 74 -56 82.5 -59 c 128,-1,3
 91 -62 91 -62 96 -65 c 128,-1,4
 106 -71 l 1,5,-1
 115 -22 l 1,6,-1
 162 -22 l 1,7,8
 158 -39 158 -39 153.5 -60 c 128,-1,9
 149 -81 149 -81 139 -96 c 1,10,11
 145 -107 145 -107 154 -117 c 1,12,-1
 221 -66 l 1,13,-1
 265 -117 l 1,14,-1
 337 257 l 2,15,16
 343 284 343 284 337 302.5 c 128,-1,17
 331 321 331 321 317.5 332.5 c 128,-1,18
 304 344 304 344 283.5 348.5 c 128,-1,19
 263 353 263 353 239 353 c 0,20,21
 204 353 204 353 172.5 342.5 c 128,-1,22
 141 332 141 332 113 305 c 1,23,-1
 194 305 l 1,24,-1
 187 271 l 1,25,26
 175 263 175 263 166 254 c 2,27,-1
 164 252 l 1,28,-1
 163 251 l 2,29,30
 143 233 143 233 140 211 c 2,31,-1
 115 85 l 2,32,33
 112 70 112 70 106.5 54.5 c 128,-1,34
 101 39 101 39 91.5 26.5 c 128,-1,35
 82 14 82 14 67.5 6 c 128,-1,36
 53 -2 53 -2 31 -2 c 0,37,38
 8 -2 8 -2 -5 5 c 128,-1,39
 -18 12 -18 12 -24 22.5 c 128,-1,40
 -30 33 -30 33 -31 44.5 c 128,-1,41
 -32 56 -32 56 -30 66 c 0,42,43
 -25 89 -25 89 -7 109.5 c 128,-1,44
 11 130 11 130 38 130 c 0,45,46
 49 130 49 130 55.5 128 c 128,-1,47
 62 126 62 126 66 124 c 0,48,49
 70 121 70 121 73 117 c 1,50,-1
 90 202 l 2,51,52
 92 214 92 214 96.5 227 c 128,-1,53
 101 240 101 240 111 251 c 0,54,55
 113 253 113 253 122 260.5 c 128,-1,56
 131 268 131 268 132 269 c 1,57,-1
 66 269 l 1,58,-1
 76 323 l 1,59,60
 92 340 92 340 113 352.5 c 128,-1,61
 134 365 134 365 157.5 373.5 c 128,-1,62
 181 382 181 382 204 386 c 128,-1,63
 227 390 227 390 248 390 c 0,64,65
 276 390 276 390 303 384.5 c 128,-1,66
 330 379 330 379 351 365.5 c 128,-1,67
 372 352 372 352 384 331 c 128,-1,68
 396 310 396 310 393 278 c 0,69,70
 391 263 391 263 388.5 248 c 128,-1,71
 386 233 386 233 383 219 c 2,72,-1
 309 -164 l 1,73,-1
 250 -164 l 1,74,-1
 209 -119 l 1,75,-1
 154 -164 l 1,76,-1
 131 -164 l 1,77,-1
 111 -133 l 1,78,79
 98 -144 98 -144 88 -151 c 128,-1,80
 78 -158 78 -158 69 -162 c 128,-1,81
 60 -166 60 -166 49 -167.5 c 128,-1,82
 38 -169 38 -169 22 -169 c 0,83,84
 -4 -169 -4 -169 -25 -153 c 128,-1,85
 -46 -137 -46 -137 -41 -109 c 0,86,87
 -40 -101 -40 -101 -33.5 -91 c 128,-1,88
 -27 -81 -27 -81 -17.5 -72.5 c 128,-1,89
 -8 -64 -8 -64 4.5 -58 c 128,-1,90
 17 -52 17 -52 32 -52 c 0,0,1
88 -108 m 1,91,92
 79 -100 79 -100 63.5 -94 c 128,-1,93
 48 -88 48 -88 35 -88 c 0,94,95
 25 -88 25 -88 16 -95 c 128,-1,96
 7 -102 7 -102 5 -112 c 0,97,98
 4 -117 4 -117 7 -121 c 128,-1,99
 10 -125 10 -125 15 -127.5 c 128,-1,100
 20 -130 20 -130 26 -131.5 c 128,-1,101
 32 -133 32 -133 36 -133 c 0,102,103
 52 -133 52 -133 63.5 -126 c 128,-1,104
 75 -119 75 -119 88 -108 c 1,91,92
44 92 m 0,105,106
 31 92 31 92 21 83 c 128,-1,107
 11 74 11 74 8 61 c 0,108,109
 6 49 6 49 13.5 40.5 c 128,-1,110
 21 32 21 32 33 32 c 0,111,112
 47 32 47 32 56 40.5 c 128,-1,113
 65 49 65 49 68 63 c 0,114,115
 73 92 73 92 44 92 c 0,105,106
EndSplineSet
Substitution: 0 65534 'L019' uni0E0F.alt1
Substitution: 0 65534 'L019' uni0E0F.alt1
EndChar
StartChar: uni0E10
Encoding: 3600 3600 284
Width: 374
Flags: W
Fore
304 167 m 0,0,1
 302 163 302 163 292.5 137 c 128,-1,2
 283 111 283 111 272 80 c 0,3,4
 259 44 259 44 243 0 c 1,5,-1
 166 0 l 1,6,-1
 136 131 l 1,7,8
 126 121 126 121 113.5 116 c 128,-1,9
 101 111 101 111 89 111 c 0,10,11
 62 111 62 111 45 127.5 c 128,-1,12
 28 144 28 144 33 173 c 0,13,14
 39 205 39 205 64.5 220 c 128,-1,15
 90 235 90 235 119 235 c 0,16,17
 133 235 133 235 142 229 c 128,-1,18
 151 223 151 223 157.5 213.5 c 128,-1,19
 164 204 164 204 168 192.5 c 128,-1,20
 172 181 172 181 175 170 c 2,21,-1
 205 41 l 1,22,-1
 213 41 l 1,23,24
 220 64 220 64 227 82 c 0,25,26
 233 98 233 98 239 113 c 128,-1,27
 245 128 245 128 247 134 c 0,28,29
 259 166 259 166 265 191 c 0,30,31
 268 208 268 208 266 221.5 c 128,-1,32
 264 235 264 235 255 243 c 256,33,34
 246 251 246 251 230.5 255 c 128,-1,35
 215 259 215 259 197 260.5 c 128,-1,36
 179 262 179 262 161 262.5 c 128,-1,37
 143 263 143 263 130 263 c 0,38,39
 118 263 118 263 106 262 c 128,-1,40
 94 261 94 261 82 259 c 0,41,42
 79 258 79 258 73 258 c 2,43,-1
 20 258 l 1,44,45
 28 277 28 277 42 298.5 c 128,-1,46
 56 320 56 320 73.5 339 c 128,-1,47
 91 358 91 358 111.5 371.5 c 128,-1,48
 132 385 132 385 154 388 c 0,49,50
 159 389 159 389 165 389 c 128,-1,51
 171 389 171 389 176 389 c 0,52,53
 193 389 193 389 208 384 c 128,-1,54
 223 379 223 379 237 373 c 128,-1,55
 251 367 251 367 265.5 362 c 128,-1,56
 280 357 280 357 297 357 c 0,57,58
 316 357 316 357 331 361.5 c 128,-1,59
 346 366 346 366 364 374 c 1,60,-1
 354 319 l 1,61,62
 347 315 347 315 334.5 314.5 c 128,-1,63
 322 314 322 314 314 314 c 0,64,65
 293 314 293 314 274 319 c 128,-1,66
 255 324 255 324 237.5 330.5 c 128,-1,67
 220 337 220 337 202.5 342 c 128,-1,68
 185 347 185 347 165 347 c 0,69,70
 140 347 140 347 122.5 334 c 128,-1,71
 105 321 105 321 90 301 c 1,72,-1
 141 301 l 2,73,74
 160 301 160 301 187 300 c 128,-1,75
 214 299 214 299 240 293.5 c 128,-1,76
 266 288 266 288 286 277.5 c 128,-1,77
 306 267 306 267 312 248 c 0,78,79
 315 240 315 240 316 228.5 c 128,-1,80
 317 217 317 217 313 200 c 0,81,82
 312 193 312 193 309.5 185 c 128,-1,83
 307 177 307 177 304 167 c 0,0,1
116 -168 m 1,84,-1
 93 -139 l 1,85,-1
 56 -171 l 1,86,-1
 37 -139 l 1,87,88
 25 -149 25 -149 11 -159.5 c 128,-1,89
 -3 -170 -3 -170 -19 -170 c 0,90,91
 -51 -170 -51 -170 -66 -156 c 128,-1,92
 -81 -142 -81 -142 -74 -107 c 0,93,94
 -69 -84 -69 -84 -47.5 -69.5 c 128,-1,95
 -26 -55 -26 -55 -5 -55 c 0,96,97
 8 -55 8 -55 18.5 -61 c 128,-1,98
 29 -67 29 -67 37 -75 c 1,99,-1
 44 -27 l 1,100,-1
 93 -27 l 1,101,-1
 91 -45 l 2,102,103
 89 -55 89 -55 82 -72 c 128,-1,104
 75 -89 75 -89 69 -98 c 1,105,-1
 80 -112 l 1,106,-1
 108 -85 l 1,107,-1
 144 -129 l 2,108,109
 150 -137 150 -137 159 -137 c 0,110,111
 167 -137 167 -137 176 -134.5 c 128,-1,112
 185 -132 185 -132 190 -122 c 1,113,-1
 190 -116 l 1,114,115
 167 -116 167 -116 152.5 -105 c 128,-1,116
 138 -94 138 -94 143 -69 c 0,117,118
 148 -47 148 -47 164 -36.5 c 128,-1,119
 180 -26 180 -26 200 -26 c 256,120,121
 220 -26 220 -26 232.5 -38 c 128,-1,122
 245 -50 245 -50 241 -72 c 2,123,-1
 230 -127 l 2,124,125
 225 -150 225 -150 209.5 -159 c 128,-1,126
 194 -168 194 -168 173 -168 c 2,127,-1
 116 -168 l 1,84,-1
191 -88 m 0,128,129
 198 -88 198 -88 202 -83 c 128,-1,130
 206 -78 206 -78 208 -71 c 1,131,132
 210 -55 210 -55 196 -55 c 0,133,134
 190 -55 190 -55 185 -59.5 c 128,-1,135
 180 -64 180 -64 179 -72 c 0,136,137
 176 -88 176 -88 191 -88 c 0,128,129
-16 -134 m 0,138,139
 -4 -134 -4 -134 4.5 -128 c 128,-1,140
 13 -122 13 -122 15 -115 c 1,141,142
 10 -106 10 -106 6.5 -99.5 c 128,-1,143
 3 -93 3 -93 -10 -93 c 0,144,145
 -20 -93 -20 -93 -28.5 -98.5 c 128,-1,146
 -37 -104 -37 -104 -39 -113 c 256,147,148
 -41 -122 -41 -122 -35.5 -128 c 128,-1,149
 -30 -134 -30 -134 -16 -134 c 0,138,139
105 202 m 256,150,151
 91 202 91 202 81.5 194 c 128,-1,152
 72 186 72 186 70 172 c 0,153,154
 67 158 67 158 74.5 149.5 c 128,-1,155
 82 141 82 141 94 141 c 0,156,157
 108 141 108 141 116.5 150 c 128,-1,158
 125 159 125 159 127 173 c 0,159,160
 129 186 129 186 124 194 c 128,-1,161
 119 202 119 202 105 202 c 256,150,151
EndSplineSet
Substitution: 0 65534 'L019' uni0E10.alt1
Substitution: 0 65534 'L019' uni0E10.alt1
EndChar
StartChar: uni0E11
Encoding: 3601 3601 285
Width: 494
Flags: W
Fore
259 267 m 2,0,1
 271 288 271 288 283.5 309.5 c 128,-1,2
 296 331 296 331 310 348 c 128,-1,3
 324 365 324 365 340.5 375.5 c 128,-1,4
 357 386 357 386 379 386 c 0,5,6
 396 386 396 386 410 382.5 c 128,-1,7
 424 379 424 379 434 371 c 128,-1,8
 444 363 444 363 448 350 c 128,-1,9
 452 337 452 337 448 317 c 2,10,-1
 387 0 l 1,11,-1
 340 0 l 1,12,-1
 399 308 l 2,13,14
 403 325 403 325 399.5 339 c 128,-1,15
 396 353 396 353 374 353 c 0,16,17
 364 353 364 353 353.5 345 c 128,-1,18
 343 337 343 337 334 325 c 128,-1,19
 325 313 325 313 317.5 300 c 128,-1,20
 310 287 310 287 305 277 c 0,21,22
 304 275 304 275 303 273.5 c 128,-1,23
 302 272 302 272 301 270 c 2,24,-1
 156 17 l 2,25,26
 154 13 154 13 152.5 10 c 128,-1,27
 151 7 151 7 149 0 c 1,28,-1
 92 0 l 1,29,-1
 122 157 l 2,30,31
 125 173 125 173 139 194.5 c 128,-1,32
 153 216 153 216 169.5 238.5 c 128,-1,33
 186 261 186 261 200 284 c 128,-1,34
 214 307 214 307 218 326 c 0,35,36
 220 340 220 340 217 345.5 c 128,-1,37
 214 351 214 351 202 351 c 0,38,39
 194 351 194 351 185.5 347 c 128,-1,40
 177 343 177 343 169 338 c 128,-1,41
 161 333 161 333 152.5 329 c 128,-1,42
 144 325 144 325 135 325 c 0,43,44
 128 325 128 325 122.5 329 c 128,-1,45
 117 333 117 333 111.5 337.5 c 128,-1,46
 106 342 106 342 101 346 c 128,-1,47
 96 350 96 350 90 350 c 0,48,49
 82 350 82 350 77.5 339 c 128,-1,50
 73 328 73 328 71 318 c 2,51,-1
 68 298 l 1,52,53
 83 310 83 310 104 310 c 256,54,55
 125 310 125 310 135 295.5 c 128,-1,56
 145 281 145 281 141 261 c 0,57,58
 136 238 136 238 118.5 221.5 c 128,-1,59
 101 205 101 205 77 205 c 0,60,61
 54 205 54 205 42 216.5 c 128,-1,62
 30 228 30 228 25.5 246 c 128,-1,63
 21 264 21 264 22.5 284.5 c 128,-1,64
 24 305 24 305 27 323 c 0,65,66
 32 348 32 348 47.5 368.5 c 128,-1,67
 63 389 63 389 91 389 c 0,68,69
 97 389 97 389 103.5 385 c 128,-1,70
 110 381 110 381 116.5 375.5 c 128,-1,71
 123 370 123 370 129.5 366 c 128,-1,72
 136 362 136 362 143 362 c 256,73,74
 150 362 150 362 157.5 366 c 128,-1,75
 165 370 165 370 173.5 375.5 c 128,-1,76
 182 381 182 381 191 385 c 128,-1,77
 200 389 200 389 209 389 c 0,78,79
 234 389 234 389 251.5 375.5 c 128,-1,80
 269 362 269 362 264 335 c 0,81,82
 261 322 261 322 250 300.5 c 128,-1,83
 239 279 239 279 225.5 258 c 128,-1,84
 212 237 212 237 201 220 c 128,-1,85
 190 203 190 203 187 200 c 0,86,87
 181 192 181 192 177 184 c 128,-1,88
 173 176 173 176 171 168 c 0,89,90
 168 159 168 159 166 151 c 2,91,-1
 151 76 l 1,92,-1
 259 267 l 2,0,1
94 280 m 0,93,94
 73 280 73 280 70 259 c 0,95,96
 68 250 68 250 71.5 242 c 128,-1,97
 75 234 75 234 86 234 c 0,98,99
 94 234 94 234 100 242 c 128,-1,100
 106 250 106 250 108 258 c 0,101,102
 111 280 111 280 94 280 c 0,93,94
EndSplineSet
EndChar
StartChar: uni0E12
Encoding: 3602 3602 286
Width: 562
Flags: W
Fore
317 265 m 1,0,1
 319 275 319 275 320 289 c 128,-1,2
 321 303 321 303 319 315.5 c 128,-1,3
 317 328 317 328 310.5 336.5 c 128,-1,4
 304 345 304 345 290 345 c 0,5,6
 283 345 283 345 274.5 340.5 c 128,-1,7
 266 336 266 336 256.5 330 c 128,-1,8
 247 324 247 324 237 319.5 c 128,-1,9
 227 315 227 315 217 315 c 0,10,11
 206 315 206 315 195.5 320 c 128,-1,12
 185 325 185 325 176 331 c 128,-1,13
 167 337 167 337 159.5 342 c 128,-1,14
 152 347 152 347 146 347 c 0,15,16
 130 347 130 347 116.5 335 c 128,-1,17
 103 323 103 323 92 306 c 128,-1,18
 81 289 81 289 74 270.5 c 128,-1,19
 67 252 67 252 64 240 c 0,20,21
 59 217 59 217 62 194.5 c 128,-1,22
 65 172 65 172 68 150 c 0,23,24
 70 124 70 124 72 98.5 c 128,-1,25
 74 73 74 73 76 47 c 1,26,-1
 172 155 l 1,27,28
 145 155 145 155 130 172.5 c 128,-1,29
 115 190 115 190 120 217 c 0,30,31
 123 232 123 232 131.5 243.5 c 128,-1,32
 140 255 140 255 152 263 c 128,-1,33
 164 271 164 271 178 275.5 c 128,-1,34
 192 280 192 280 205 280 c 0,35,36
 231 280 231 280 250 267.5 c 128,-1,37
 269 255 269 255 263 226 c 0,38,39
 258 201 258 201 239 177.5 c 128,-1,40
 220 154 220 154 203 134 c 2,41,-1
 91 0 l 1,42,-1
 28 0 l 1,43,44
 28 27 28 27 28 54.5 c 128,-1,45
 28 82 28 82 23 108 c 2,46,-1
 21 123 l 2,47,48
 16 153 16 153 14 185.5 c 128,-1,49
 12 218 12 218 18 248 c 0,50,51
 21 265 21 265 33.5 289 c 128,-1,52
 46 313 46 313 64.5 335.5 c 128,-1,53
 83 358 83 358 104.5 373.5 c 128,-1,54
 126 389 126 389 147 389 c 0,55,56
 156 389 156 389 166.5 383.5 c 128,-1,57
 177 378 177 378 187.5 371 c 128,-1,58
 198 364 198 364 207 358.5 c 128,-1,59
 216 353 216 353 223 353 c 256,60,61
 230 353 230 353 241 359 c 128,-1,62
 252 365 252 365 263 372 c 0,63,64
 275 380 275 380 289 390 c 1,65,66
 296 389 296 389 303 387 c 0,67,68
 309 385 309 385 314.5 383.5 c 128,-1,69
 320 382 320 382 324 380 c 0,70,71
 360 361 360 361 366.5 333.5 c 128,-1,72
 373 306 373 306 365 264 c 2,73,-1
 339 129 l 1,74,75
 359 112 359 112 378.5 94 c 128,-1,76
 398 76 398 76 418 57 c 1,77,-1
 481 382 l 1,78,-1
 529 382 l 1,79,-1
 455 0 l 1,80,-1
 409 0 l 1,81,-1
 328 80 l 1,82,-1
 325 63 l 2,83,84
 319 34 319 34 307 14 c 128,-1,85
 295 -6 295 -6 259 -7 c 2,86,-1
 257 -7 l 2,87,88
 222 -7 222 -7 207.5 12 c 128,-1,89
 193 31 193 31 198 58 c 0,90,91
 200 67 200 67 205.5 79 c 128,-1,92
 211 91 211 91 222.5 102.5 c 128,-1,93
 234 114 234 114 251 123 c 128,-1,94
 268 132 268 132 292 136 c 1,95,-1
 317 265 l 1,96,-1
 317 265 l 1,0,1
284 95 m 1,97,98
 248 90 248 90 240 56 c 0,99,100
 238 47 238 47 244 36.5 c 128,-1,101
 250 26 250 26 260 26 c 0,102,103
 271 26 271 26 272 36 c 2,104,-1
 284 95 l 1,105,-1
 284 95 l 1,97,98
163 217 m 256,106,107
 161 205 161 205 167.5 196.5 c 128,-1,108
 174 188 174 188 186 188 c 256,109,110
 198 188 198 188 208.5 196.5 c 128,-1,111
 219 205 219 205 221 217 c 256,112,113
 223 229 223 229 216 237.5 c 128,-1,114
 209 246 209 246 197 246 c 256,115,116
 185 246 185 246 175 237.5 c 128,-1,117
 165 229 165 229 163 217 c 256,106,107
EndSplineSet
EndChar
StartChar: uni0E13
Encoding: 3603 3603 287
Width: 549
Flags: W
Fore
134 270 m 1,0,1
 117 261 117 261 102 244.5 c 128,-1,2
 87 228 87 228 83 209 c 2,3,-1
 64 112 l 1,4,5
 71 118 71 118 82.5 121.5 c 128,-1,6
 94 125 94 125 102 125 c 0,7,8
 132 125 132 125 146 108 c 128,-1,9
 160 91 160 91 154 61 c 0,10,11
 147 26 147 26 124 11.5 c 128,-1,12
 101 -3 101 -3 69 -3 c 0,13,14
 43 -3 43 -3 22 14 c 128,-1,15
 1 31 1 31 6 59 c 2,16,-1
 35 206 l 2,17,18
 40 232 40 232 50.5 245 c 128,-1,19
 61 258 61 258 85 270 c 1,20,-1
 15 270 l 1,21,-1
 26 325 l 1,22,23
 35 333 35 333 44.5 338.5 c 128,-1,24
 54 344 54 344 64 349 c 0,25,26
 100 369 100 369 132 379.5 c 128,-1,27
 164 390 164 390 202 390 c 0,28,29
 233 390 233 390 258.5 384 c 128,-1,30
 284 378 284 378 301.5 364.5 c 128,-1,31
 319 351 319 351 326 328.5 c 128,-1,32
 333 306 333 306 327 274 c 2,33,-1
 288 73 l 1,34,35
 314 87 314 87 342 96 c 128,-1,36
 370 105 370 105 397 119 c 0,37,38
 411 127 411 127 416.5 136 c 128,-1,39
 422 145 422 145 424 159 c 2,40,-1
 468 382 l 1,41,-1
 516 382 l 1,42,-1
 469 140 l 2,43,44
 467 132 467 132 460.5 126 c 128,-1,45
 454 120 454 120 448 115 c 1,46,47
 467 108 467 108 478 94 c 128,-1,48
 489 80 489 80 485 57 c 0,49,50
 479 29 479 29 458.5 12.5 c 128,-1,51
 438 -4 438 -4 412 -4 c 256,52,53
 386 -4 386 -4 370.5 12 c 128,-1,54
 355 28 355 28 360 54 c 0,55,56
 361 58 361 58 362 61 c 128,-1,57
 363 64 363 64 365 68 c 1,58,59
 349 59 349 59 336.5 54.5 c 128,-1,60
 324 50 324 50 312.5 44.5 c 128,-1,61
 301 39 301 39 290.5 29.5 c 128,-1,62
 280 20 280 20 268 0 c 1,63,-1
 226 0 l 1,64,-1
 275 255 l 2,65,66
 285 307 285 307 265.5 329.5 c 128,-1,67
 246 352 246 352 196 352 c 0,68,69
 161 352 161 352 125.5 341 c 128,-1,70
 90 330 90 330 61 303 c 1,71,-1
 140 303 l 1,72,-1
 134 270 l 1,73,-1
 134 270 l 1,0,1
399 53 m 0,74,75
 397 43 397 43 402 35.5 c 128,-1,76
 407 28 407 28 419 28 c 0,77,78
 430 28 430 28 436.5 35.5 c 128,-1,79
 443 43 443 43 445 54 c 0,80,81
 447 64 447 64 442 72 c 128,-1,82
 437 80 437 80 426 80 c 0,83,84
 413 80 413 80 407 72.5 c 128,-1,85
 401 65 401 65 399 53 c 0,74,75
91 88 m 0,86,87
 78 88 78 88 67.5 78.5 c 128,-1,88
 57 69 57 69 55 57 c 0,89,90
 52 45 52 45 59.5 36.5 c 128,-1,91
 67 28 67 28 79 28 c 0,92,93
 93 28 93 28 102.5 37 c 128,-1,94
 112 46 112 46 114 59 c 0,95,96
 119 88 119 88 91 88 c 0,86,87
EndSplineSet
EndChar
StartChar: uni0E14
Encoding: 3604 3604 288
Width: 427
Flags: W
Fore
215 349 m 0,0,1
 190 349 190 349 166.5 342.5 c 128,-1,2
 143 336 143 336 123.5 322.5 c 128,-1,3
 104 309 104 309 90.5 288.5 c 128,-1,4
 77 268 77 268 71 241 c 0,5,6
 66 213 66 213 69 174 c 128,-1,7
 72 135 72 135 76 102 c 2,8,-1
 77 95 l 1,9,10
 77 87 77 87 78 84 c 1,11,-1
 78 77 l 1,12,13
 82 64 82 64 82 47 c 1,14,-1
 180 154 l 1,15,16
 148 154 148 154 132 169 c 128,-1,17
 116 184 116 184 123 218 c 0,18,19
 126 232 126 232 134.5 243.5 c 128,-1,20
 143 255 143 255 154.5 263 c 128,-1,21
 166 271 166 271 179.5 275.5 c 128,-1,22
 193 280 193 280 206 280 c 0,23,24
 236 280 236 280 254 263.5 c 128,-1,25
 272 247 272 247 265 215 c 0,26,27
 261 193 261 193 244.5 171.5 c 128,-1,28
 228 150 228 150 212 133 c 2,29,-1
 97 0 l 1,30,-1
 31 0 l 1,31,32
 31 20 31 20 31 41 c 128,-1,33
 31 62 31 62 29 82 c 0,34,35
 28 96 28 96 25 116.5 c 128,-1,36
 22 137 22 137 20.5 159.5 c 128,-1,37
 19 182 19 182 18.5 203 c 128,-1,38
 18 224 18 224 21 240 c 256,39,40
 24 256 24 256 32 274 c 0,41,42
 60 337 60 337 111.5 362.5 c 128,-1,43
 163 388 163 388 223 388 c 0,44,45
 255 388 255 388 284.5 382 c 128,-1,46
 314 376 314 376 335.5 361.5 c 128,-1,47
 357 347 357 347 367.5 322.5 c 128,-1,48
 378 298 378 298 370 260 c 2,49,-1
 320 0 l 1,50,-1
 272 0 l 1,51,-1
 322 261 l 2,52,53
 327 288 327 288 319 305 c 128,-1,54
 311 322 311 322 295.5 331.5 c 128,-1,55
 280 341 280 341 258.5 345 c 128,-1,56
 237 349 237 349 215 349 c 0,0,1
166 215 m 256,57,58
 164 203 164 203 171 194.5 c 128,-1,59
 178 186 178 186 190 186 c 256,60,61
 202 186 202 186 212 194.5 c 128,-1,62
 222 203 222 203 224 215 c 256,63,64
 226 227 226 227 219.5 235.5 c 128,-1,65
 213 244 213 244 201 244 c 256,66,67
 189 244 189 244 178.5 235.5 c 128,-1,68
 168 227 168 227 166 215 c 256,57,58
EndSplineSet
EndChar
